<ttFont>
          <CharString index="0">
            -66 -34 -358 -413 -71 hhcurveto
            -8 -3 5 10 hvcurveto
            87 265 428 35 vvcurveto
            20 -33 45 -35 -54 -37 -73 -170 -97 vhcurveto
            -46 -81 -141 -224 -144 vvcurveto
            -63 47 -68 78 127 164 188 123 98 vhcurveto
            -37 -67 -6 -68 -41 vvcurveto
            -94 86 -35 60 133 153 164 53 27 vhcurveto
            -95 callsubr
            return
          </CharString>
          <CharString index="1">
            -25 -7 30 25 11 1 10 2 7 hvcurveto
            33 180 167 273 15 16 rrcurveto
            9 9 5 18 15 vvcurveto
            36 -34 16 -42 -41 -16 -4 -51 -33 vhcurveto
            33 -11 -43 30 -77 hhcurveto
            -222 -376 -315 -297 -17 1 -16 3 -17 hvcurveto
            -71 10 60 -66 86 hhcurveto
            100 162 115 143 110 hvcurveto
            -13 -29 -7 -33 -33 vvcurveto
            return
          </CharString>
          <CharString index="2">
            rmoveto
            23 10 7 22 49 -35 78 -16 41 hvcurveto
            38 -15 10 171 -122 hhcurveto
            -25 -23 -8 -13 -7 hvcurveto
            -43 -49 -33 -30 -70 -60 rrcurveto
            -84 -71 -102 -70 -64 vvcurveto
            17 callgsubr
            16 72 199 164 63 63 vhcurveto
            -100 31 20 -142 125 hhcurveto
            endchar
          </CharString>
          <CharString index="3">
            834 657 rmoveto
            74 -56 31 -47 -8 -12 0 -2 -14 vhcurveto
            6 vlineto
            12 -33 31 -60 -186 -397 -305 -365 -90 67 -76 97 288 361 482 202 vhcurveto
            -194 -28 rmoveto
            9 5 -7 -13 -40 -46 -99 -110 -138 hvcurveto
            -152 -121 -119 -59 -45 hhcurveto
            -27 -14 21 35 hvcurveto
            1 60 40 103 86 111 return
          </CharString>
          <CharString index="4">
            998 762 rmoveto
            20 -8 0 31 -27 hhcurveto
            -53 -53 2 -51 -46 hvcurveto
            20 -10 -30 19 -48 hhcurveto
            -223 -495 -326 -362 -106 74 -25 79 62 147 88 159 152 hvcurveto
            -183 -294 0 6 -18 -27 rrcurveto
            -29 -36 -298 -193 -194 vvcurveto
            -68 37 -39 70 36 34 13 30 17 vhcurveto
            38 65 65 92 112 135 207 249 374 186 11 26 rrcurveto
            5 10 1 16 17 vvcurveto
            51 -2 35 -24 -6 -9 -2 -4 -8 vhcurveto
            -191 -94 -166 -148 -69 -61 180 317 156 240 116 166 rrcurveto
            3 5 21 14 13 vvcurveto
            2 0 1 -1 2 vhcurveto
            -244 -72 rmoveto
            -409 -328 -229 -148 -24 hhcurveto
            -6 -3 6 11 83 179 367 411 90 hvcurveto
            return
          </CharString>
          <CharString index="5">
            828 694 rmoveto
            15 15 6 19 19 vvcurveto
            51 -30 29 -28 -28 -31 -18 -2 -13 vhcurveto
            -303 -46 -76 36 -110 -33 rrcurveto
            -72 -21 -37 -88 -14 vvcurveto
            -23 9 -10 11 vhcurveto
            3 hlineto
            69 13 166 8 144 10 -140 -123 -245 -149 -138 -263 rrcurveto
            -3 -6 -1 -12 -14 vvcurveto
            -28 5 -37 10 -9 vhcurveto
            -9 10 12 -16 50 hhcurveto
            13 15 1 3 19 hvcurveto
            88 11 512 84 49 22 rrcurveto
            26 12 35 54 30 vvcurveto
            39 -2 39 -10 6 vhcurveto
            8 -12 -10 4 -9 hhcurveto
            -8 -7 -3 -7 -7 hvcurveto
            -47 -49 -410 -57 -96 -29 110 189 324 250 110 86 37 10 15 8 10 10 rrcurveto
            return
          </CharString>
          <CharString index="6">
            vstem
            1001 1446 rmoveto
            4 9 2 8 6 vvcurveto
            15 -11 7 -16 vhcurveto
            -20 1 -97 -20 -48 -57 -21 -25 -276 -429 -279 -467 -61 -11 -54 -21 -14 -3 -18 -5 -29 -30 -16 -14 -17 -15 -8 -20 -16 -13 rrcurveto
            -6 -3 -2 -5 -4 -9 8 -10 -9 vvcurveto
            -12 5 -47 53 10 8 1 4 22 vhcurveto
            -205 -340 -166 -270 -168 vvcurveto
            -80 74 -24 41 190 600 589 279 41 -20 45 -33 39 vhcurveto
            99 24 75 19 11 2 rrcurveto
            15 3 6 13 14 vvcurveto
            20 -11 23 -6 1 vhcurveto
            7 -41 -39 23 -33 hhcurveto
            -5 -5 -1 -1 -4 hvcurveto
            -23 -6 -94 -16 -102 -19 -9 2 -8 5 -8 2 207 340 373 573 18 39 rrcurveto
            -537 -1206 rmoveto
            -252 -487 -428 -66 -7 -4 5 10 81 244 401 150 254 vhcurveto
            111 25 rlineto
            35 -27 24 -33 -36 vvcurveto
            return
          </CharString>
          <CharString index="7">
            -147 156 -37 119 162 147 96 78 96 vhcurveto
            15 12 20 19 6 16 rrcurveto
            6 17 0 20 17 vvcurveto
            18 0 61 -26 -8 -9 -6 -4 -6 vhcurveto
            -69 -92 -139 -138 -146 hhcurveto
            return
          </CharString>
          <CharString index="8">
            -4 -16 0 8 37 137 90 33 18 hvcurveto
            26 15 27 14 29 10 rrcurveto
            -2 -8 -2 -8 -10 vvcurveto
            -29 4 -16 32 89 86 77 89 return
          </CharString>
          <CharString index="9">
            -32 callgsubr
            -29 -162 -205 -95 hhcurveto
            -29 -31 12 32 69 112 166 33 51 hvcurveto
            39 60 121 162 61 vvcurveto
            55 -43 35 -51 -154 -154 -162 -106 -96 vhcurveto
            29 47 100 137 47 vvcurveto
            17 -2 22 -22 -92 callgsubr
            -37 -38 -53 -33 vvcurveto
            -6 0 -6 7 -4 vhcurveto
            return
          </CharString>
          <CharString index="10">
            rmoveto
            65 -60 39 -61 -137 -191 -244 -174 -123 vhcurveto
            -159 -225 -181 -405 -277 vvcurveto
            -129 62 -86 133 124 147 74 92 81 vhcurveto
            24 27 23 23 45 vvcurveto
            20 vlineto
            16 0 57 -26 vhcurveto
            return
          </CharString>
          <CharString index="11">
            866 -23 callsubr
            11 -3 -9 8 -11 hhcurveto
            -6 -7 3 callgsubr
            -19 -178 -176 -289 hhcurveto
            -106 -29 65 55 168 166 156 137 78 hvcurveto
            22 35 49 23 43 hhcurveto
            7 4 -2 -8 hvcurveto
            return
          </CharString>
          <CharString index="12">
            5 10 1 16 17 vvcurveto
            27 -4 30 -2 13 vhcurveto
            return
          </CharString>
          <CharString index="13">
            1705 1243 rmoveto
            86 -24 47 -21 21 vhcurveto
            22 -22 -64 31 -74 hhcurveto
            -612 -778 -731 -449 -155 82 -70 102 238 301 283 112 119 hvcurveto
            -64 -96 -225 -235 -191 -213 -110 -84 -137 -109 -56 -82 rrcurveto
            -41 -56 -2 -26 -4 vvcurveto
            -40 43 -22 52 41 47 15 33 32 vhcurveto
            82 86 146 151 100 111 rrcurveto
            379 281 166 145 0 vvcurveto
            8 6 5 7 7 vvcurveto
            9 -15 18 -48 -38 -39 -16 -21 -23 vhcurveto
            -67 -61 -56 -45 -47 -37 124 169 167 216 225 260 rrcurveto
            14 16 13 12 12 vvcurveto
            4 -2 5 -4 4 vhcurveto
            21 -19 -26 6 -53 hhcurveto
            -17 -14 -3 -4 -12 hvcurveto
            187 76 228 181 106 vvcurveto
            -481 -420 rmoveto
            -366 -399 -335 -234 -141 hhcurveto
            -49 -20 41 35 311 749 705 457 25 37 -6 -29 -84 -238 -170 -149 -27 hvcurveto
            -1 -6 -5 -1 -5 hhcurveto
            -18 -5 8 9 hvcurveto
            7 5 8 5 vvcurveto
            return
          </CharString>
          <CharString index="14">
            -6 -5 -3 -8 -8 vvcurveto
            -9 4 -9 7 -2 vhcurveto
            return
          </CharString>
          <CharString index="15">
            rmoveto
            -35 17 18 -84 86 hhcurveto
            23 10 6 22 49 -40 105 -13 43 hvcurveto
            135 -40 2 45 -48 hhcurveto
            -64 -76 -49 -24 -37 60 -45 65 -131 hvcurveto
            endchar
          </CharString>
          <CharString index="16">
            rmoveto
            -2 18 -20 9 -21 -17 rrcurveto
            -38 -322 -242 -32 -46 hvcurveto
            52 80 332 530 17 47 rrcurveto
            2 6 3 11 6 vvcurveto
            49 -26 26 -49 -52 -235 -150 -50 9 vhcurveto
            12 -70 55 28 24 -3 -114 -162 -125 -227 -161 -271 rrcurveto
            -163 -137 -203 -145 -99 vvcurveto
            -71 47 -31 49 141 183 274 84 43 vhcurveto
            207 228 383 170 18 28 13 25 -8 67 -5 21 rrcurveto
            return
          </CharString>
          <CharString index="17">
            53 -316 -21 314 138 -138 162 665 -20 hstemhm
            hintmask 11010000
            682 115 rmoveto
            -23 -9 16 26 81 88 175 30 62 hvcurveto
            24 49 47 68 86 166 rrcurveto
            0 1 1 2 vvcurveto
            10 -13 30 -10 2 vhcurveto
            1 -5 -6 0 -5 hhcurveto
            -45 -1 -51 -19 -15 -10 -17 -11 -41 -55 -40 -77 rrcurveto
            hintmask 10110000
            -280 -145 -213 -212 -69 hhcurveto
            -53 0 71 25 7 hvcurveto
            33 119 231 328 35 vvcurveto
            20 -33 45 -35 -54 -34 -74 -169 -100 vhcurveto
            -197 -334 -209 -329 -19 -32 rrcurveto
            -18 -31 -6 -27 -38 vvcurveto
            -56 3 61 -29 8 hhcurveto
            7 28 4 15 6 hvcurveto
            37 88 -8 48 193 288 rrcurveto
            -92 -13 67 -37 42 hhcurveto
            127 113 138 123 98 hvcurveto
            -37 -67 1 -36 -41 vvcurveto
            -94 93 -23 29 vhcurveto
            hintmask 11010000
            175 -23 154 -16 -89 hvcurveto
            endchar
          </CharString>
          <CharString index="18">
            13 11 22 17 17 vvcurveto
            16 -26 41 -17 9 vhcurveto
            2 -6 -8 0 -6 -51 -45 -33 -54 hhcurveto
            return
          </CharString>
          <CharString index="19">
            -20 hstem
            996 1016 rmoveto
            29 -4 30 -14 -10 -8 -11 -6 -6 vhcurveto
            -87 -91 -87 -92 -90 -97 rrcurveto
            14 -12 -30 17 -44 hhcurveto
            -186 -397 -305 -365 -36 10 -33 19 -27 hvcurveto
            -28 -35 -28 -35 -28 -36 rrcurveto
            -29 -37 -1 -14 -66 vvcurveto
            -32 7 -38 24 19 1 20 14 8 vhcurveto
            41 71 43 67 43 63 rrcurveto
            -7 19 21 -5 23 hhcurveto
            288 361 482 202 44 -20 29 -27 16 hvcurveto
            70 74 60 67 46 66 rrcurveto
            22 31 11 17 15 vvcurveto
            -498 -684 rmoveto
            -114 -143 -112 -61 -50 -7 149 196 151 157 132 135 rrcurveto
            -40 -46 -99 -110 -138 vhcurveto
            -199 119 rmoveto
            92 118 115 80 92 31 rrcurveto
            -1 vlineto
            -136 -148 -141 -159 -148 -179 7 62 40 94 79 102 rrcurveto
            return
          </CharString>
          <CharString index="20">
            1743 1434 rmoveto
            31 -18 -41 16 -51 hhcurveto
            -46 -55 -14 -29 -53 hvcurveto
            -53 -29 -47 -33 -43 -35 rrcurveto
            -38 -187 -166 -23 -208 hhcurveto
            -157 -44 12 20 hvcurveto
            14 33 23 15 vvcurveto
            8 -8 6 -15 -57 -105 -41 -73 -6 vhcurveto
            -1 -12 -1 -11 -10 vvcurveto
            -53 20 -32 78 -22 vhcurveto
            -17 58 66 -6 68 hhcurveto
            169 182 40 28 111 hvcurveto
            -104 -125 -84 -144 -97 -148 -179 -275 -130 -172 -12 -16 rrcurveto
            -6 -4 -5 -2 -5 hhcurveto
            -9 -9 8 8 hvcurveto
            7 5 8 6 vvcurveto
            8 -4 5 -7 -6 -9 -5 -9 -11 vhcurveto
            -31 -26 -135 -146 -88 vvcurveto
            -82 62 -24 53 203 221 500 368 258 vhcurveto
            84 119 98 156 96 123 rrcurveto
            158 24 198 50 92 vvcurveto
            17 -7 17 -11 17 vhcurveto
            return
          </CharString>
          <CharString index="21">
            rmoveto
            -61 -70 -68 -92 -60 vvcurveto
            -8 6 -18 17 43 182 157 33 27 vhcurveto
            30 29 27 37 45 vvcurveto
            20 -20 82 -60 -10 -10 -4 -14 -2 vhcurveto
            -4 -37 -29 -25 -68 -75 rrcurveto
            306 10 rmoveto
            -82 -66 -70 -61 -33 -86 rrcurveto
            -2 -6 -2 -6 -7 vvcurveto
            17 callgsubr
            17 53 186 116 27 29 vhcurveto
            43 29 41 45 63 vvcurveto
            35 -25 66 -41 -32 -19 -66 -57 -69 vhcurveto
            endchar
          </CharString>
          <CharString index="22">
            17 -4 22 -20 -92 callgsubr
            -38 -38 -50 -35 -9 callsubr
            10 65 -25 17 hhcurveto
            23 25 25 18 13 hvcurveto
            66 89 70 87 75 82 return
          </CharString>
          <CharString index="23">
            2 18 -51 72 62 54 88 72 85 vhcurveto
            84 71 88 58 38 vvcurveto
            21 -37 43 -16 -72 -174 -164 -63 -64 vhcurveto
            return
          </CharString>
          <CharString index="24">
            -21 1528 -20 hstem
            1805 1470 rmoveto
            47 -90 11 -35 -34 -42 -5 -75 -26 vhcurveto
            -58 -170 -462 -655 -142 -193 52 270 135 650 8 32 rrcurveto
            1 5 1 5 4 vvcurveto
            22 -24 19 -38 vhcurveto
            -25 -31 -16 -17 -14 -15 8 -18 hhcurveto
            -11 -15 -3 -13 -15 hvcurveto
            -250 -215 -676 -1099 -109 vvcurveto
            -18 31 -22 31 vhcurveto
            16 15 9 48 hhcurveto
            56 8 41 49 18 hvcurveto
            41 109 395 653 236 307 rrcurveto
            -43 -211 -150 -739 -107 vvcurveto
            -31 27 -11 16 -5 vhcurveto
            -5 15 39 -9 24 hhcurveto
            27 26 15 18 15 hvcurveto
            300 365 650 947 125 vvcurveto
            return
          </CharString>
          <CharString index="25">
            -53 -80 8 70 45 27 callgsubr
            41 23 hvcurveto
            31 17 34 2 29 24 rrcurveto
            return
          </CharString>
          <CharString index="26">
            rmoveto
            -29 -74 -4 -14 hvcurveto
            -151 -53 -76 -90 -125 vvcurveto
            -60 47 -71 90 49 40 6 31 46 vhcurveto
            138 92 37 113 53 vvcurveto
            73 -48 49 -69 vhcurveto
            -96 -106 rmoveto
            32 -12 58 -17 -28 vvcurveto
            -52 -63 -78 -86 -24 -38 9 35 58 30 37 27 19 vhcurveto
            17 12 29 18 18 -1 rrcurveto
            endchar
          </CharString>
          <CharString index="27">
            rmoveto
            -22 -19 -29 -22 -152 107 -141 154 180 172 248 38 21 -37 43 -16 hvcurveto
            return
          </CharString>
          <CharString index="28">
            -93 callsubr
            -69 callsubr
            return
          </CharString>
          <CharString index="29">
            18 2 68 -147 -152 -454 -152 -241 -89 74 -30 67 -20 vhcurveto
            131 -39 137 -15 -37 vvcurveto
            -45 -137 -63 -168 return
          </CharString>
          <CharString index="30">
            rmoveto
            -23 -10 -6 -22 -50 74 -198 16 -41 hvcurveto
            2 -6 0 -4 -5 -10 -4 -6 -8 vvcurveto
            return
          </CharString>
          <CharString index="31">
            -68 -23 117 -122 hhcurveto
            -68 -182 -111 -129 -24 12 -17 10 hvcurveto
            76 31 123 96 hhcurveto
            return
          </CharString>
          <CharString index="32">
            -64 callsubr
            -85 callsubr
            -71 callgsubr
            return
          </CharString>
          <CharString index="33">
            -172 80 -168 -12 38 vvcurveto
            33 193 158 188 10 vhcurveto
            -9 -28 -15 -3 -17 vvcurveto
            -8 3 -8 7 -3 vhcurveto
            return
          </CharString>
          <CharString index="34">
            -18 -36 24 37 hvcurveto
            5 1 6 5 vvcurveto
            19 -24 2 -25 -41 -41 -67 -72 -51 45 -68 145 166 312 113 180 37 -31 61 -62 29 vhcurveto
            return
          </CharString>
          <CharString index="35">
            135 18 -4 35 -18 -6 -7 0 -2 -4 hvcurveto
            return
          </CharString>
          <CharString index="36">
            -44 43 -12 -27 vvcurveto
            -46 -96 -24 -7 -5 vhcurveto
            return
          </CharString>
          <CharString index="37">
            405 430 392 180 96 -54 19 -37 -10 -38 -3 -25 -56 callgsubr
            hvcurveto
            15 callgsubr
            12 2 17 2 3 1 46 4 96 29 9 8 rrcurveto
            11 12 34 70 31 vvcurveto
            33 -31 20 -59 -52 -86 -10 -24 -50 vhcurveto
            -8 -18 -12 -4 -53 hhcurveto
            -82 -145 9 56 92 276 198 268 10 hvcurveto
            return
          </CharString>
          <CharString index="38">
            -8 17 -2 -17 32 hhcurveto
            return
          </CharString>
          <CharString index="39">
            -107 605 -20 hstem
            214 399 rmoveto
            118 2 4 14 117 15 56 7 57 3 56 11 rrcurveto
            22 2 34 20 41 vvcurveto
            15 -4 6 -8 9 vhcurveto
            -15 18 -4 27 -18 12 rrcurveto
            4 -7 -37 0 -9 hhcurveto
            -87 27 0 -6 -86 hvcurveto
            -57 -6 -57 -2 -56 -6 -21 -2 -59 -50 -7 -33 rrcurveto
            -4 -19 -19 -12 -18 vvcurveto
            -41 38 -13 21 2 vhcurveto
            endchar
          </CharString>
          <CharString index="40">
            rmoveto
            46 -25 52 -77 -62 -70 -43 -74 vhcurveto
            return
          </CharString>
          <CharString index="41">
            1165 -101 callgsubr
            return
          </CharString>
          <CharString index="42">
            -78 191 512 -482 151 hhcurveto
            31 32 3 20 23 hvcurveto
            33 29 45 104 8 23 rrcurveto
            2 3 0 4 2 vvcurveto
            11 -9 5 -8 vhcurveto
            -12 -9 -29 -44 hhcurveto
            -65 -164 114 127 -172 hvcurveto
            -133 103 -129 96 -123 70 301 137 543 274 291 262 rrcurveto
            return
          </CharString>
          <CharString index="43">
            885 723 rmoveto
            55 -41 35 -53 -152 -156 -162 -106 -94 vhcurveto
            29 47 100 137 47 vvcurveto
            return
          </CharString>
          <CharString index="44">
            -7 14 -2 -16 33 hhcurveto
            59 75 41 35 26 hvcurveto
            12 16 12 37 32 vvcurveto
            return
          </CharString>
          <CharString index="45">
            rmoveto
            -80 -164 -118 -246 -111 -234 -145 9 -119 4 -94 2 176 205 221 219 270 205 rrcurveto
            return
          </CharString>
          <CharString index="46">
            -8 17 25 -8 8 hhcurveto
            34 4 44 3 50 3 82 5 94 7 67 13 rrcurveto
            16 3 6 13 15 vvcurveto
            5 vlineto
            14 -10 45 -12 6 vhcurveto
            1 hlineto
            -1 1 -1 1 2 vvcurveto
            8 -3 -4 10 -27 hhcurveto
            -38 -102 -14 -13 -70 hvcurveto
            18 16 24 20 23 21 rrcurveto
            endchar
          </CharString>
          <CharString index="47">
            -80 -76 -75 -81 -36 15 -37 57 82 71 90 71 39 -23 29 -46 hvcurveto
            return
          </CharString>
          <CharString index="48">
            -1 1 1 0 2 hhcurveto
            6 9 2 5 3 hvcurveto
            2 2 9 -2 4 2 rrcurveto
            8 35 18 11 2 hhcurveto
            7 4 10 3 12 25 return
          </CharString>
          <CharString index="49">
            58 -39 24 -33 -100 -43 -113 -55 vhcurveto
            return
          </CharString>
          <CharString index="50">
            -53 -44 -255 -293 -66 hhcurveto
            -12 -2 13 10 37 29 59 18 33 hvcurveto
            98 176 172 153 199 44 rrcurveto
            return
          </CharString>
          <CharString index="51">
            -14 -16 -141 -177 -80 hhcurveto
            return
          </CharString>
          <CharString index="52">
            -19 -27 3 -34 hhcurveto
            -15 -12 -3 -8 -10 hvcurveto
            -94 -75 -783 -1166 -45 -152 rrcurveto
            -4 -10 0 -41 -8 vvcurveto
            return
          </CharString>
          <CharString index="53">
            1442 -41 callgsubr
            -295 -497 -214 -266 -138 109 -52 97 -22 hvcurveto
            -160 -91 -260 -199 -221 vvcurveto
            -199 167 -82 147 return
          </CharString>
          <CharString index="54">
            -35 callsubr
            469 return
          </CharString>
          <CharString index="55">
            -51 22 -33 39 84 70 99 71 vhcurveto
            endchar
          </CharString>
          <CharString index="56">
            rrcurveto
            -1 -3 0 -5 -5 vvcurveto
            -14 1 -18 2 -5 vhcurveto
            -4 29 -10 6 vhcurveto
            return
          </CharString>
          <CharString index="57">
            -7 -27 148 508 180 return
          </CharString>
          <CharString index="58">
            164 53 27 return
          </CharString>
          <CharString index="59">
            -78 -24 133 -139 hhcurveto
            -76 -207 -127 -145 -27 14 -20 13 hvcurveto
            84 34 139 109 return
          </CharString>
          <CharString index="60">
            31 2 49 19 39 vvcurveto
            14 -6 5 -11 9 vhcurveto
            -22 8 callsubr
            return
          </CharString>
          <CharString index="61">
            -94 -35 -97 -63 -111 vvcurveto
            return
          </CharString>
          <CharString index="62">
            -13 -7 21 16 158 255 303 79 9 4 -11 -10 -141 -181 -336 -146 hvcurveto
            return
          </CharString>
          <CharString index="63">
            -8 -3 -6 -7 return
          </CharString>
          <CharString index="64">
            rrcurveto
            6 12 3 7 6 vvcurveto
            7 -4 3 -7 6 vhcurveto
            13 -11 -13 36 -45 hhcurveto
            -29 -33 -11 -5 -10 hvcurveto
            -8 -12 -262 -176 -115 hhcurveto
            -62 -55 19 22 hvcurveto
            10 21 0 9 vvcurveto
            return
          </CharString>
          <CharString index="65">
            rmoveto
            66 33 33 49 23 -11 43 -24 -60 -40 3 5 -164 hvcurveto
            1 -51 -9 9 -166 hhcurveto
            -51 -28 -51 -57 -25 12 -24 35 hvcurveto
            37 72 4 78 123 52 -13 96 hhcurveto
            endchar
          </CharString>
          <CharString index="66">
            13 -3 0 11 -14 hhcurveto
            -33 -47 -47 -42 -33 25 -53 71 189 224 152 134 12 hvcurveto
            4 1 2 1 vvcurveto
            59 -63 42 -63 8 vhcurveto
            186 116 60 97 59 vvcurveto
            return
          </CharString>
          <CharString index="67">
            -10 -37 150 379 321 -133 133 return
          </CharString>
          <CharString index="68">
            -51 -78 -62 -54 hhcurveto
            -4 -16 0 8 37 170 119 -22 callsubr
            return
          </CharString>
          <CharString index="69">
            -72 36 -55 114 133 154 -10 callsubr
            return
          </CharString>
          <CharString index="70">
            104 68 184 97 51 hhcurveto
            7 6 -2 -4 -44 -127 -85 -68 -45 hvcurveto
            -8 -5 -10 -7 -6 -4 -13 -9 -14 -8 -12 -7 rrcurveto
            -38 -22 -28 -16 -37 vvcurveto
            return
          </CharString>
          <CharString index="71">
            0 178 293 153 return
          </CharString>
          <CharString index="72">
            -8 callsubr
            -151 return
          </CharString>
          <CharString index="73">
            rmoveto
            42 -28 44 -72 -202 -202 -191 -67 -6 vhcurveto
            -9 vlineto
            -28 1 23 -27 34 hhcurveto
            14 4 8 8 4 hvcurveto
            3 6 rlineto
            -1 vlineto
            return
          </CharString>
          <CharString index="74">
            rrcurveto
            24 3 39 14 31 vvcurveto
            7 -1 4 -6 4 vhcurveto
            -13 11 -6 12 -8 12 -7 12 -7 9 -7 4 rrcurveto
            4 -9 -48 0 -12 hhcurveto
            return
          </CharString>
          <CharString index="75">
            33 -11 -43 30 -77 hhcurveto
            -222 -376 -315 -297 -99 60 -88 100 94 79 42 68 79 hvcurveto
            -13 -20 -8 -15 -4 vvcurveto
            return
          </CharString>
          <CharString index="76">
            -4 -37 160 -160 258 379 -24 callgsubr
            return
          </CharString>
          <CharString index="77">
            -131 -84 rrcurveto
            -29 -19 -23 -26 -23 vvcurveto
            -7 2 -7 5 -6 vhcurveto
            return
          </CharString>
          <CharString index="78">
            167 188 11 rrcurveto
            -164 -66 -170 -153 -105 vvcurveto
            -51 90 -79 11 9 6 12 8 vhcurveto
            5 -3 3 5 vvcurveto
            return
          </CharString>
          <CharString index="79">
            rmoveto
            67 57 73 61 64 51 -82 -108 -40 -61 -45 -71 -56 -7 -43 -6 -49 -9 32 26 40 33 39 34 rrcurveto
            endchar
          </CharString>
          <CharString index="80">
            2 3 0 3 3 vvcurveto
            11 -10 9 -16 vhcurveto
            -11 -13 -2 -23 return
          </CharString>
          <CharString index="81">
            -36 callgsubr
            -36 48 -13 30 vhcurveto
            return
          </CharString>
          <CharString index="82">
            hstemhm
            -36 callsubr
            return
          </CharString>
          <CharString index="83">
            -21 645 170 return
          </CharString>
          <CharString index="84">
            295 rmoveto
            return
          </CharString>
          <CharString index="85">
            33 18 hvcurveto
            26 15 27 14 29 10 rrcurveto
            -2 -8 -2 -8 -10 vvcurveto
            -29 4 -16 32 89 86 77 89 vhcurveto
            return
          </CharString>
          <CharString index="86">
            -179 -237 -228 vhcurveto
            -221 -234 -145 -292 -222 vvcurveto
            -237 184 -96 102 return
          </CharString>
          <CharString index="87">
            vvcurveto
            -63 39 -111 85 26 29 2 4 29 vhcurveto
            80 10 229 88 86 vvcurveto
            16 -11 4 -15 return
          </CharString>
          <CharString index="88">
            -32 hhcurveto
            -297 -365 -355 -295 -90 67 -76 97 396 347 533 529 return
          </CharString>
          <CharString index="89">
            14 6 6 23 hhcurveto
            4 25 18 11 6 hvcurveto
            24 47 140 217 157 248 rrcurveto
            return
          </CharString>
          <CharString index="90">
            11 -1 -9 8 -11 hhcurveto
            -7 3 callsubr
            -8 hvcurveto
            return
          </CharString>
          <CharString index="91">
            -8 callgsubr
            -166 166 return
          </CharString>
          <CharString index="92">
            rmoveto
            -59 callgsubr
            return
          </CharString>
          <CharString index="93">
            -26 13 -28 25 104 49 -22 -29 2 vhcurveto
            -54 -175 -86 -100 -21 -4 18 13 -3 vhcurveto
            return
          </CharString>
          <CharString index="94">
            107 73 139 88 66 -30 24 -39 -103 -73 -153 -86 -50 24 -28 41 hvcurveto
            endchar
          </CharString>
          <CharString index="95">
            vvcurveto
            14 -7 6 -10 8 vhcurveto
            -22 8 callsubr
            10 rrcurveto
            5 -10 -54 0 -12 hhcurveto
            return
          </CharString>
          <CharString index="96">
            48 -37 147 -147 351 -307 -21 return
          </CharString>
          <CharString index="97">
            -49 callsubr
            vhcurveto
            5 10 1 16 17 vvcurveto
            return
          </CharString>
          <CharString index="98">
            vvcurveto
            -6 0 -6 7 -4 vhcurveto
            -10 return
          </CharString>
          <CharString index="99">
            26 callsubr
            354 151 return
          </CharString>
          <CharString index="100">
            -37 -60 -47 -33 vvcurveto
            return
          </CharString>
          <CharString index="101">
            -13 137 rrcurveto
            31 -6 -4 25 -39 hhcurveto
            -47 -37 -109 -64 hvcurveto
            2 -45 43 return
          </CharString>
          <CharString index="102">
            151 71 rrcurveto
            36 22 11 26 24 vvcurveto
            15 -4 14 -4 12 vhcurveto
            -55 160 return
          </CharString>
          <CharString index="103">
            195 -195 316 995 170 hstemhm
            141 119 120 207 return
          </CharString>
          <CharString index="104">
            164 1056 264 -178 178 hstemhm
            186 181 33 177 return
          </CharString>
          <CharString index="105">
            153 803 169 -169 370 return
          </CharString>
          <CharString index="106">
            123 -123 393 return
          </CharString>
          <CharString index="107">
            -483 341 return
          </CharString>
          <CharString index="108">
            170 127 303 299 76 hhcurveto
            12 8 -9 -12 hvcurveto
            endchar
          </CharString>
          <CharString index="109">
            391 14 -20 hstemhm
            return
          </CharString>
          <CharString index="110">
            -7 -3 -6 return
          </CharString>
          <CharString index="111">
            6 rrcurveto
            6 5 3 8 8 vvcurveto
            9 -4 9 -7 2 vhcurveto
            8 -17 return
          </CharString>
          <CharString index="112">
            74 -50 61 -57 -211 -286 -386 -229 -98 58 -55 73 return
          </CharString>
          <CharString index="113">
            hstem
            -267 167 564 174 return
          </CharString>
          <CharString index="114">
            150 -150 349 -303 -21 return
          </CharString>
          <CharString index="115">
            17 -6 26 -25 return
          </CharString>
          <CharString index="116">
            8 8 -2 8 17 16 9 16 hhcurveto
            18 17 12 11 10 hvcurveto
            return
          </CharString>
          <CharString index="117">
            178 621 153 -153 195 276 135 hstemhm
            return
          </CharString>
          <CharString index="118">
            vvcurveto
            -24 0 -80 34 17 20 26 23 17 vhcurveto
            98 78 31 return
          </CharString>
          <CharString index="119">
            1552 rmoveto
            41 -6 43 -19 -14 -12 -16 -8 -9 vhcurveto
            return
          </CharString>
          <CharString index="120">
            133 153 -49 callsubr
            return
          </CharString>
          <CharString index="121">
            343 -246 139 return
          </CharString>
          <CharString index="122">
            vvcurveto
            -59 callgsubr
            return
          </CharString>
          <CharString index="123">
            -3 -6 -7 hvcurveto
            return
          </CharString>
          <CharString index="124">
            195 endchar
          </CharString>
          <CharString index="125">
            -6 -6 1 -7 hhcurveto
            -9 -12 -2 -10 -15 hvcurveto
            -51 -33 return
          </CharString>
          <CharString index="126">
            -31 -3 -84 -46 -10 -30 rrcurveto
            -6 -19 -27 -12 -16 vvcurveto
            return
          </CharString>
          <CharString index="127">
            rrcurveto
            10 16 11 14 15 vvcurveto
            8 -3 7 -9 7 vhcurveto
            return
          </CharString>
          <CharString index="128">
            7 -7 5 -11 -13 -101 -32 -97 -83 78 -104 235 return
          </CharString>
          <CharString index="129">
            rmoveto
            -345 -174 -185 -130 -122 hhcurveto
            return
          </CharString>
          <CharString index="130">
            26 callsubr
            233 245 374 211 return
          </CharString>
          <CharString index="131">
            779 5 -21 29 -21 24 -21 22 -21 24 -21 return
          </CharString>
          <CharString index="132">
            748 rmoveto
            43 -66 18 -35 return
          </CharString>
          <CharString index="133">
            hstemhm
            6 158 return
          </CharString>
          <CharString index="134">
            rmoveto
            -18 -10 -16 -9 -11 hvcurveto
            -168 -138 return
          </CharString>
          <CharString index="135">
            rlineto
            15 19 5 11 9 vvcurveto
            8 -4 7 -4 return
          </CharString>
          <CharString index="136">
            35 16 15 35 15 22 vhcurveto
            156 112 return
          </CharString>
          <CharString index="137">
            -232 -21 22 -21 return
          </CharString>
          <CharString index="138">
            -69 -92 -139 -138 -146 hhcurveto
            -53 return
          </CharString>
        <CharString name=".notdef">
          1291 endchar
        </CharString>
        <CharString name=".null">
          -757 endchar
        </CharString>
        <CharString name="A">
          446 -45 -21 539 154 845 -20 hstem
          1551 1366 rmoveto
          2 5 0 4 5 vvcurveto
          -91 callgsubr
          -100 -211 7 callgsubr
          -9 7 -6 25 vhcurveto
          15 10 13 45 hhcurveto
          90 43 78 94 51 hvcurveto
          31 callgsubr
          -224 -104 -62 callsubr
          endchar
        </CharString>
        <CharString name="AE">
          1305 -45 -21 38 164 337 154 565 264 -178 150 -150 178 16 -20 hstemhm
          1927 14 callsubr
          hintmask 1110010100000000
          2270 -41 callgsubr
          -141 -186 -49 -79 -156 hvcurveto
          6 15 5 13 3 10 rrcurveto
          2 5 0 4 5 vvcurveto
          hintmask 1110101010000000
          -91 callgsubr
          -100 -211 7 callgsubr
          -9 7 -6 25 vhcurveto
          15 10 13 45 hhcurveto
          90 43 78 94 51 hvcurveto
          6 11 11 22 14 29 rrcurveto
          -147 35 143 -62 128 hhcurveto
          -70 callsubr
          hintmask 1111000100000000
          2 callgsubr
          -64 callgsubr
          -943 -73 -62 callsubr
          -14 -450 rmoveto
          36 -25 44 -14 41 -9 -62 -36 -78 -51 -71 -63 30 65 30 66 30 67 rrcurveto
          endchar
        </CharString>
        <CharString name="AEacute">
          1305 1091 684 225 4 callgsubr
        </CharString>
        <CharString name="Aacute">
          446 892 684 65 4 callgsubr
        </CharString>
        <CharString name="Abreve">
          446 751 684 65 198 endchar
        </CharString>
        <CharString name="Acircumflex">
          446 814 684 65 17 callsubr
        </CharString>
        <CharString name="Adieresis">
          446 826 684 65 200 endchar
        </CharString>
        <CharString name="Agrave">
          446 707 684 65 193 endchar
        </CharString>
        <CharString name="Amacron">
          446 820 684 65 197 endchar
        </CharString>
        <CharString name="Aogonek">
          446 -397 155 715 154 845 -20 hstem
          614 -31 callgsubr
          -29 callgsubr
          49 57 79 64 46 vhcurveto
          57 24 36 64 40 74 31 callgsubr
          2 5 0 4 5 vvcurveto
          -91 callgsubr
          -106 -199 7 callgsubr
          -3 -2 -27 40 3 vhcurveto
          -84 -51 -39 -96 -41 vvcurveto
          713 1516 -62 callsubr
          endchar
        </CharString>
        <CharString name="Aring">
          446 873 684 65 202 endchar
        </CharString>
        <CharString name="Atilde">
          446 763 684 65 196 endchar
        </CharString>
        <CharString name="B">
          643 -6 178 -178 321 -316 -21 978 75 251 170 hstemhm
          378 176 713 186 -8 189 hintmask 00111101
          1634 1161 rmoveto
          168 -142 123 -338 -335 -441 -197 -198 -56 33 -45 76 64 48 52 17 4 -2 2 -4 vhcurveto
          -6 -14 -7 -9 hhcurveto
          -6 -4 2 8 45 291 203 346 119 135 -25 -92 -151 -383 -199 -264 -76 hvcurveto
          72 115 84 129 104 170 rrcurveto
          8 14 4 9 8 vvcurveto
          18 -22 2 -23 -85 -37 -11 -28 -23 vhcurveto
          -70 -78 -516 -806 -65 -172 rrcurveto
          -6 -15 -3 -16 -15 vvcurveto
          -47 32 -38 64 27 22 8 22 11 vhcurveto
          38 74 36 65 33 60 rrcurveto
          -13 -29 -2 -24 -9 vvcurveto
          hintmask 10011110
          -34 68 -117 250 340 327 237 203 170 -176 78 -147 16 vhcurveto
          hintmask 10011101
          209 74 295 176 213 vvcurveto
          hintmask 10011110
          -367 -712 rmoveto
          -84 -207 -193 -258 -131 -22 45 27 vhcurveto
          45 53 -6 17 vvcurveto
          hintmask 01011110
          7 -13 8 -47 -69 -41 -28 -37 -27 vhcurveto
          70 125 61 104 68 109 rrcurveto
          -33 18 9 -9 13 14 26 27 151 hhcurveto
          244 88 -84 -40 hvcurveto
          endchar
        </CharString>
        <CharString name="C">
          407 -4 158 637 145 338 160 hstem
          164 174 985 201 vstem
          1524 1276 rmoveto
          106 -131 52 -72 -508 -649 -629 -496 -182 153 -131 129 404 300 340 76 15 vhcurveto
          10 55 7 44 33 vvcurveto
          24 -11 15 -13 -5 -3 -2 -6 -1 vhcurveto
          -36 -4 -420 -385 -252 hhcurveto
          -96 -39 61 78 210 180 280 205 188 hvcurveto
          175 191 252 128 122 hhcurveto
          24 11 -10 -16 -79 -250 -233 -82 -16 -14 3 9 3 1 3 3 4 hvcurveto
          -25 -12 -61 -14 -37 49 -55 70 133 344 299 186 hvcurveto
          endchar
        </CharString>
        <CharString name="CR">
          -332 endchar
        </CharString>
        <CharString name="Cacute">
          407 725 644 67 4 callgsubr
        </CharString>
        <CharString name="Ccaron">
          407 616 644 67 207 endchar
        </CharString>
        <CharString name="Ccedilla">
          407 148 20 67 203 endchar
        </CharString>
        <CharString name="Ccircumflex">
          407 647 644 67 17 callsubr
        </CharString>
        <CharString name="Cdotaccent">
          407 634 644 67 199 endchar
        </CharString>
        <CharString name="D">
          850 0 168 815 451 -154 154 hstemhm
          300 197 -119 212 1015 196 hintmask 11001100
          1801 979 rmoveto
          262 -243 193 -439 -436 -305 -209 -160 -63 54 -19 24 vhcurveto
          4 hlineto
          6 5 -3 10 hhcurveto
          16 1 28 7 66 40 19 12 -3 9 29 16 rrcurveto
          12 7 6 5 3 vvcurveto
          2 -3 2 -6 vhcurveto
          -8 -16 -8 -19 hhcurveto
          -7 -5 3 5 9 11 14 27 21 hvcurveto
          hintmask 10110100
          47 60 197 105 232 hhcurveto
          314 174 -160 -188 -279 -555 -485 -496 -42 -15 4 9 15 535 825 110 153 hvcurveto
          16 22 7 13 11 vvcurveto
          23 -19 6 -55 vhcurveto
          -82 -6 -25 -8 -6 -8 -115 -156 -509 -719 -46 -166 rrcurveto
          -3 -12 -5 -27 -26 vvcurveto
          -25 5 -24 14 -9 vhcurveto
          -24 35 -23 -39 203 hhcurveto
          551 716 461 518 hvcurveto
          endchar
        </CharString>
        <CharString name="Dcaron">
          850 545 643 68 207 endchar
        </CharString>
        <CharString name="Dcroat">
          -98 callgsubr
        </CharString>
        <CharString name="E">
          475 -28 -3 callsubr
          522 14 callsubr
          hintmask 10111100
          -54 callsubr
          vhcurveto
          hintmask 10111010
          -70 callsubr
          hintmask 11011100
          2 callgsubr
          -64 callgsubr
          endchar
        </CharString>
        <CharString name="Eacute">
          475 485 659 69 4 callgsubr
        </CharString>
        <CharString name="Ebreve">
          475 344 659 69 198 endchar
        </CharString>
        <CharString name="Ecaron">
          475 376 659 69 207 endchar
        </CharString>
        <CharString name="Ecircumflex">
          475 407 659 69 17 callsubr
        </CharString>
        <CharString name="Edieresis">
          475 419 659 69 200 endchar
        </CharString>
        <CharString name="Edotaccent">
          475 394 659 69 199 endchar
        </CharString>
        <CharString name="Egrave">
          475 300 659 69 193 endchar
        </CharString>
        <CharString name="Emacron">
          475 413 659 69 197 endchar
        </CharString>
        <CharString name="Eng">
          568 -463 187 1804 -20 hstem
          1111 1382 rmoveto
          1 5 1 5 4 vvcurveto
          22 -24 19 -38 vhcurveto
          -25 -31 -16 -17 -14 -15 8 -18 hhcurveto
          -11 -15 -3 -13 -15 hvcurveto
          -250 -215 -676 -1099 -109 vvcurveto
          -18 31 -22 31 vhcurveto
          16 15 9 48 hhcurveto
          56 8 41 49 18 hvcurveto
          41 109 395 653 236 307 -41 -199 -135 -672 -16 -169 -18 -27 -16 -21 -7 -11 rrcurveto
          -114 -83 -127 -181 -116 hhcurveto
          -22 -20 13 28 hvcurveto
          24 102 69 43 vvcurveto
          16 -48 10 -33 -96 -90 -146 -86 -76 74 -82 131 322 314 594 197 149 vhcurveto
          166 219 556 784 139 vvcurveto
          47 -90 11 -35 -34 -42 -5 -75 -26 vhcurveto
          -10 -30 -23 -45 -31 -55 -182 -320 -223 -295 -195 -273 66 329 124 595 7 28 rrcurveto
          endchar
        </CharString>
        <CharString name="Eogonek">
          475 -367 155 184 -3 callsubr
          -45 -1 callsubr
          174 14 callsubr
          hintmask 1101110010000000
          -54 callsubr
          51 51 6 12 51 vhcurveto
          hintmask 1110100110000000
          -76 -77 -45 -96 -41 vvcurveto
          -87 callgsubr
          hintmask 1110101001000000
          -29 callgsubr
          45 114 163 56 26 vhcurveto
          266 123 244 240 134 vvcurveto
          96 -54 19 -37 -10 -38 -3 -25 -56 callgsubr
          vhcurveto
          15 callgsubr
          12 2 17 2 3 1 46 4 96 29 9 8 rrcurveto
          11 12 34 70 31 vvcurveto
          33 -31 20 -59 -52 -86 -10 -24 -50 vhcurveto
          -8 -18 -12 -4 -53 hhcurveto
          hintmask 1101110010000000
          -82 -145 9 56 92 276 198 268 10 hvcurveto
          2 callgsubr
          hintmask 1110110010000000
          -64 callgsubr
          endchar
        </CharString>
        <CharString name="Eth">
          -98 callgsubr
        </CharString>
        <CharString name="Euro">
          236 -30 151 235 165 -132 132 69 148 34 139 185 153 hstemhm
          216 164 733 194 hintmask 11011111
          269 582 rmoveto
          16 19 0 1 18 hvcurveto
          -12 -24 -12 -23 -10 -24 -25 -1 -23 -2 -19 -1 -31 -3 -92 -16 -10 -26 rrcurveto
          -6 -17 -16 -33 -14 vvcurveto
          -32 47 -11 29 vhcurveto
          14 hlineto
          24 27 1 1 27 hvcurveto
          -12 -49 -6 -49 -47 vvcurveto
          -144 96 -99 91 247 244 304 68 17 vhcurveto
          13 51 12 43 30 vvcurveto
          21 -7 12 -8 -6 -23 -2 -10 -2 vhcurveto
          -31 -7 -284 -335 -149 hhcurveto
          -49 -21 38 53 48 11 54 19 55 hvcurveto
          hintmask 10111111
          108 8 94 10 26 2 66 4 5 9 24 83 rrcurveto
          9 3 -8 27 -13 hhcurveto
          -59 -89 -1 -2 -91 hvcurveto
          13 24 14 24 15 24 129 6 120 8 29 1 29 1 35 20 14 31 rrcurveto
          68 30 -23 13 -56 hhcurveto
          -58 -72 1 1 -74 hvcurveto
          26 33 26 31 25 27 rrcurveto
          154 142 175 111 82 hhcurveto
          12 4 -5 -9 -64 -120 -107 -72 -11 -10 1 4 1 3 4 9 10 hvcurveto
          -29 -1 -30 -44 -32 vvcurveto
          -35 41 -47 61 123 229 182 164 88 -88 43 -51 -229 -315 -229 -282 -204 vhcurveto
          -31 -1 -29 -1 -27 -2 -30 -2 -88 -21 -10 -28 rrcurveto
          -6 -15 -20 -29 -14 vvcurveto
          -32 47 -11 29 vhcurveto
          endchar
        </CharString>
        <CharString name="F">
          432 -4 -21 605 182 416 163 -81 249 -75 26 hstemhm
          382 156 hintmask 11010100
          1789 1432 rmoveto
          -1 13 -8 12 -9 13 rrcurveto
          23 -16 -28 16 -42 hhcurveto
          -121 -88 -53 -78 -94 hvcurveto
          hintmask 11101100
          -20 -129 -174 -17 -232 hhcurveto
          -246 -63 29 16 17 26 31 41 10 7 4 5 7 -17 10 -53 -104 -66 -57 -60 -94 84 -71 285 231 140 18 16 88 hvcurveto
          -119 -139 -137 -205 -70 -106 -209 -2 -176 -19 -19 -4 -29 -7 -33 -38 -9 -18 -9 -19 -12 0 -24 -55 rrcurveto
          -2 -5 -2 -7 -6 vvcurveto
          -18 10 -17 18 16 21 10 2 10 vhcurveto
          43 4 136 10 143 7 -123 -177 -192 -280 -21 -60 rrcurveto
          -5 -15 -4 -12 -9 vvcurveto
          -28 26 -9 55 -10 vhcurveto
          -3 16 13 -2 11 hhcurveto
          39 13 19 29 16 hvcurveto
          12 22 220 342 129 201 rrcurveto
          23 22 1 20 hhcurveto
          50 41 -2 -1 26 hvcurveto
          -2 10 -4 -2 23 hhcurveto
          30 2 22 23 21 hvcurveto
          18 16 39 37 16 vvcurveto
          25 -18 21 -45 6 vhcurveto
          -47 6 -49 4 -52 2 rrcurveto
          hintmask 11010100
          158 237 123 162 80 101 rrcurveto
          229 16 127 108 48 vvcurveto
          -131 18 rmoveto
          hintmask 11101100
          -2 -14 -4 -25 -10 vhcurveto
          12 6 13 6 14 4 rrcurveto
          endchar
        </CharString>
        <CharString name="G">
          538 -506 -21 572 10 callsubr
          110 170 749 408 111 157 hintmask 11101111
          -94 callsubr
          hintmask 11011111
          -21 callgsubr
          endchar
        </CharString>
        <CharString name="Gbreve">
          538 703 659 71 198 endchar
        </CharString>
        <CharString name="Gcircumflex">
          538 766 659 71 17 callsubr
        </CharString>
        <CharString name="Gcommaaccent">
          538 -527 495 -341 341 77 10 callsubr
          -10 -14 callgsubr
          -114 114 805 408 111 157 hintmask 1011010011100000
          -94 callsubr
          hintmask 0110111001100000
          -21 callgsubr
          -1000 -953 -67 callsubr
          hintmask 1011010101100000
          -71 callsubr
          hintmask 0111011001100000
          -97 callgsubr
        </CharString>
        <CharString name="Gdotaccent">
          538 753 659 71 199 endchar
        </CharString>
        <CharString name="H">
          24 callsubr
          580 183 336 178 200 -20 hstemhm
          hintmask 01000111
          1994 1413 rmoveto
          5 callgsubr
          -24 -33 -255 -402 -123 -194 rrcurveto
          -6 -186 -303 -4 -88 hhcurveto
          139 215 258 391 14 28 -43 callsubr
          -5 callgsubr
          -112 -159 -127 -189 -72 -113 rrcurveto
          -21 -18 -2 -18 hhcurveto
          -58 -86 7 2 -61 hvcurveto
          -8 -7 7 -11 23 callgsubr
          17 -68 31 -21 42 -7 14 -3 39 1 51 -2 -78 -120 -121 -173 -51 callgsubr
          199 356 -17 callgsubr
          -188 -309 -27 -64 rrcurveto
          -6 -14 -3 -12 -9 vvcurveto
          hintmask 10000111
          -25 19 -9 31 vhcurveto
          hintmask 01000111
          28 19 8 9 hhcurveto
          6 hlineto
          hintmask 00100111
          7 4 3 6 hhcurveto
          hintmask 01000111
          5 7 -3 4 hhcurveto
          hintmask 00001111
          11 8 7 8 hhcurveto
          hintmask 00010111
          -13 callgsubr
          146 239 171 258 119 185 20 callsubr
          endchar
        </CharString>
        <CharString name="Hbar">
          24 callsubr
          551 164 123 170 91 178 -178 250 128 -20 hstemhm
          hintmask 0100011101000000
          1698 837 rmoveto
          81 242 0 -72 callsubr
          -27 -7 -86 -5 -104 -4 80 124 77 118 63 97 20 callsubr
          5 callgsubr
          -16 -22 -121 -186 -117 -182 rrcurveto
          -3 -121 -108 -1 -29 hhcurveto
          -43 -126 2 2 -139 hvcurveto
          122 184 121 183 9 18 -43 callsubr
          hintmask 0100011011000000
          -5 callgsubr
          -44 -62 -49 -70 -48 -70 rrcurveto
          1 -116 -100 2 -36 -78 callgsubr
          21 1 65 1 91 1 -31 -46 -27 -42 -21 -32 rrcurveto
          -21 -18 -2 -18 -62 -28 18 -27 23 callgsubr
          18 -71 -1 -29 63 -2 -78 -120 -98 -144 -51 callgsubr
          176 327 -17 callgsubr
          -165 -280 -27 -64 rrcurveto
          -6 -14 -3 -12 -9 vvcurveto
          hintmask 1000011101000000
          -25 19 -9 31 vhcurveto
          hintmask 0100011101000000
          28 19 8 9 hhcurveto
          6 hlineto
          hintmask 0010011101000000
          7 4 3 6 hhcurveto
          hintmask 0100011101000000
          5 7 -3 4 hhcurveto
          hintmask 0000111101000000
          11 8 7 8 hhcurveto
          hintmask 0001011101000000
          -13 callgsubr
          35 57 36 58 36 58 rrcurveto
          -294 -104 rmoveto
          -6 -186 -303 -4 -88 hhcurveto
          21 33 26 39 27 42 rrcurveto
          569 hlineto
          -24 -38 -24 -37 -18 -29 rrcurveto
          endchar
        </CharString>
        <CharString name="Hcircumflex">
          779 853 642 72 17 callsubr
        </CharString>
        <CharString name="I">
          -183 -9 -21 22 -21 1481 -20 21 -20 hstemhm
          hintmask 01100000
          1092 1423 rmoveto
          -27 callsubr
          hhcurveto
          hintmask 01010000
          -55 callsubr
          -6 37 -13 8 vhcurveto
          hintmask 10100000
          -42 callgsubr
          endchar
        </CharString>
        <CharString name="IJ">
          1131 -602 166 1722 178 hstem
          574 143 39 197 vstem
          1092 1423 rmoveto
          -27 callsubr
          -55 callsubr
          -6 37 -13 8 vhcurveto
          -42 callgsubr
          541 -1095 -94 callgsubr
        </CharString>
        <CharString name="Iacute">
          -183 463 662 73 4 callgsubr
        </CharString>
        <CharString name="Ibreve">
          -183 322 662 73 198 endchar
        </CharString>
        <CharString name="Icircumflex">
          -183 385 662 73 17 callsubr
        </CharString>
        <CharString name="Idieresis">
          -183 347 662 73 200 endchar
        </CharString>
        <CharString name="Idotaccent">
          -183 372 662 73 199 endchar
        </CharString>
        <CharString name="Igrave">
          -183 278 662 73 193 endchar
        </CharString>
        <CharString name="Imacron">
          -183 391 662 73 197 endchar
        </CharString>
        <CharString name="Iogonek">
          -183 -397 155 1694 -20 21 -20 hstemhm
          -132 -1 callsubr
          hintmask 11001000
          -132 -31 callgsubr
          hintmask 11010000
          -29 callgsubr
          54 94 103 40 53 vhcurveto
          6 21 11 5 3 hhcurveto
          11 3 9 7 19 31 345 561 323 486 225 331 rrcurveto
          -27 callsubr
          hhcurveto
          hintmask 10101000
          -55 callsubr
          -3 8 -4 9 -4 vhcurveto
          -63 -68 -64 -116 -49 vvcurveto
          endchar
        </CharString>
        <CharString name="Itilde">
          -183 334 662 73 196 endchar
        </CharString>
        <CharString name="J">
          557 -602 166 749 146 827 178 hstem
          0 143 39 197 vstem
          1059 328 -94 callgsubr
        </CharString>
        <CharString name="Jcircumflex">
          557 836 673 74 17 callsubr
        </CharString>
        <CharString name="K">
          711 -23 175 -161 -21 41 20 callgsubr
          hintmask 01001110
          1865 1335 rmoveto
          8 7 4 10 10 vvcurveto
          53 -73 15 -54 8 vhcurveto
          1 -12 -13 9 -11 hhcurveto
          -7 -5 -2 -8 -5 hvcurveto
          -31 -43 -526 -340 -355 -185 154 242 135 207 23 35 rrcurveto
          6 10 2 8 8 vvcurveto
          14 -8 10 -11 9 vhcurveto
          -6 4 0 8 -12 11 -10 8 -10 -2 -7 6 rrcurveto
          10 -14 -16 4 -29 -84 -197 -190 -96 hhcurveto
          -37 -9 6 8 hvcurveto
          8 8 8 8 vvcurveto
          4 -2 4 -7 -8 -86 -34 -80 -67 39 -54 69 90 82 64 45 48 vhcurveto
          -46 -72 -116 -176 -129 -190 rrcurveto
          4 -27 -25 2 -26 hhcurveto
          -41 -57 -62 -45 -43 61 4 25 hvcurveto
          -183 -272 -176 -264 -6 -12 rrcurveto
          -7 -15 -11 -18 -16 vvcurveto
          -19 33 -28 19 vhcurveto
          hintmask 10000110
          21 callgsubr
          hintmask 01010110
          5 7 7 1 8 hhcurveto
          hintmask 00100110
          10 12 -2 13 hhcurveto
          hintmask 01001110
          -18 callsubr
          hintmask 10000110
          -65 callsubr
          endchar
        </CharString>
        <CharString name="Kcommaaccent">
          711 0 callsubr
          119 175 -141 20 callgsubr
          35 191 hintmask 10001111
          1865 1335 rmoveto
          8 7 4 10 10 vvcurveto
          53 -73 15 -54 8 vhcurveto
          1 -12 -13 9 -11 hhcurveto
          -7 -5 -2 -8 -5 hvcurveto
          -31 -43 -526 -340 -355 -185 154 242 135 207 23 35 rrcurveto
          6 10 2 8 8 vvcurveto
          14 -8 10 -11 9 vhcurveto
          -6 4 0 8 -12 11 -10 8 -10 -2 -7 6 rrcurveto
          10 -14 -16 4 -29 -84 -197 -190 -96 hhcurveto
          -37 -9 6 8 hvcurveto
          8 8 8 8 vvcurveto
          4 -2 4 -7 -8 -86 -34 -80 -67 39 -54 69 90 82 64 45 48 vhcurveto
          -46 -72 -116 -176 -129 -190 rrcurveto
          4 -27 -25 2 -26 hhcurveto
          -41 -57 -62 -45 -43 61 4 25 hvcurveto
          -183 -272 -176 -264 -6 -12 rrcurveto
          -7 -15 -11 -18 -16 vvcurveto
          -19 33 -28 19 vhcurveto
          hintmask 11000111
          21 callgsubr
          hintmask 10010111
          5 7 7 1 8 hhcurveto
          hintmask 10100111
          10 12 -2 13 hhcurveto
          hintmask 10001111
          -18 callsubr
          hintmask 11000111
          -65 callsubr
          -1080 -1575 -67 callsubr
          -71 callsubr
          -97 callgsubr
        </CharString>
        <CharString name="L">
          -26 callgsubr
          -100 callgsubr
          endchar
        </CharString>
        <CharString name="Lacute">
          719 1001 678 76 4 callgsubr
        </CharString>
        <CharString name="Lcaron">
          807 -41 170 57 160 761 357 -168 168 hstemhm
          -150 209 1514 203 116 232 hintmask 11011110
          -100 callgsubr
          1774 1083 rmoveto
          16 21 12 35 35 vvcurveto
          46 -25 52 -77 -74 -56 -70 -52 -16 5 -14 11 -10 vhcurveto
          -8 -21 -62 -86 -8 -6 rrcurveto
          -93 callsubr
          hintmask 11101110
          -16 callgsubr
          endchar
        </CharString>
        <CharString name="Lcommaaccent">
          719 0 callsubr
          101 170 57 160 547 156 247 168 hstemhm
          -150 209 466 -14 callgsubr
          814 203 hintmask 1111111010000000
          -100 callgsubr
          437 -416 -67 callsubr
          hintmask 1111110110000000
          -71 callsubr
          hintmask 1111111010000000
          -97 callgsubr
        </CharString>
        <CharString name="Ldot">
          719 1186 70 76 180 endchar
        </CharString>
        <CharString name="Lslash">
          -26 callgsubr
          969 529 rmoveto
          119 13 283 31 -46 139 -5 18 -19 35 -25 -3 -9 -1 -10 -1 -6 -4 -80 -24 -100 -21 -93 -14 10 15 10 14 10 15 rrcurveto
          467 316 170 88 67 hhcurveto
          8 4 -3 -6 -43 -222 -186 -67 -20 hvcurveto
          7 -1 -4 4 -6 hhcurveto
          -10 -16 -14 -34 -48 36 -60 71 82 340 248 180 61 -35 82 -127 -267 -250 -260 -356 -245 hvcurveto
          -41 -59 -38 -60 -38 -58 -102 -10 -106 -9 -89 -11 -48 -5 -49 -27 39 -121 7 -22 12 -17 19 2 rrcurveto
          1 11 1 3 9 hhcurveto
          48 8 61 10 64 9 -43 -63 -43 -58 -45 -50 rrcurveto
          21 -98 -90 14 -76 hhcurveto
          -303 -64 -115 -79 -80 13 -113 248 192 133 59 107 119 hvcurveto
          -62 229 242 -90 258 hhcurveto
          88 78 13 16 27 hvcurveto
          26 16 66 105 10 18 rrcurveto
          3 5 1 5 3 vvcurveto
          6 -4 4 -5 vhcurveto
          -10 -24 -35 -125 hhcurveto
          -219 -268 74 61 -246 hvcurveto
          55 72 57 85 63 94 39 5 38 4 35 5 rrcurveto
          -647 -353 rmoveto
          -33 -58 -61 -18 -68 hhcurveto
          -42 -34 15 15 15 35 16 96 43 43 -4 -6 46 hvcurveto
          endchar
        </CharString>
        <CharString name="M">
          825 -201 -21 1704 -20 hstem
          2046 1401 rmoveto
          4 5 2 6 5 vvcurveto
          18 -19 15 -20 4 vhcurveto
          -16 3 -55 1 -35 10 rrcurveto
          9 -31 -22 5 -18 hhcurveto
          -11 -9 -2 -5 -7 hvcurveto
          -213 -127 -654 -701 -200 -241 186 360 342 584 20 55 rrcurveto
          1 3 1 2 3 vvcurveto
          27 -63 22 -48 -23 -20 -5 -11 -9 vhcurveto
          -2 -2 -2 -1 -3 -8 -9 13 -22 hhcurveto
          -13 -19 -5 -17 -25 hvcurveto
          -298 -199 -904 -1265 -97 vvcurveto
          -43 36 -27 52 -14 vhcurveto
          -6 23 18 -5 15 hhcurveto
          18 15 7 25 12 hvcurveto
          242 485 470 579 207 228 -168 -287 -336 -655 -6 -56 rrcurveto
          -5 vlineto
          -46 61 -40 50 17 14 4 10 12 vhcurveto
          139 114 641 684 274 283 -194 -270 -406 -580 -26 -139 rrcurveto
          -1 -7 -1 -7 -7 vvcurveto
          -64 51 -69 92 105 249 209 100 76 vhcurveto
          19 25 6 18 14 vvcurveto
          14 -7 11 -1 13 vhcurveto
          32 -4 -6 73 -16 hhcurveto
          -8 -9 -15 -15 -13 hvcurveto
          -121 -133 -116 -102 -76 -16 115 258 577 776 131 174 rrcurveto
          endchar
        </CharString>
        <CharString name="N">
          568 -29 -21 71 -83 callsubr
          endchar
        </CharString>
        <CharString name="Nacute">
          568 716 689 78 4 callgsubr
        </CharString>
        <CharString name="Ncaron">
          568 607 689 78 207 endchar
        </CharString>
        <CharString name="Ncommaaccent">
          568 0 callsubr
          163 -83 callsubr
          -1298 -1710 -67 callsubr
          -71 callsubr
          -97 callgsubr
        </CharString>
        <CharString name="Ntilde">
          568 587 689 78 196 endchar
        </CharString>
        <CharString name="O">
          -18 182 985 330 -168 168 hstemhm
          170 194 625 113 321 207 hintmask 11011100
          1630 1206 rmoveto
          54 -70 79 -98 -20 -25 -2 -6 -25 vhcurveto
          -6 callgsubr
          -305 -21 callsubr
          574 600 886 338 vhcurveto
          -221 -57 rmoveto
          9 5 -7 -14 -66 -106 29 callgsubr
          -297 28 callgsubr
          121 252 187 210 hvcurveto
          hintmask 10111100
          187 211 276 -29 callsubr
          hintmask 11011100
          58 221 201 86 vhcurveto
          endchar
        </CharString>
        <CharString name="OE">
          1449 -18 154 -154 182 -171 -21 1177 307 -264 264 -178 61 -28 145 23 -20 hstemhm
          170 194 595 113 86 181 54 156 522 14 callsubr
          hintmask 1000100111111000
          2414 -41 callgsubr
          -174 -243 -74 -115 -171 hvcurveto
          hintmask 1000010111111000
          38 -28 -52 34 -64 hhcurveto
          -20 -25 -2 -6 -25 hvcurveto
          -6 callgsubr
          -275 -21 callsubr
          383 411 451 377 210 vhcurveto
          35 -23 43 -14 40 -9 rrcurveto
          -160 -91 -260 -199 -221 vvcurveto
          hintmask 0011000111110100
          -199 167 -82 147 405 430 392 180 96 -54 19 -37 -10 -38 -3 -25 vhcurveto
          hintmask 1000010111111000
          -56 callgsubr
          vhcurveto
          15 callgsubr
          rrcurveto
          13 2 20 3 0 vvcurveto
          -1 hlineto
          46 4 96 29 9 8 rrcurveto
          11 12 34 70 31 vvcurveto
          33 -31 20 -59 -52 -86 -10 -24 -50 vhcurveto
          -8 -18 -12 -4 -53 hhcurveto
          -82 -145 9 56 92 276 198 268 10 hvcurveto
          2 callgsubr
          hintmask 1000100111111000
          -64 callgsubr
          hintmask 0101000111111000
          -1035 -186 rmoveto
          9 5 -7 -14 -66 -96 29 callgsubr
          -277 28 callgsubr
          111 252 187 210 hvcurveto
          hintmask 1000001111111000
          187 211 256 -29 callsubr
          hintmask 1001000111111000
          58 221 201 86 vhcurveto
          endchar
        </CharString>
        <CharString name="Oacute">
          765 689 79 4 callgsubr
        </CharString>
        <CharString name="Obreve">
          624 689 79 198 endchar
        </CharString>
        <CharString name="Ocircumflex">
          687 689 79 17 callsubr
        </CharString>
        <CharString name="Odieresis">
          699 689 79 200 endchar
        </CharString>
        <CharString name="Ograve">
          580 689 79 193 endchar
        </CharString>
        <CharString name="Ohungarumlaut">
          759 689 79 205 endchar
        </CharString>
        <CharString name="Omacron">
          693 689 79 197 endchar
        </CharString>
        <CharString name="Oslash">
          -229 -21 232 182 1315 -20 177 -20 hstem
          170 194 1059 207 vstem
          1651 12 callsubr
          -51 -54 -54 -56 -56 -58 rrcurveto
          23 -19 -43 12 -33 hhcurveto
          -266 -305 -179 -237 -228 hvcurveto
          -221 -234 -145 -292 -222 vvcurveto
          -85 23 -67 35 -51 vhcurveto
          -19 -25 -18 -25 -17 -25 1 callgsubr
          39 64 47 68 53 70 rrcurveto
          -13 32 32 -6 26 hhcurveto
          574 600 886 338 40 -39 55 -61 25 hvcurveto
          37 45 32 42 27 39 rrcurveto
          31 45 -6 33 22 vvcurveto
          -1287 -1230 rmoveto
          138 121 252 187 210 vhcurveto
          179 202 261 162 187 22 -311 -321 -352 -364 -270 -333 rrcurveto
          -2 10 0 11 11 vvcurveto
          1059 806 rmoveto
          -66 -106 -206 -148 -188 vhcurveto
          -162 -207 -289 -285 -224 -12 285 347 380 385 258 296 rrcurveto
          4 -19 2 -21 -24 vvcurveto
          endchar
        </CharString>
        <CharString name="Oslashacute">
          662 691 233 4 callgsubr
        </CharString>
        <CharString name="Otilde">
          636 689 79 196 endchar
        </CharString>
        <CharString name="P">
          721 18 -21 23 -21 542 170 172 107 306 144 hstemhm
          370 214 -214 313 944 221 hintmask 01111011
          1848 1157 rmoveto
          135 -194 148 -355 -536 -393 -240 -174 -78 38 -65 91 86 77 61 12 17 vhcurveto
          3 3 1 11 10 vvcurveto
          11 -1 10 -4 vhcurveto
          -1 hlineto
          -7 -19 -16 -4 -14 hhcurveto
          hintmask 01111101
          -27 -17 14 18 15 10 19 23 17 hvcurveto
          86 113 332 137 201 hhcurveto
          188 176 -51 -141 -121 -317 -272 -260 -50 -32 -2 26 -13 hvcurveto
          125 197 121 188 72 101 rrcurveto
          3 5 2 7 8 vvcurveto
          14 -5 15 -8 vhcurveto
          -50 hlineto
          -63 -25 -3 -28 -26 hvcurveto
          -74 -79 -633 -918 -72 -189 rrcurveto
          -2 -6 -1 -6 -5 vvcurveto
          -17 13 -20 46 vhcurveto
          17 hlineto
          hintmask 10111011
          9 callsubr
          4 6 180 293 193 303 rrcurveto
          -51 35 55 -39 72 hhcurveto
          337 459 309 307 hvcurveto
          endchar
        </CharString>
        <CharString name="Q">
          636 -328 140 172 190 1094 162 hstem
          102 195 1188 180 vstem
          1665 1147 rmoveto
          158 -99 125 -223 -248 -260 -142 -246 -268 vhcurveto
          -195 -179 -270 -376 -266 vvcurveto
          -133 107 -104 96 59 62 18 27 57 vhcurveto
          -109 94 226 -248 155 hhcurveto
          60 94 41 58 59 hvcurveto
          12 12 26 43 12 vvcurveto
          10 -5 9 -8 vhcurveto
          -17 8 -45 -87 hhcurveto
          -76 -131 112 94 -117 hvcurveto
          463 183 426 622 324 vvcurveto
          -180 33 rmoveto
          -47 -52 -175 -149 -213 vhcurveto
          -174 -243 -301 -314 -154 -55 rrcurveto
          126 99 13 50 39 vvcurveto
          54 -32 40 -4 9 vhcurveto
          4 -3 -4 2 -3 hhcurveto
          -5 -5 -5 -5 -5 hvcurveto
          -166 -145 -209 -80 -56 hhcurveto
          -17 14 -9 25 34 vvcurveto
          140 142 286 259 255 vhcurveto
          171 174 265 169 252 hhcurveto
          48 48 -15 -73 hvcurveto
          endchar
        </CharString>
        <CharString name="R">
          745 -78 -96 callgsubr
          endchar
        </CharString>
        <CharString name="Racute">
          745 694 652 82 4 callgsubr
        </CharString>
        <CharString name="Rcaron">
          745 585 652 82 207 endchar
        </CharString>
        <CharString name="Rcommaaccent">
          745 0 callsubr
          64 -96 callgsubr
          -880 -1385 -67 callsubr
          -71 callsubr
          -97 callgsubr
        </CharString>
        <CharString name="S">
          612 -29 -4 callsubr
          551 201 hintmask 10111100
          1679 1356 rmoveto
          -48 callgsubr
          hintmask 01111100
          21 callsubr
          547 338 256 197 214 -287 82 -217 56 vhcurveto
          -54 callgsubr
          endchar
        </CharString>
        <CharString name="Sacute">
          612 703 662 83 4 callgsubr
        </CharString>
        <CharString name="Scaron">
          612 594 662 83 207 endchar
        </CharString>
        <CharString name="Scedilla">
          612 -457 135 293 -4 callsubr
          -86 112 56 118 351 201 hintmask 1101101110000000
          669 -264 -77 callgsubr
          18 19 25 17 20 vhcurveto
          431 51 259 217 173 vvcurveto
          214 -287 82 -217 56 vhcurveto
          hintmask 1101110110000000
          -54 callgsubr
          -48 callgsubr
          hintmask 1011101110000000
          21 callsubr
          30 29 1 2 29 vhcurveto
          -25 -32 -16 -39 -27 -12 callgsubr
        </CharString>
        <CharString name="Scircumflex">
          612 625 662 83 17 callsubr
        </CharString>
        <CharString name="T">
          404 -49 330 820 179 201 -20 hstem
          -87 callsubr
          endchar
        </CharString>
        <CharString name="Tbar">
          404 -49 330 376 166 278 179 201 -20 hstem
          1167 657 rmoveto
          81 241 16 -72 callsubr
          -52 -13 -155 -17 -116 -10 84 119 98 156 96 123 rrcurveto
          158 24 198 50 92 vvcurveto
          17 -7 17 -11 17 vhcurveto
          31 -18 -41 16 -51 hhcurveto
          -46 -55 -14 -29 -53 hvcurveto
          -53 -29 -47 -33 -43 -35 rrcurveto
          -38 -187 -166 -23 -208 hhcurveto
          -157 -44 12 20 hvcurveto
          14 33 23 15 vvcurveto
          8 -8 6 -15 -57 -105 -41 -73 -6 vhcurveto
          -1 -12 -1 -11 -10 vvcurveto
          -53 20 -32 78 -22 vhcurveto
          -17 58 66 -6 68 hhcurveto
          169 182 40 28 111 hvcurveto
          -90 -108 -74 -121 -81 -126 rrcurveto
          3 -117 -166 6 -75 -78 callgsubr
          45 3 121 1 127 2 -145 -218 -102 -134 -10 -14 rrcurveto
          -6 -4 -5 -2 -5 hhcurveto
          -9 -9 8 8 hvcurveto
          7 5 8 6 vvcurveto
          8 -4 5 -7 -6 -9 -5 -9 -11 vhcurveto
          -31 -26 -135 -146 -88 vvcurveto
          -82 62 -24 53 174 188 368 337 213 vhcurveto
          1 62 55 0 30 hhcurveto
          endchar
        </CharString>
        <CharString name="Tcaron">
          404 327 590 84 207 endchar
        </CharString>
        <CharString name="Tcommaaccent">
          404 -513 341 123 330 820 179 201 -20 hstemhm
          278 234 -182 182 hintmask 11110100
          -87 callsubr
          -1231 -1704 rmoveto
          46 -25 52 -77 vhcurveto
          hintmask 11111000
          -62 -70 -43 -74 hvcurveto
          -71 callsubr
          -97 callgsubr
        </CharString>
        <CharString name="Thorn">
          792 18 -21 23 -21 290 170 172 108 303 441 hstemhm
          280 215 1042 222 hintmask 01111110
          1759 905 rmoveto
          119 -154 131 -285 27 vhcurveto
          80 121 66 96 24 35 rrcurveto
          4 5 1 7 8 vvcurveto
          14 -5 15 -8 vhcurveto
          -49 hlineto
          -62 -27 -2 -29 -26 hvcurveto
          -20 -22 -76 -103 -100 -141 rrcurveto
          -492 -25 -350 -223 -164 vvcurveto
          -78 39 -65 90 86 78 61 13 16 vhcurveto
          3 3 1 10 11 vvcurveto
          11 -2 10 -3 vhcurveto
          -1 hlineto
          -8 -19 -17 -3 -13 hhcurveto
          -27 -16 13 18 15 10 18 23 18 hvcurveto
          84 66 213 94 184 41 rrcurveto
          -267 -386 -357 -532 -68 vvcurveto
          -17 13 -20 46 vhcurveto
          17 hlineto
          hintmask 10111110
          9 callsubr
          221 350 rlineto
          -51 35 55 -39 72 hhcurveto
          338 459 309 307 hvcurveto
          -893 -422 rmoveto
          67 107 156 239 141 213 rrcurveto
          164 -10 143 -53 -127 vvcurveto
          -121 -317 -272 -260 -49 -33 -2 26 -12 vhcurveto
          endchar
        </CharString>
        <CharString name="U">
          759 -4 194 -183 -21 1038 24 callgsubr
          359 252 hintmask 10111110
          1859 1335 rmoveto
          -89 callgsubr
          hintmask 01111110
          -69 43 -43 52 174 358 241 160 62 vhcurveto
          -28 callgsubr
          18 callgsubr
          endchar
        </CharString>
        <CharString name="Uacute">
          759 821 639 85 4 callgsubr
        </CharString>
        <CharString name="Ubreve">
          759 680 639 85 198 endchar
        </CharString>
        <CharString name="Ucircumflex">
          759 743 639 85 17 callsubr
        </CharString>
        <CharString name="Udieresis">
          759 755 639 85 200 endchar
        </CharString>
        <CharString name="Ugrave">
          759 636 639 85 193 endchar
        </CharString>
        <CharString name="Uhungarumlaut">
          759 815 639 85 205 endchar
        </CharString>
        <CharString name="Umacron">
          759 749 639 85 197 endchar
        </CharString>
        <CharString name="Uogonek">
          759 -367 155 208 194 834 24 callgsubr
          329 123 -93 252 hintmask 11111110
          876 -224 rmoveto
          -87 callgsubr
          -29 callgsubr
          51 87 99 55 40 vhcurveto
          157 115 247 141 50 128 rrcurveto
          -28 callgsubr
          hintmask 11111101
          18 callgsubr
          -89 callgsubr
          -62 34 -40 44 -8 vhcurveto
          hintmask 11111110
          -56 -69 -52 -98 -45 vvcurveto
          endchar
        </CharString>
        <CharString name="Uring">
          759 802 639 85 202 endchar
        </CharString>
        <CharString name="Utilde">
          759 692 639 85 196 endchar
        </CharString>
        <CharString name="V">
          611 -14 188 795 185 254 87 hstemhm
          211 209 -25 93 1108 272 -215 215 hintmask 11110100
          1868 1389 rmoveto
          59 -25 47 -55 -94 -76 -47 -8 -14 vhcurveto
          -6 -3 -2 -6 -6 vvcurveto
          -8 5 -9 6 vhcurveto
          6 15 7 12 hhcurveto
          hintmask 11110010
          7 6 -3 -9 -191 -527 -550 -192 -173 hvcurveto
          -200 -221 -201 -115 -57 hhcurveto
          -25 -10 21 24 160 595 778 105 166 hvcurveto
          10 16 -4 13 7 18 rrcurveto
          1 2 0 3 2 vvcurveto
          31 -77 37 -66 -27 -25 -7 -15 -17 vhcurveto
          -93 -86 -235 -151 -47 -21 rrcurveto
          -8 -18 -14 -3 -9 hhcurveto
          hintmask 11101100
          -12 -6 4 7 hvcurveto
          9 15 10 14 vvcurveto
          4 -3 4 -8 -39 -58 -69 -52 -49 23 -67 74 100 127 108 72 86 vhcurveto
          hintmask 11110100
          -160 -186 -434 -543 -254 vvcurveto
          -78 43 -102 119 180 195 118 158 202 vhcurveto
          539 422 379 571 134 vvcurveto
          endchar
        </CharString>
        <CharString name="W">
          1078 -25 240 -212 -21 1065 176 -176 214 133 91 hstemhm
          145 213 108 92 301 230 873 323 -221 221 hintmask 1010111110000000
          2285 1391 rmoveto
          61 -72 33 -49 -72 -51 -31 -35 -70 vhcurveto
          -6 -3 -3 -7 -6 vvcurveto
          -10 6 -9 5 vhcurveto
          9 22 10 20 hhcurveto
          hintmask 1010111101000000
          21 19 -10 -36 -74 -201 -310 -254 -284 hvcurveto
          -274 -245 -233 -191 -28 hhcurveto
          -10 -4 8 14 109 268 500 164 209 hvcurveto
          71 91 70 66 31 vvcurveto
          27 -29 24 -105 -68 -24 -18 -31 -24 vhcurveto
          -33 -25 -930 -997 -93 hhcurveto
          -4 -2 3 7 35 54 124 124 181 hvcurveto
          209 305 301 359 69 114 rrcurveto
          6 9 3 9 8 vvcurveto
          33 -76 50 -72 vhcurveto
          -35 -342 -229 -35 hhcurveto
          -4 -2 2 2 hvcurveto
          8 14 10 2 vvcurveto
          hintmask 0101111110000000
          5 -10 9 -6 -8 -82 -60 -34 -18 6 -31 15 -24 vhcurveto
          -33 16 20 -14 35 hhcurveto
          62 108 69 80 92 hvcurveto
          -149 -158 -526 -571 -350 vvcurveto
          -64 103 -71 36 106 277 174 471 397 vhcurveto
          -106 -176 -99 -213 -134 vvcurveto
          hintmask 1010111110000000
          -127 103 -2 39 278 1006 1053 363 vhcurveto
          endchar
        </CharString>
        <CharString name="Wacute">
          1078 949 579 87 4 callgsubr
        </CharString>
        <CharString name="Wcircumflex">
          1078 871 579 87 17 callsubr
        </CharString>
        <CharString name="Wdieresis">
          1078 883 579 87 200 endchar
        </CharString>
        <CharString name="Wgrave">
          1078 764 579 87 193 endchar
        </CharString>
        <CharString name="X">
          449 -14 -21 1264 229 hstem
          1774 1333 rmoveto
          3 5 2 5 5 vvcurveto
          11 -9 11 -10 4 vhcurveto
          10 -26 -59 14 -53 hhcurveto
          -27 -24 -4 -10 -18 hvcurveto
          -15 -9 -266 -201 -315 -242 rrcurveto
          47 174 39 156 71 vvcurveto
          70 -45 55 -68 -110 -367 -258 -108 -35 5 -6 5 -35 vhcurveto
          -40 5 40 -34 12 hhcurveto
          9 8 6 17 48 245 216 49 6 3 -2 -6 -35 -59 -209 -60 -229 hvcurveto
          -385 -299 -370 -289 -15 -51 rrcurveto
          -5 -16 -2 -11 -9 vvcurveto
          -1 -20 13 -7 26 -21 rrcurveto
          -22 26 22 -23 9 2 2 1 2 6 4 -4 5 hhcurveto
          3 3 0 3 4 hvcurveto
          12 4 328 276 242 203 rrcurveto
          -31 -133 -21 -117 -70 vvcurveto
          -135 84 -43 62 217 230 273 38 24 vhcurveto
          13 20 5 28 27 44 -19 28 10 4 1 5 8 vvcurveto
          22 -4 14 -11 vhcurveto
          -8 1 -11 -10 -17 -20 -30 -37 -239 -215 -86 -51 rrcurveto
          -5 -7 -5 -3 -3 hhcurveto
          -7 -2 8 20 96 45 185 51 196 hvcurveto
          778 609 76 24 37 49 rrcurveto
          endchar
        </CharString>
        <CharString name="Y">
          605 -593 -21 604 219 829 183 238 -20 hstem
          171 210 23 92 vstem
          1781 1350 rmoveto
          15 -37 26 -23 vhcurveto
          -11 -13 -2 -14 -19 -20 1 -17 hhcurveto
          -53 -17 -11 -33 -24 hvcurveto
          -21 -29 -353 -413 -390 -374 rrcurveto
          -188 -196 -172 -133 -9 hhcurveto
          -8 -3 5 10 125 609 880 58 78 hvcurveto
          19 26 7 21 17 vvcurveto
          37 -34 19 -23 13 vhcurveto
          -10 6 -9 -4 -28 14 rrcurveto
          2 -6 -5 1 -7 hhcurveto
          -16 -1 -20 -5 -22 -13 -29 -17 -62 -50 -30 -17 rrcurveto
          -79 -140 -84 -56 -44 hhcurveto
          -7 -2 2 2 hvcurveto
          11 21 10 5 vvcurveto
          4 -8 3 -8 -7 -7 -1 -4 -5 vhcurveto
          -20 -18 -58 -37 -45 vvcurveto
          -30 10 -24 21 -24 vhcurveto
          -21 18 12 -16 46 hhcurveto
          74 82 64 57 63 hvcurveto
          -145 -196 -414 -584 -221 vvcurveto
          -40 2 -36 14 -27 vhcurveto
          -35 17 49 -30 45 hhcurveto
          238 548 614 268 226 hvcurveto
          -246 -350 -576 -891 -104 vvcurveto
          -35 52 -106 92 47 10 55 61 53 vhcurveto
          62 72 59 84 35 39 rrcurveto
          2 2 0 3 2 vvcurveto
          10 -9 11 -11 -3 -3 -2 -2 -3 vhcurveto
          -14 -12 -65 -55 -41 -43 120 250 897 1435 13 54 rrcurveto
          endchar
        </CharString>
        <CharString name="Yacute">
          605 772 643 89 4 callgsubr
        </CharString>
        <CharString name="Ycircumflex">
          605 694 643 89 17 callsubr
        </CharString>
        <CharString name="Ydieresis">
          605 706 643 89 200 endchar
        </CharString>
        <CharString name="Ygrave">
          605 587 643 89 193 endchar
        </CharString>
        <CharString name="Z">
          502 -34 275 -212 212 922 199 139 -20 hstemhm
          450 172 -172 205 hintmask 10111000
          1699 1425 rmoveto
          56 -84 20 -41 -99 12 -64 -38 -105 vhcurveto
          -20 -56 -312 -17 -142 hhcurveto
          -188 -62 22 21 hvcurveto
          hintmask 10110100
          13 33 12 12 vvcurveto
          7 -10 6 -17 -27 -151 -45 -120 -96 133 -31 159 168 196 34 30 104 vhcurveto
          -236 -185 -886 -819 -104 -4 -8 -12 -16 vvcurveto
          -34 48 -87 95 18 22 2 3 27 vhcurveto
          hintmask 01111000
          6 54 554 52 175 hhcurveto
          89 56 -9 -22 33 hvcurveto
          -6 8 0 -22 8 hhcurveto
          14 33 66 56 116 -131 33 -198 -232 -292 -50 -25 -109 hvcurveto
          133 133 459 434 147 137 244 228 151 125 11 8 rrcurveto
          26 20 176 86 88 vvcurveto
          endchar
        </CharString>
        <CharString name="Zacute">
          502 463 643 90 4 callgsubr
        </CharString>
        <CharString name="Zcaron">
          502 354 643 90 207 endchar
        </CharString>
        <CharString name="Zdotaccent">
          502 372 643 90 199 endchar
        </CharString>
        <CharString name="a">
          -72 callgsubr
          -53 callsubr
          hintmask 01011100
          981 -88 callgsubr
          -8 16 callsubr
          hintmask 10011100
          -56 callsubr
          -106 callsubr
          hintmask 00111010
          -84 45 -83 104 134 153 164 53 27 vhcurveto
          -95 callsubr
          -289 354 rmoveto
          -53 -71 -68 -97 -45 -57 rrcurveto
          -94 -76 -228 -199 -38 hhcurveto
          -14 -6 9 16 60 86 152 88 91 hvcurveto
          162 155 131 28 68 hhcurveto
          endchar
        </CharString>
        <CharString name="aacute">
          -72 callgsubr
          526 -20 -8 callsubr
          hintmask 01011110
          981 -88 callgsubr
          -8 16 callsubr
          hintmask 10011110
          -56 callsubr
          -106 callsubr
          hintmask 00111110
          -84 45 -83 104 134 153 164 53 27 vhcurveto
          -95 callsubr
          -289 354 rmoveto
          -53 -71 -68 -97 -45 -57 rrcurveto
          -94 -76 -228 -199 -38 hhcurveto
          -14 -6 9 16 60 86 152 88 91 hvcurveto
          162 155 131 28 68 hhcurveto
          131 502 -106 callgsubr
        </CharString>
        <CharString name="abreve">
          -72 callgsubr
          145 162 -162 350 -53 callsubr
          hintmask 0101101100000000
          981 -88 callgsubr
          -8 16 callsubr
          hintmask 1001101100000000
          -56 callsubr
          -106 callsubr
          hintmask 0011011010000000
          -84 45 -83 104 134 153 164 53 27 vhcurveto
          -95 callsubr
          -289 354 rmoveto
          -53 -71 -68 -97 -45 -57 rrcurveto
          -94 -76 -228 -199 -38 hhcurveto
          -14 -6 9 16 60 86 152 88 91 hvcurveto
          162 155 131 28 68 hhcurveto
          -242 608 -80 callsubr
          hintmask 1001101100000000
          -75 callgsubr
        </CharString>
        <CharString name="acircumflex">
          -72 callgsubr
          125 406 -53 callsubr
          hintmask 01011110
          981 -88 callgsubr
          -8 16 callsubr
          hintmask 10011110
          -56 callsubr
          -106 callsubr
          hintmask 00111101
          -84 45 -83 104 134 153 164 53 27 vhcurveto
          -95 callsubr
          -289 354 rmoveto
          -53 -71 -68 -97 -45 -57 rrcurveto
          -94 -76 -228 -199 -38 hhcurveto
          -14 -6 9 16 60 86 152 88 91 hvcurveto
          162 155 131 28 68 hhcurveto
          269 244 -105 callsubr
        </CharString>
        <CharString name="acute">
          62 910 -21 401 -20 hstem
          765 1147 -106 callgsubr
        </CharString>
        <CharString name="adieresis">
          -72 callgsubr
          155 246 6 -20 -35 callsubr
          193 -193 469 -192 246 hintmask 0101101100100000
          981 -88 callgsubr
          -8 16 callsubr
          hintmask 1001101100100000
          -56 callsubr
          -106 callsubr
          hintmask 0011101001000000
          -84 45 -83 104 134 153 164 53 27 vhcurveto
          -95 callsubr
          -289 354 rmoveto
          -53 -71 -68 -97 -45 -57 rrcurveto
          -94 -76 -228 -199 -38 hhcurveto
          -14 -6 9 16 60 86 152 88 91 hvcurveto
          162 155 131 28 68 hhcurveto
          hintmask 1001101010100000
          349 442 -79 callgsubr
          hintmask 1001011100100000
          -58 callsubr
          hintmask 1001101010100000
          -52 callsubr
        </CharString>
        <CharString name="ae">
          -18 callgsubr
          23 callsubr
          hintmask 1000101110000000
          -27 callgsubr
          hintmask 1000011110000000
          -32 callsubr
          hintmask 0011101110000000
          -47 callgsubr
          hintmask 1000101110000000
          -43 callgsubr
          hintmask 0100101110000000
          -39 callsubr
          hintmask 1000011110000000
          -39 callgsubr
          endchar
        </CharString>
        <CharString name="aeacute">
          -18 callgsubr
          512 -20 23 callsubr
          hintmask 1000101111000000
          -27 callgsubr
          hintmask 1000011111000000
          -32 callsubr
          hintmask 0011101111000000
          -47 callgsubr
          hintmask 1000101111000000
          -43 callgsubr
          hintmask 0100101111000000
          -39 callsubr
          hintmask 1000011111000000
          -39 callgsubr
          270 488 -106 callgsubr
        </CharString>
        <CharString name="agrave">
          -72 callgsubr
          125 405 -53 callsubr
          hintmask 01011101
          981 -88 callgsubr
          -8 16 callsubr
          hintmask 10011110
          -56 callsubr
          -106 callsubr
          hintmask 00111101
          -84 45 -83 104 134 153 164 53 27 vhcurveto
          -95 callsubr
          -289 354 rmoveto
          -53 -71 -68 -97 -45 -57 rrcurveto
          -94 -76 -228 -199 -38 hhcurveto
          -14 -6 9 16 60 86 152 88 91 hvcurveto
          162 155 131 28 68 hhcurveto
          -156 363 -92 callsubr
        </CharString>
        <CharString name="amacron">
          -72 callgsubr
          209 156 28 -20 -53 callsubr
          -469 507 hintmask 0101111100000000
          981 -88 callgsubr
          -8 16 callsubr
          hintmask 1001111100000000
          -56 callsubr
          -106 callsubr
          hintmask 0011111010000000
          -84 45 -83 104 134 153 164 53 27 vhcurveto
          -95 callsubr
          -289 354 rmoveto
          -53 -71 -68 -97 -45 -57 rrcurveto
          -94 -76 -228 -199 -38 hhcurveto
          -14 -6 9 16 60 86 152 88 91 hvcurveto
          162 155 131 28 68 hhcurveto
          106 328 rmoveto
          hintmask 1001111001000000
          81 146 -4 -72 callsubr
          -18 -75 -46 -8 -75 hhcurveto
          hintmask 1001111100000000
          -99 -16 10 -98 -78 callgsubr
          -33 callgsubr
        </CharString>
        <CharString name="ampersand">
          167 -1 -21 1515 -20 hstem
          219 194 vstem
          1140 1454 rmoveto
          2 4 1 4 4 vvcurveto
          16 -15 11 -11 -16 -107 -20 -48 -26 vhcurveto
          -5 -8 -49 -96 -71 -139 rrcurveto
          -234 -38 -257 -139 -164 vvcurveto
          -52 23 -49 58 -33 vhcurveto
          -68 -34 -146 -89 -161 vvcurveto
          -89 62 -67 99 -21 vhcurveto
          -39 -80 -31 -70 -20 -51 rrcurveto
          -2 -5 -1 -4 -4 vvcurveto
          -11 7 -9 2 -10 vhcurveto
          -12 2 25 -12 25 hhcurveto
          5 5 1 1 5 hvcurveto
          11 1 33 -1 18 28 11 18 52 119 43 97 rrcurveto
          257 27 259 180 130 vvcurveto
          58 -46 27 -10 -16 -10 -20 -13 -8 vhcurveto
          -22 -37 -168 -105 -148 -53 43 86 39 80 37 72 19 6 rcurveline
          22 4 59 6 33 29 rrcurveto
          13 12 30 14 21 vvcurveto
          16 -22 58 -21 8 vhcurveto
          4 -11 -10 3 -11 -4 -3 -1 -4 hhcurveto
          39 78 rlineto
          10 hlineto
          80 160 49 127 43 -50 32 -47 4 hvcurveto
          -20 1 94 182 41 72 5 12 rlinecurve
          -392 -461 rmoveto
          -26 -51 -27 -55 -29 -56 rrcurveto
          -6 -67 -38 -5 -7 hhcurveto
          -23 -14 5 11 26 115 82 116 49 hvcurveto
          -194 -387 rmoveto
          -35 -69 -33 -70 -33 -64 rrcurveto
          -22 3 -18 12 35 vvcurveto
          39 30 59 111 55 vhcurveto
          endchar
        </CharString>
        <CharString name="aogonek">
          77 -397 155 211 145 535 119 26 callsubr
          310 -1 callsubr
          -349 151 -151 469 hintmask 11110100
          474 -31 callgsubr
          hintmask 11111000
          -29 callgsubr
          47 86 102 60 38 vhcurveto
          104 66 110 99 24 47 rrcurveto
          hintmask 11110001
          -95 callsubr
          11 -1 -9 8 -11 hhcurveto
          -7 -8 16 callsubr
          -56 callsubr
          hintmask 11110010
          -106 callsubr
          -63 23 -72 82 -26 vhcurveto
          hintmask 11110100
          -114 -85 -35 -91 -49 vvcurveto
          218 903 rmoveto
          -53 -71 -68 -97 -45 -57 rrcurveto
          -94 -76 -228 -199 -38 hhcurveto
          -14 -6 9 16 60 86 152 88 91 hvcurveto
          162 155 131 28 68 hhcurveto
          endchar
        </CharString>
        <CharString name="approxequal">
          193 353 184 -165 -21 139 47 121 12 125 47 -47 180 hstemhm
          hintmask 10011000
          806 842 rmoveto
          hintmask 10010100
          -48 callsubr
          -10 callgsubr
          66 102 49 hvcurveto
          5 10 3 15 16 vvcurveto
          40 -17 48 -36 vhcurveto
          hintmask 01111000
          26 callgsubr
          -82 -305 rmoveto
          -48 callsubr
          hhcurveto
          -10 callgsubr
          65 103 49 hvcurveto
          5 10 3 16 16 vvcurveto
          40 -16 47 -37 vhcurveto
          26 callgsubr
          endchar
        </CharString>
        <CharString name="aring">
          -72 callgsubr
          125 124 293 -20 26 callsubr
          357 113 -113 148 176 123 hintmask 0101111101000000
          981 -88 callgsubr
          -8 16 callsubr
          hintmask 1001111011000000
          -56 callsubr
          -106 callsubr
          hintmask 0011111101000000
          -84 45 -83 104 134 153 164 53 27 vhcurveto
          -95 callsubr
          -289 354 rmoveto
          -53 -71 -68 -97 -45 -57 rrcurveto
          -94 -76 -228 -199 -38 hhcurveto
          -14 -6 9 16 60 86 152 88 91 hvcurveto
          162 155 131 28 68 hhcurveto
          159 661 -81 callsubr
        </CharString>
        <CharString name="asciicircum">
          267 826 -21 22 -21 644 -20 hstemhm
          932 193 hintmask 10110000
          933 844 rmoveto
          -1 -3 0 -3 -2 vvcurveto
          -22 25 -9 32 59 82 29 39 vhcurveto
          23 -5 29 31 vvcurveto
          132 30 181 10 79 vhcurveto
          5 vlineto
          12 -5 13 -10 11 vhcurveto
          12 -12 -51 49 -14 hhcurveto
          -13 -10 -4 -10 -8 hvcurveto
          -61 -56 -97 -73 -65 -54 rrcurveto
          -164 -135 -207 -137 -74 vvcurveto
          hintmask 01110000
          -46 79 -55 31 4 3 1 2 2 vhcurveto
          102 137 217 154 111 129 -12 -115 -43 -240 -9 -30 rrcurveto
          endchar
        </CharString>
        <CharString name="asciitilde">
          36 489 -21 139 47 -47 180 hstemhm
          hintmask 11000000
          674 654 rmoveto
          hintmask 10100000
          -48 callsubr
          hhcurveto
          hintmask 11000000
          -10 callgsubr
          65 103 49 hvcurveto
          5 10 3 15 17 vvcurveto
          39 -16 48 -37 vhcurveto
          26 callgsubr
          endchar
        </CharString>
        <CharString name="asterisk">
          -7 857 -21 157 373 41 -20 hstemhm
          437 491 -376 376 hintmask 11101000
          560 881 rmoveto
          -25 4 39 -20 12 hhcurveto
          12 54 75 95 57 hvcurveto
          20 -33 25 -41 39 -60 rrcurveto
          -26 12 11 -10 18 hhcurveto
          43 22 51 55 47 -18 31 -45 55 hvcurveto
          86 25 119 49 90 vvcurveto
          12 -10 39 -17 -8 -6 -6 -10 -6 vhcurveto
          -25 -23 -61 -8 -72 -18 rrcurveto
          41 75 31 62 16 vvcurveto
          13 -15 16 -37 -16 -47 -6 -45 -20 vhcurveto
          -13 -35 -20 -47 -27 -49 -59 82 rcurveline
          41 -35 -29 18 -20 hhcurveto
          -29 -18 -33 -30 -29 26 -55 33 -19 hvcurveto
          33 -43 rlineto
          hintmask 11110000
          -101 -33 -106 -49 -65 vvcurveto
          -13 8 -4 25 35 59 11 12 61 vhcurveto
          -36 -68 -29 -53 -14 vvcurveto
          endchar
        </CharString>
        <CharString name="at">
          714 -44 161 -161 323 69 154 442 104 239 175 hstemhm
          200 194 193 158 299 142 374 181 hintmask 0111111110000000
          1560 1118 rmoveto
          -198 -266 -412 -81 -22 -5 26 21 147 174 251 5 6 vhcurveto
          8 8 4 16 12 vvcurveto
          32 -28 14 -38 -35 -35 -4 -44 -28 vhcurveto
          30 -11 -17 25 -66 hhcurveto
          -193 -339 -274 -261 -78 57 -84 93 87 142 100 126 95 hvcurveto
          -11 -27 -6 -28 -29 vvcurveto
          -73 39 -72 91 296 271 539 262 116 -125 197 -178 -557 -681 -549 -544 -199 139 -214 303 298 191 123 83 16 vhcurveto
          11 60 -2 -22 37 vvcurveto
          26 -12 16 -15 -5 1 -5 -3 -5 vhcurveto
          hintmask 1011111110000000
          -49 -74 -168 -105 -201 hhcurveto
          -181 -102 146 109 230 154 217 225 206 hvcurveto
          191 209 255 71 165 hhcurveto
          26 132 -35 -134 hvcurveto
          -384 -174 rmoveto
          -103 -88 -197 -339 -128 hhcurveto
          -14 -4 9 12 131 276 296 155 -6 hvcurveto
          endchar
        </CharString>
        <CharString name="atilde">
          -72 callgsubr
          146 161 -41 158 -53 callsubr
          hintmask 0101101100000000
          981 -88 callgsubr
          -8 16 callsubr
          hintmask 1001101100000000
          -56 callsubr
          -106 callsubr
          hintmask 0011101010000000
          -84 45 -83 104 134 153 164 53 27 vhcurveto
          -95 callsubr
          -289 354 rmoveto
          -53 -71 -68 -97 -45 -57 rrcurveto
          -94 -76 -228 -199 -38 hhcurveto
          -14 -6 9 16 60 86 152 88 91 hvcurveto
          162 155 131 28 68 hhcurveto
          148 426 rmoveto
          hintmask 1001011100000000
          -76 callsubr
          hintmask 1001101100000000
          -83 callgsubr
        </CharString>
        <CharString name="b">
          6 -33 150 1384 -20 hstem
          40 151 465 178 vstem
          885 1427 rmoveto
          13 20 5 15 11 vvcurveto
          20 -17 8 -19 vhcurveto
          -27 1 -74 -12 -30 -30 rrcurveto
          -31 -30 -665 -969 -328 vvcurveto
          -100 96 -66 41 284 373 457 219 159 -125 7 -46 -20 -97 -8 -37 -72 vhcurveto
          176 305 201 307 34 51 rrcurveto
          -266 -770 rmoveto
          24 13 -23 -34 -36 -13 -48 -28 -49 hvcurveto
          -158 -88 -215 -192 -92 hhcurveto
          -27 -2 30 15 69 84 179 111 200 hvcurveto
          -10 10 10 -8 8 33 105 65 67 hhcurveto
          endchar
        </CharString>
        <CharString name="backslash">
          18 -229 -21 1868 -20 hstem
          580 179 vstem
          442 1618 rmoveto
          -22 -9 -6 -13 -30 41 -64 20 -100 hvcurveto
          55 -297 53 -408 -434 -160 -20 -280 -39 vvcurveto
          -25 8 -12 20 19 45 37 45 39 vhcurveto
          43 49 25 60 110 vvcurveto
          465 -9 475 -133 482 vhcurveto
          67 -19 -128 78 -28 hhcurveto
          endchar
        </CharString>
        <CharString name="bar">
          11 30 callsubr
          1937 -20 hstemhm
          hintmask 01100000
          1187 1661 rmoveto
          0 callgsubr
          9 -8 7 -13 vhcurveto
          -9 -10 -1 -24 -13 -24 3 -18 hhcurveto
          -10 -9 -3 -7 -6 hvcurveto
          -68 -59 -907 -1684 -27 -120 -51 callsubr
          hintmask 10100000
          -59 callsubr
          226 451 611 1137 150 266 rrcurveto
          endchar
        </CharString>
        <CharString name="braceleft">
          143 -296 -21 2025 -20 hstem
          210 206 vstem
          1109 1411 rmoveto
          -4 166 201 -3 72 -74 rrcurveto
          67 -69 70 123 50 vvcurveto
          102 -205 2 -87 -79 -95 -33 -60 -60 vhcurveto
          -154 -154 169 -202 -218 -218 rrcurveto
          -88 -88 -109 -41 -80 -33 -31 20 -16 hhcurveto
          -16 -37 -27 -49 -3 hvcurveto
          -11 -158 237 86 -125 -171 -389 -381 -250 -20 callsubr
          -72 -213 -119 150 224 602 522 -311 156 vhcurveto
          319 107 89 246 -6 232 rrcurveto
          endchar
        </CharString>
        <CharString name="braceright">
          143 -288 160 -160 228 1645 152 hstemhm
          609 196 -196 433 -96 178 hintmask 10110100
          225 9 rmoveto
          -98 -19 -66 -39 -66 hhcurveto
          -45 -44 18 30 -29 hvcurveto
          hintmask 01101000
          14 -14 -14 6 -14 hhcurveto
          -51 -44 -85 -39 -102 205 -2 87 79 95 33 60 60 hvcurveto
          154 154 -99 352 218 218 rrcurveto
          88 88 109 41 80 33 43 -5 16 hhcurveto
          16 39 50 49 hvcurveto
          hintmask 10110100
          104 -240 -34 3 125 vhcurveto
          4 193 315 173 250 vvcurveto
          63 -39 111 -85 -102 -163 -34 -4 -29 vhcurveto
          -80 -10 -19 -56 -86 vvcurveto
          -16 11 -4 15 vhcurveto
          44 144 58 69 hhcurveto
          21 35 -23 -58 hvcurveto
          -173 -337 -218 -194 vvcurveto
          -54 40 -38 58 -43 vhcurveto
          -319 -107 -114 -409 -49 -259 rrcurveto
          endchar
        </CharString>
        <CharString name="bracketleft">
          -7 -296 -21 1823 186 16 -20 hstemhm
          hintmask 11000000
          978 1511 rmoveto
          28 51 -5 65 hhcurveto
          44 50 3 7 55 hvcurveto
          51 6 4 58 50 vvcurveto
          23 -4 43 -31 vhcurveto
          -15 -18 -4 -17 hhcurveto
          hintmask 10100000
          -111 -57 16 -122 hhcurveto
          -30 -4 -55 -21 -11 -26 -75 -174 -21 -60 -121 -233 -148 -285 -309 -643 -145 -287 rrcurveto
          -19 -37 -17 -41 -40 -20 callsubr
          -22 -30 -9 -3 -26 vhcurveto
          -6 -49 -41 -1 -34 hhcurveto
          -34 -28 2 1 -21 hvcurveto
          -2 -5 -1 -4 hhcurveto
          -5 -4 1 4 -1 hvcurveto
          8 17 29 4 6 vhcurveto
          235 438 307 637 230 512 rrcurveto
          endchar
        </CharString>
        <CharString name="bracketright">
          -7 -317 174 -174 200 1669 183 hstemhm
          hintmask 10100000
          972 1538 rmoveto
          1 -1 0 -2 -2 vvcurveto
          -11 -12 -26 -2 -5 vhcurveto
          -202 -479 -252 -537 -293 -618 rrcurveto
          hintmask 01100000
          -137 -52 26 -98 hhcurveto
          -32 -2 -60 -94 -52 vvcurveto
          -38 74 -1 20 -1 vhcurveto
          -7 78 80 -5 69 hhcurveto
          89 72 10 33 18 hvcurveto
          83 156 69 161 79 158 139 288 286 654 136 291 rrcurveto
          12 26 5 27 28 vvcurveto
          23 -4 23 -3 22 vhcurveto
          68 -11 -16 73 -79 -168 -2 11 -166 hhcurveto
          -58 3 -90 -21 -36 3 -52 40 8 8 2 2 8 hvcurveto
          15 77 14 -3 90 hhcurveto
          32 39 -1 -13 15 hvcurveto
          endchar
        </CharString>
        <CharString name="breve">
          62 909 25 callgsubr
          hintmask 01000000
          533 1253 -80 callsubr
          hintmask 10000000
          -75 callgsubr
        </CharString>
        <CharString name="brokenbar">
          11 30 callsubr
          1933 -20 21 -20 hstemhm
          hintmask 01100000
          605 580 rmoveto
          0 callgsubr
          9 -9 7 -13 vhcurveto
          -9 -10 -1 -23 -13 -21 2 -19 hhcurveto
          -11 -9 -2 -7 -7 hvcurveto
          -68 -59 -287 -580 -55 -143 -51 callsubr
          hintmask 10100000
          -59 callsubr
          226 451 20 55 149 267 rrcurveto
          588 1079 rmoveto
          0 callgsubr
          9 -9 7 -13 vhcurveto
          -9 -11 -1 -23 hhcurveto
          hintmask 01010000
          -13 -20 2 -20 hhcurveto
          -10 -10 -2 -7 -7 hvcurveto
          -67 -59 -316 -580 -55 -143 rrcurveto
          -1 -2 0 -5 -6 vvcurveto
          -13 1 -19 2 -4 vhcurveto
          -4 29 -11 6 vhcurveto
          -1 1 1 0 2 hhcurveto
          6 9 3 5 4 hvcurveto
          2 2 8 -2 4 2 rrcurveto
          8 35 18 10 2 hhcurveto
          8 4 8 4 13 25 224 450 50 56 150 266 rrcurveto
          endchar
        </CharString>
        <CharString name="bullet">
          -143 477 353 39 -20 hstem
          320 367 vstem
          590 869 rmoveto
          -22 -74 -4 -35 -6 hvcurveto
          -88 -6 -80 -105 -119 vvcurveto
          -55 39 -68 74 41 32 7 28 37 vhcurveto
          115 86 29 109 47 vvcurveto
          68 -39 47 -58 vhcurveto
          endchar
        </CharString>
        <CharString name="c">
          -40 callsubr
          -16 callsubr
          hintmask 10110100
          -96 callsubr
          hintmask 11011000
          -7 callsubr
          -90 callgsubr
          endchar
        </CharString>
        <CharString name="cacute">
          -40 callsubr
          520 -20 -16 callsubr
          hintmask 10111010
          -96 callsubr
          hintmask 11011100
          -7 callsubr
          -90 callgsubr
          -32 895 -106 callgsubr
        </CharString>
        <CharString name="caron">
          62 889 2 callsubr
          hintmask 01000000
          600 1294 -77 callsubr
          hintmask 10000000
          -84 callsubr
          hintmask 01000000
          -38 callgsubr
        </CharString>
        <CharString name="ccaron">
          -40 callsubr
          119 391 14 -20 -16 callsubr
          hintmask 10110101
          -96 callsubr
          hintmask 11001110
          -7 callsubr
          -90 callgsubr
          -306 1042 -77 callsubr
          hintmask 11010110
          -84 callsubr
          hintmask 11001110
          -38 callgsubr
        </CharString>
        <CharString name="ccedilla">
          -10 -447 135 275 69 -13 -21 494 321 -133 133 hstemhm
          45 157 -157 263 -171 112 56 118 160 226 -166 166 hintmask 1100110010100000
          -96 callsubr
          hintmask 1101001001000000
          -7 callsubr
          -90 callgsubr
          hintmask 1011000111000000
          -561 -549 -77 callgsubr
          19 23 29 19 20 vhcurveto
          hintmask 1101001001000000
          6 11 12 4 10 -25 8 -25 hvcurveto
          hintmask 1101000111000000
          -64 -57 -96 -50 hvcurveto
          -12 callgsubr
        </CharString>
        <CharString name="ccircumflex">
          -40 callsubr
          119 406 -16 callsubr
          hintmask 10111010
          -96 callsubr
          hintmask 11011100
          -7 callsubr
          -90 callgsubr
          106 637 -105 callsubr
        </CharString>
        <CharString name="cdotaccent">
          -40 callsubr
          139 278 -8 callgsubr
          -182 182 -182 266 hintmask 10111100
          -96 callsubr
          -7 callsubr
          hintmask 11011100
          -90 callgsubr
          -57 935 rmoveto
          hintmask 11011001
          -123 -59 -110 -74 -51 35 -43 53 117 61 100 84 hvcurveto
          hintmask 11011010
          57 -41 37 -43 vhcurveto
          endchar
        </CharString>
        <CharString name="cedilla">
          -102 -457 135 -135 479 -13 -21 hstemhm
          340 118 hintmask 10110000
          340 -264 -77 callgsubr
          19 23 29 19 20 vhcurveto
          6 11 12 4 hvcurveto
          hintmask 01010000
          10 -25 8 -25 -64 -57 -96 -50 vhcurveto
          -12 callgsubr
        </CharString>
        <CharString name="cent">
          211 696 317 359 -20 hstemhm
          190 170 452 223 -164 164 hintmask 11101000
          951 501 rmoveto
          11 -3 -9 8 -10 hhcurveto
          -6 -7 16 callsubr
          -17 -15 -136 -137 -194 -28 98 202 97 198 73 149 rrcurveto
          1 10 10 1 10 hhcurveto
          7 4 -2 -8 hvcurveto
          hintmask 11110000
          -37 -59 -46 -33 vvcurveto
          -40 22 -20 41 77 83 137 68 71 -73 41 -65 vhcurveto
          -2 hlineto
          6 13 7 13 6 12 65 131 56 106 28 45 rrcurveto
          3 5 2 5 4 vvcurveto
          15 -17 10 -12 -17 -111 -20 -47 -25 vhcurveto
          -10 -19 -24 -47 -122 -247 rrcurveto
          -291 -73 -249 -250 -251 vvcurveto
          -115 50 -83 95 -32 vhcurveto
          -41 -83 -41 -83 -47 -96 -4 callgsubr
          4 3 0 1 4 hvcurveto
          9 2 44 -5 15 31 44 91 47 98 49 100 rrcurveto
          182 23 282 132 154 vvcurveto
          5 0 5 -1 6 vhcurveto
          -540 -157 rmoveto
          -39 21 -12 38 37 vvcurveto
          157 134 150 154 78 vhcurveto
          -61 -124 -78 -158 -98 -199 rrcurveto
          endchar
        </CharString>
        <CharString name="circumflex">
          62 889 406 hstem
          981 889 -105 callsubr
        </CharString>
        <CharString name="colon">
          -65 -63 229 323 230 hstem
          170 225 71 226 vstem
          623 719 rmoveto
          -80 -77 -76 -82 -36 15 -36 58 78 75 90 70 40 -22 30 -47 hvcurveto
          -297 -553 rmoveto
          -3 callgsubr
        </CharString>
        <CharString name="comma">
          -270 -193 341 hstem
          155 232 vstem
          359 -41 rmoveto
          16 21 12 35 35 vvcurveto
          46 -25 52 -77 -74 -56 -70 -52 -16 5 -14 11 -10 vhcurveto
          -8 -21 -62 -86 -8 -6 rrcurveto
          -79 callsubr
          64 106 89 63 47 hvcurveto
          endchar
        </CharString>
        <CharString name="commaaccent">
          -102 0 callsubr
          hstemhm
          30 -14 callgsubr
          hintmask 11000000
          264 -240 -67 callsubr
          hintmask 10100000
          -71 callsubr
          hintmask 11000000
          -97 callgsubr
        </CharString>
        <CharString name="copyright">
          779 -88 199 161 150 379 321 -133 133 193 49 -49 139 hstemhm
          286 158 141 158 356 226 -166 166 139 186 hintmask 1110011110100000
          1650 1124 rmoveto
          224 -219 106 -113 vhcurveto
          hintmask 1101101101100000
          -225 -86 -90 -35 hhcurveto
          -8 hlineto
          -196 -4 -482 -496 -495 vvcurveto
          -150 162 -307 219 393 590 463 749 vhcurveto
          -917 -1013 rmoveto
          -164 -125 178 108 254 43 221 506 357 hvcurveto
          14 20 133 72 111 hhcurveto
          82 125 -137 -226 -360 -383 -481 -348 hvcurveto
          456 493 rmoveto
          12 -3 -8 7 -11 hhcurveto
          -6 -8 3 callgsubr
          -18 -145 -176 -150 hhcurveto
          -76 -14 56 53 159 231 299 174 7 4 -2 -8 hvcurveto
          hintmask 1110101110100000
          -7 callsubr
          -41 23 -20 41 78 84 139 70 71 -74 41 -66 -305 -295 -367 -231 -143 78 -109 164 108 255 114 191 9 0 9 -1 9 vhcurveto
          endchar
        </CharString>
        <CharString name="currency">
          267 246 151 430 140 hstem
          314 132 390 146 vstem
          351 1033 rmoveto
          -17 -6 -4 -8 4 -10 9 -21 48 -35 44 -69 10 -17 9 -14 9 -13 rrcurveto
          -90 -81 -59 -115 -131 vvcurveto
          -41 6 -35 10 -31 vhcurveto
          -19 -18 -19 -17 -20 -19 -53 -49 0 13 -26 -92 -3 -9 -1 -9 -1 -11 -5 -42 6 -50 27 -3 27 -3 9 28 17 18 52 54 47 48 43 43 rrcurveto
          -28 39 46 -14 45 hhcurveto
          61 71 21 41 66 hvcurveto
          31 -90 27 -84 8 -19 7 -17 10 -7 13 6 15 5 22 41 16 45 18 48 0 53 -32 80 -7 16 -5 12 -5 14 rrcurveto
          73 88 52 123 155 vvcurveto
          8 -1 8 -1 8 vhcurveto
          30 27 33 30 36 34 43 40 2 33 6 22 3 12 5 31 1 9 2 20 -3 11 -13 2 -14 1 -17 -13 -11 -8 -74 -54 -58 -42 -49 -36 rrcurveto
          30 -39 -45 17 -28 hhcurveto
          -77 -76 -19 -34 -67 hvcurveto
          -14 19 -16 20 -17 23 -34 45 -117 20 -21 -8 rrcurveto
          203 -636 rmoveto
          -54 -54 32 96 108 142 194 177 24 47 -35 -74 -130 -129 -191 -153 hvcurveto
          endchar
        </CharString>
        <CharString name="d">
          86 -16 129 -127 -21 1534 -20 14 callgsubr
          hintmask 10111000
          1359 1456 rmoveto
          -30 callgsubr
          -78 -119 -74 -121 -73 -123 -66 callgsubr
          hintmask 01111000
          -38 callsubr
          -2 callgsubr
          hintmask 10111000
          -55 callgsubr
          -57 callsubr
          endchar
        </CharString>
        <CharString name="dagger">
          93 30 callsubr
          1157 185 -146 451 1 -20 hstemhm
          hintmask 01101000
          496 899 rmoveto
          46 53 2 4 59 hvcurveto
          -239 -434 -304 -584 -16 -75 -51 callsubr
          hintmask 10010000
          -59 callsubr
          146 293 241 459 194 361 246 24 rcurveline
          31 2 49 19 39 vvcurveto
          14 -6 6 -10 8 vhcurveto
          -23 8 callsubr
          10 rrcurveto
          hintmask 01101000
          5 -10 -53 0 -12 hhcurveto
          -91 hlineto
          64 118 55 99 37 65 rrcurveto
          0 callgsubr
          hintmask 01010000
          9 -8 8 -13 vhcurveto
          -10 -11 -1 -22 hhcurveto
          hintmask 01101000
          19 callgsubr
          -71 -119 -95 -166 -63 -2 -66 -4 -61 -4 -35 callgsubr
          endchar
        </CharString>
        <CharString name="daggerdbl">
          93 30 callsubr
          432 187 532 191 -146 451 1 -20 hstemhm
          hintmask 01110100
          151 176 rmoveto
          33 41 2 2 43 hvcurveto
          -96 -186 -70 -146 -8 -36 -51 callsubr
          hintmask 10101000
          -1 1 1 0 2 hhcurveto
          6 9 2 5 3 hvcurveto
          2 2 8 -2 5 2 rrcurveto
          8 34 19 11 2 hhcurveto
          7 4 10 4 12 24 56 111 66 133 76 144 244 26 rcurveline
          -47 callsubr
          10 rrcurveto
          5 16 callgsubr
          -90 hlineto
          295 553 246 24 rlineto
          -47 callsubr
          10 rrcurveto
          hintmask 01110100
          5 16 callgsubr
          -90 hlineto
          64 118 55 99 37 65 rrcurveto
          0 callgsubr
          hintmask 01101000
          9 -9 8 -13 vhcurveto
          -9 -11 -1 -22 hhcurveto
          hintmask 01110100
          19 callgsubr
          -72 -119 -94 -166 -63 -2 -66 -4 -61 -4 -35 callgsubr
          14 hlineto
          45 54 2 4 59 hvcurveto
          -96 -172 -103 -194 -94 -179 -49 -2 -49 -3 -45 -3 -31 -3 -84 -46 -26 callsubr
          endchar
        </CharString>
        <CharString name="dcaron">
          320 12 callgsubr
          1152 341 -341 382 14 callgsubr
          729 232 hintmask 0010011110000000
          1359 1456 rmoveto
          -30 callgsubr
          -78 -119 -74 -121 -73 -123 -66 callgsubr
          hintmask 0001101110000000
          -38 callsubr
          hintmask 0010101110000000
          -2 callgsubr
          hintmask 1000101110000000
          -55 callgsubr
          hintmask 0100101110000000
          -57 callsubr
          894 607 rmoveto
          16 21 12 35 35 vvcurveto
          46 -25 52 -77 -74 -56 -70 -52 -16 5 -14 11 -10 vhcurveto
          -8 -21 -62 -86 -8 -6 rrcurveto
          -79 callsubr
          64 106 88 64 47 hvcurveto
          endchar
        </CharString>
        <CharString name="dcroat">
          86 12 callgsubr
          1075 166 -166 459 14 callgsubr
          -144 470 hintmask 1000011100000000
          1118 1040 rmoveto
          81 146 -4 -72 callsubr
          -38 -9 -30 -7 -31 -4 48 76 47 77 48 77 rrcurveto
          4 8 5 6 10 vvcurveto
          -30 callgsubr
          -23 -35 -23 -35 -22 -35 rrcurveto
          hintmask 0010101010000000
          3 -79 -84 5 -70 -78 callgsubr
          47 3 62 2 65 1 -20 -32 -20 -33 -19 -33 -66 callgsubr
          hintmask 0001101010000000
          -38 callsubr
          hintmask 0010101100000000
          -2 callgsubr
          hintmask 1000011100000000
          -20 -23 -138 -172 -86 hhcurveto
          -23 -7 20 21 hvcurveto
          8 vlineto
          82 231 424 56 96 vhcurveto
          53 92 55 92 56 92 rrcurveto
          -412 -378 rmoveto
          -43 -62 -46 -59 -48 -58 rrcurveto
          hintmask 0100101100000000
          -57 callsubr
          endchar
        </CharString>
        <CharString name="degree">
          -347 848 80 141 143 -71 71 hstemhm
          377 98 141 125 hintmask 10111000
          741 1100 rmoveto
          63 -49 49 -80 -104 -33 -63 -23 -12 vhcurveto
          -31 3 -55 -84 -72 vvcurveto
          -62 37 -63 94 151 82 141 111 vhcurveto
          -147 41 rmoveto
          20 2 -25 -17 -46 -22 -125 -86 -6 -27 2 35 39 6 26 27 47 hvcurveto
          hintmask 11011000
          -6 8 4 -2 6 hhcurveto
          hintmask 10111000
          27 6 72 35 hhcurveto
          endchar
        </CharString>
        <CharString name="dieresis">
          62 919 -19 callgsubr
          504 215 84 246 hintmask 10110000
          1049 1087 -79 callgsubr
          hintmask 01110000
          -58 callsubr
          hintmask 10110000
          -52 callsubr
        </CharString>
        <CharString name="divide">
          93 240 252 61 156 63 252 hstem
          827 553 rmoveto
          66 8 39 43 25 hvcurveto
          12 21 8 14 10 vvcurveto
          14 -16 5 -39 1 vhcurveto
          -60 2 -90 2 -163 5 rrcurveto
          1 -52 -59 9 -166 hhcurveto
          -51 6 -47 -62 -35 hvcurveto
          -2 -4 -1 -3 -4 vvcurveto
          -18 21 -20 29 vhcurveto
          37 123 4 78 123 102 -12 96 hhcurveto
          -378 -313 rmoveto
          73 70 73 88 66 -31 25 -39 -76 -63 -89 -86 -49 25 -28 41 hvcurveto
          184 532 rmoveto
          74 69 74 88 65 -31 25 -38 -76 -64 -88 -86 -49 25 -29 41 hvcurveto
          endchar
        </CharString>
        <CharString name="dollar">
          132 -146 494 426 271 323 -20 hstemhm
          150 160 -76 168 270 193 hintmask 11101100
          1039 952 rmoveto
          25 -3 4 68 -179 hhcurveto
          149 287 5 1 10 vvcurveto
          16 -14 9 -13 -17 -106 -20 -47 -25 vhcurveto
          -6 -11 -61 -116 -84 -166 rrcurveto
          -201 -62 -254 -137 -186 vvcurveto
          -14 5 -18 7 -15 vhcurveto
          29 -67 66 -27 77 -15 -35 -67 -30 -68 -31 -61 rrcurveto
          hintmask 11110100
          -8 4 -4 9 15 7 2 8 9 vvcurveto
          19 -21 6 -22 -64 -55 -53 -76 -39 25 -47 69 -24 vhcurveto
          -35 -76 -28 -64 -21 -47 -4 callgsubr
          hintmask 11101100
          4 3 0 1 4 hvcurveto
          10 2 35 -2 18 28 11 17 45 102 39 92 rrcurveto
          182 15 291 116 179 vvcurveto
          43 -35 63 -64 31 vhcurveto
          -47 22 -47 15 -43 12 53 104 46 93 40 79 rrcurveto
          15 12 3 2 12 hvcurveto
          -8 -31 -17 -5 -16 vvcurveto
          -10 4 -9 7 -3 vhcurveto
          -6 16 -2 -17 33 hhcurveto
          66 78 43 37 28 hvcurveto
          15 19 12 43 36 vvcurveto
          -453 -149 rmoveto
          -30 -59 -31 -62 -31 -63 rrcurveto
          -55 10 -37 8 19 vvcurveto
          20 78 72 106 55 vhcurveto
          86 -424 rmoveto
          -37 -82 -47 -118 -22 vhcurveto
          28 57 27 53 24 51 rrcurveto
          72 -16 49 -16 -23 vvcurveto
          endchar
        </CharString>
        <CharString name="dotaccent">
          62 909 278 hstem
          609 266 vstem
          791 1187 -40 callgsubr
        </CharString>
        <CharString name="dotlessi">
          -23 callgsubr
          706 -20 -84 callgsubr
          endchar
        </CharString>
        <CharString name="dotlessj">
          -304 -581 -21 1388 -20 hstem
          571 295 -91 callsubr
          endchar
        </CharString>
        <CharString name="e">
          -65 callgsubr
          -37 callgsubr
          hintmask 10101010
          -85 callgsubr
          hintmask 10110010
          -46 callsubr
          hintmask 10101010
          -100 callsubr
          hintmask 10110010
          -82 callsubr
          hintmask 01100110
          -89 callsubr
          hintmask 10101010
          -99 callsubr
          vhcurveto
          endchar
        </CharString>
        <CharString name="eacute">
          -107 -39 137 484 227 522 -20 -15 callgsubr
          248 211 hintmask 11101100
          -85 callgsubr
          hintmask 11110100
          -46 callsubr
          hintmask 11101100
          -100 callsubr
          hintmask 11110100
          -82 callsubr
          -89 callsubr
          hintmask 11101100
          -99 callsubr
          vhcurveto
          40 440 -106 callgsubr
        </CharString>
        <CharString name="ebreve">
          -65 callgsubr
          141 162 -162 350 -37 callgsubr
          hintmask 1011001010000000
          -85 callgsubr
          hintmask 1011010010000000
          -46 callsubr
          hintmask 1011001010000000
          -100 callsubr
          hintmask 1011010010000000
          -82 callsubr
          hintmask 0111000110000000
          -89 callsubr
          hintmask 1010101010000000
          -99 callsubr
          vhcurveto
          -333 546 -80 callsubr
          hintmask 1011010010000000
          -75 callgsubr
        </CharString>
        <CharString name="ecaron">
          -65 callgsubr
          121 391 14 -20 -37 callgsubr
          hintmask 1011001010000000
          -85 callgsubr
          hintmask 1011010010000000
          -46 callsubr
          hintmask 1011001010000000
          -100 callsubr
          hintmask 1011010010000000
          -82 callsubr
          hintmask 0111000110000000
          -89 callsubr
          hintmask 1010101010000000
          -99 callsubr
          vhcurveto
          -234 587 -77 callsubr
          hintmask 1011010010000000
          -84 callsubr
          hintmask 1010110010000000
          -38 callgsubr
        </CharString>
        <CharString name="ecircumflex">
          -65 callgsubr
          121 406 -37 callgsubr
          hintmask 10110101
          -85 callgsubr
          hintmask 10111001
          -46 callsubr
          hintmask 10110101
          -100 callsubr
          hintmask 10111001
          -82 callsubr
          hintmask 01110011
          -89 callsubr
          hintmask 10110101
          -99 callsubr
          vhcurveto
          178 182 -105 callsubr
        </CharString>
        <CharString name="edieresis">
          -65 callgsubr
          151 246 6 -20 -46 callgsubr
          -61 215 -139 211 12 246 hintmask 1011001001100000
          -85 callgsubr
          hintmask 1011010010100000
          -46 callsubr
          hintmask 1011001010100000
          -100 callsubr
          hintmask 1011010010100000
          -82 callsubr
          hintmask 0111000101100000
          -89 callsubr
          hintmask 1011001001100000
          -99 callsubr
          vhcurveto
          258 380 rmoveto
          60 -41 18 -35 -115 -55 -129 -37 -45 24 -35 52 92 78 92 76 vhcurveto
          hintmask 1010110010100000
          -330 2 rmoveto
          -58 callsubr
          hintmask 1011000101100000
          -51 22 -33 39 vhcurveto
          hintmask 1011010010100000
          84 70 99 71 hvcurveto
          endchar
        </CharString>
        <CharString name="edotaccent">
          -65 callgsubr
          141 278 -46 callgsubr
          19 207 -207 266 hintmask 1011010100000000
          -85 callgsubr
          hintmask 1011100100000000
          -46 callsubr
          hintmask 1011010100000000
          -100 callsubr
          hintmask 1011100100000000
          -82 callsubr
          hintmask 0111001100000000
          -89 callsubr
          hintmask 1011010100000000
          -99 callsubr
          vhcurveto
          -25 480 rmoveto
          -123 -59 -110 -74 -51 35 -43 53 hvcurveto
          hintmask 1011100010000000
          117 61 100 84 57 -41 37 -43 hvcurveto
          endchar
        </CharString>
        <CharString name="egrave">
          -65 callgsubr
          121 405 -46 callgsubr
          -377 510 -118 211 hintmask 1011010010000000
          -85 callgsubr
          hintmask 1011100010000000
          -46 callsubr
          hintmask 1011010010000000
          -100 callsubr
          hintmask 1011100010000000
          -82 callsubr
          hintmask 0111001010000000
          -89 callsubr
          hintmask 1011010010000000
          -99 callsubr
          vhcurveto
          -247 301 rmoveto
          -35 17 18 -84 86 hhcurveto
          hintmask 1011000100000000
          23 10 6 22 49 -40 105 -13 43 hvcurveto
          135 -40 2 45 -48 hhcurveto
          -64 -76 -49 -24 -37 60 -45 65 -131 hvcurveto
          endchar
        </CharString>
        <CharString name="eight">
          63 -31 167 942 175 hstem
          20 197 162 163 69 159 vstem
          648 648 rmoveto
          137 106 135 110 139 105 64 52 70 44 62 53 rrcurveto
          17 15 10 18 26 vvcurveto
          29 -21 3 -43 vhcurveto
          -15 -17 -3 -16 hhcurveto
          -19 -187 -141 -16 -22 hvcurveto
          11 30 16 40 18 vvcurveto
          11 -6 12 -4 10 vhcurveto
          63 -32 -68 20 -68 hhcurveto
          -194 -184 -198 -197 -32 hvcurveto
          -1 -9 -1 -9 -8 vvcurveto
          -64 17 -65 32 -56 vhcurveto
          -151 -104 -228 -191 -28 -195 rrcurveto
          -6 -1 -6 -5 vvcurveto
          -124 122 -47 111 223 272 161 250 22 vhcurveto
          19 vlineto
          99 -71 66 -54 75 vhcurveto
          -139 -99 rmoveto
          7 -6 6 -6 5 -7 rrcurveto
          -1 hlineto
          39 -44 49 -57 -61 vvcurveto
          -131 -185 -92 -110 -50 -47 22 51 -2 vhcurveto
          98 201 171 81 63 vhcurveto
          45 347 rmoveto
          97 11 101 93 93 hhcurveto
          56 41 -35 -48 26 hvcurveto
          -99 -78 -108 -87 -97 -82 rrcurveto
          -15 39 -11 37 38 vvcurveto
          8 1 9 1 9 vhcurveto
          endchar
        </CharString>
        <CharString name="ellipsis">
          668 -63 229 hstem
          150 225 250 225 250 225 cntrmask 01110000
          306 166 rmoveto
          -60 callsubr
          475 hmoveto
          -60 callsubr
          475 hmoveto
          -3 callgsubr
        </CharString>
        <CharString name="emacron">
          -65 callgsubr
          205 156 28 -20 -37 callgsubr
          hintmask 1011101010000000
          -85 callgsubr
          hintmask 1011110010000000
          -46 callsubr
          hintmask 1011101010000000
          -100 callsubr
          hintmask 1011110010000000
          -82 callsubr
          hintmask 0111100110000000
          -89 callsubr
          hintmask 1011101010000000
          -99 callsubr
          vhcurveto
          15 266 rmoveto
          81 146 -4 -72 callsubr
          -18 -75 -46 -8 -75 hhcurveto
          hintmask 1011110010000000
          -99 -16 10 -98 -78 callgsubr
          -33 callgsubr
        </CharString>
        <CharString name="emdash">
          1291 428 154 30 -20 hstem
          649 428 rmoveto
          168 1145 10 19 180 hvcurveto
          39 4 0 27 45 24 5 20 13 vvcurveto
          14 -6 8 -23 vhcurveto
          -123 -1166 -30 -127 -223 -334 14 -69 hhcurveto
          -18 -8 -58 -40 -20 2 -15 3 -2 hvcurveto
          -29 88 330 -4 137 hhcurveto
          endchar
        </CharString>
        <CharString name="endash">
          267 421 184 hstemhm
          449 421 rmoveto
          168 2 153 8 161 23 rrcurveto
          68 10 72 21 45 vvcurveto
          51 -58 24 -82 vhcurveto
          hintmask 10000000
          -123 -140 -24 -6 -127 hvcurveto
          -223 93 10 -172 hhcurveto
          -54 -16 -41 -12 -92 143 -19 137 hvcurveto
          endchar
        </CharString>
        <CharString name="eng">
          44 -581 -21 621 -24 callsubr
          2 -20 hstemhm
          hintmask 11100000
          889 723 rmoveto
          55 -43 35 -51 -154 -154 -162 -106 -96 vhcurveto
          29 47 100 137 47 vvcurveto
          hintmask 11010000
          -74 callgsubr
          hintmask 11100000
          55 50 273 289 52 hhcurveto
          4 1 -2 -2 -1 hvcurveto
          -165 -238 -71 -147 -225 -373 rrcurveto
          -163 -137 -203 -145 -99 vvcurveto
          -71 47 -31 49 141 183 274 84 43 vhcurveto
          207 228 383 170 18 28 13 25 -8 67 -5 21 -2 18 -20 9 -21 -17 rrcurveto
          -38 -322 -242 -32 -46 hvcurveto
          179 332 231 284 76 vvcurveto
          endchar
        </CharString>
        <CharString name="eogonek">
          -107 -387 155 193 137 484 227 -46 callgsubr
          -307 -1 callsubr
          -71 211 hintmask 1111000100000000
          217 -244 rmoveto
          -87 callgsubr
          hintmask 1111001010000000
          -29 callgsubr
          52 73 89 54 41 vhcurveto
          76 57 94 55 59 48 15 12 20 19 6 16 rrcurveto
          6 17 0 20 17 vvcurveto
          18 0 61 -26 -8 -9 -6 -4 -6 vhcurveto
          -69 -92 -139 -138 -146 hhcurveto
          -82 callsubr
          hintmask 1110010010000000
          -89 callsubr
          hintmask 1110100010000000
          -99 callsubr
          43 -66 18 -35 -170 -332 -141 -197 -53 5 -39 55 -25 vhcurveto
          hintmask 1111001010000000
          -46 callsubr
          hintmask 1110100010000000
          -147 156 -37 119 9 38 2 2 12 vhcurveto
          hintmask 1111000100000000
          -84 -60 -49 -86 -63 vvcurveto
          endchar
        </CharString>
        <CharString name="equal">
          122 399 191 -146 433 -191 191 -146 146 hstemhm
          hintmask 10100000
          365 686 rmoveto
          hintmask 10010000
          184 2 351 40 49 3 rrcurveto
          30 1 50 20 39 -12 callsubr
          -141 -164 -4 -11 -147 hvcurveto
          -31 -3 -84 -46 -36 callgsubr
          hintmask 10100000
          -36 48 -13 30 vhcurveto
          -109 -287 rmoveto
          hintmask 01000000
          176 2 320 39 47 4 rrcurveto
          -47 callsubr
          11 rrcurveto
          hintmask 10100000
          4 16 callgsubr
          -123 -159 -5 -10 -129 hvcurveto
          19 callsubr
          -37 48 -13 30 vhcurveto
          endchar
        </CharString>
        <CharString name="eth">
          22 -27 148 521 147 hstem
          14 151 609 147 vstem
          746 1063 rmoveto
          9 3 10 4 9 3 rrcurveto
          -63 2 -114 -27 -123 vhcurveto
          11 -16 -25 5 -19 callsubr
          32 -3 33 -3 33 hvcurveto
          50 22 49 25 52 28 44 24 46 34 -12 30 -13 36 -47 2 -57 -21 -45 -17 -43 -21 -44 -21 -36 161 -65 130 -39 -14 -137 -51 88 -153 46 -139 -130 -47 56 27 -114 -42 rrcurveto
          -37 -14 -2 -33 4 -7 23 -65 98 21 96 35 rrcurveto
          -59 -467 22 callsubr
          -27 -15 21 35 1 hvcurveto
          2 138 305 333 194 -6 17 -1 15 2 12 4 -7 -17 -8 -17 -8 -17 rrcurveto
          endchar
        </CharString>
        <CharString name="exclam">
          -87 -66 230 1343 -20 hstem
          150 223 vstem
          1230 1468 rmoveto
          2 5 2 4 4 vvcurveto
          9 -10 7 -15 vhcurveto
          -25 -23 10 -29 hhcurveto
          -25 -18 1 -11 -14 hvcurveto
          -95 -75 -571 -858 -45 -152 rrcurveto
          -5 -17 -3 -14 -11 vvcurveto
          -31 18 -7 19 6 21 3 7 10 vhcurveto
          4 3 10 -2 6 1 48 4 -3 7 4 1 10 3 13 8 18 30 346 561 119 179 225 331 rrcurveto
          -1020 -1534 rmoveto
          75 88 96 76 33 -19 25 -39 -75 -90 -77 -94 -31 14 -28 46 hvcurveto
          endchar
        </CharString>
        <CharString name="exclamdown">
          -87 -84 -21 1343 230 hstem
          790 223 vstem
          -67 -66 rmoveto
          -2 -5 -2 -4 -4 vvcurveto
          -9 10 -7 15 vhcurveto
          25 23 -10 29 hhcurveto
          25 18 -1 11 14 hvcurveto
          95 75 571 858 45 152 rrcurveto
          5 17 3 14 11 vvcurveto
          31 -18 7 -19 -6 -21 -3 -7 -10 vhcurveto
          -4 -3 -10 2 -6 -1 -48 -4 3 -7 -4 -1 -10 -3 -13 -8 -18 -30 -346 -561 -119 -179 -225 -331 rrcurveto
          1020 1534 rmoveto
          -75 -88 -96 -76 -33 19 -25 39 75 90 77 94 31 -14 28 -46 hvcurveto
          endchar
        </CharString>
        <CharString name="f">
          -20 -614 174 1931 -20 6 callsubr
          -101 callsubr
          endchar
        </CharString>
        <CharString name="fi">
          395 -614 174 399 154 813 229 336 -20 6 callsubr
          109 181 301 221 -101 callsubr
          986 858 -50 callgsubr
          -162 -873 -105 callgsubr
          endchar
        </CharString>
        <CharString name="five">
          38 -37 177 384 182 508 -20 hstem
          8 106 520 157 vstem
          1081 1044 rmoveto
          7 6 9 40 19 vvcurveto
          20 -46 85 -32 4 -319 -29 -20 -82 vhcurveto
          -26 -18 -13 -17 -15 hvcurveto
          -16 -18 -247 -386 -47 -113 rrcurveto
          -9 -21 -3 -14 -9 vvcurveto
          -9 1 -4 4 -4 vhcurveto
          -56 23 3 0 8 hhcurveto
          3 5 1 2 8 hvcurveto
          9 41 72 11 69 hhcurveto
          79 74 -16 -55 3 hvcurveto
          -148 -274 -165 -146 -56 -41 23 58 -3 vhcurveto
          24 -7 11 -15 -51 -33 -66 -69 -96 51 -62 121 212 399 231 340 vhcurveto
          134 -8 -120 38 -111 hhcurveto
          -36 -36 -4 -6 -30 hvcurveto
          41 70 82 139 45 72 140 12 273 17 50 38 rrcurveto
          endchar
        </CharString>
        <CharString name="fl">
          508 -614 174 401 148 1241 151 6 callsubr
          199 -1 callgsubr
          -101 callsubr
          1285 1157 -97 callsubr
          -99 callgsubr
          endchar
        </CharString>
        <CharString name="florin">
          58 -423 164 -164 254 1150 -24 callgsubr
          hstemhm
          -351 239 1094 239 hintmask 10101100
          256 559 rmoveto
          55 54 2 4 55 hvcurveto
          -398 -156 -112 -426 -288 hhcurveto
          -29 53 31 17 8 -3 8 -7 3 hvcurveto
          hintmask 01011100
          7 -14 2 16 -33 hhcurveto
          -61 -123 -55 -76 -18 40 -105 163 432 141 569 435 167 hvcurveto
          80 10 80 12 82 12 -33 callsubr
          -38 -38 0 -1 -39 hvcurveto
          192 88 103 138 157 hhcurveto
          -9 -28 -15 -3 -17 vvcurveto
          -8 3 -8 7 -3 vhcurveto
          hintmask 10101100
          -7 14 -2 -16 33 hhcurveto
          95 89 65 103 18 2 68 -147 -292 -166 -225 -275 -126 hvcurveto
          -52 -3 -51 -5 -52 -6 9 callgsubr
          -28 35 -9 21 vhcurveto
          endchar
        </CharString>
        <CharString name="four">
          143 -59 -21 1335 -20 hstem
          1125 1165 rmoveto
          1 1 1 2 2 vvcurveto
          10 -6 14 -2 4 vhcurveto
          -10 5 -1 21 -12 7 rrcurveto
          15 -44 -24 9 -2 hhcurveto
          -111 -18 -702 -537 -78 -180 rrcurveto
          -3 -7 -3 -22 -25 vvcurveto
          -38 7 -47 26 25 131 10 12 169 vhcurveto
          -109 -190 -89 -154 -48 -102 rrcurveto
          -16 1 23 -21 14 hhcurveto
          41 17 98 1 19 42 102 188 87 156 53 94 130 12 82 10 10 2 29 13 63 94 20 29 rrcurveto
          10 15 5 12 5 vvcurveto
          5 -3 4 -6 -35 -76 -8 -13 -129 vhcurveto
          90 162 107 176 149 229 rrcurveto
          -808 -630 rmoveto
          147 129 256 243 181 150 -130 -183 -110 -174 -72 -122 -99 -13 -79 -12 -94 -18 rrcurveto
          endchar
        </CharString>
        <CharString name="fraction">
          -68 callgsubr
        </CharString>
        <CharString name="g">
          -7 callgsubr
          hstem
          5 159 vstem
          -103 callsubr
          endchar
        </CharString>
        <CharString name="gbreve">
          -7 callgsubr
          810 25 callgsubr
          5 159 hintmask 11011000
          -103 callsubr
          -187 597 -80 callsubr
          hintmask 11101000
          -75 callgsubr
        </CharString>
        <CharString name="gcircumflex">
          -7 callgsubr
          790 406 hstem
          5 159 vstem
          -103 callsubr
          314 233 -105 callsubr
        </CharString>
        <CharString name="gcommaaccent">
          100 259 -84 103 96 endchar
        </CharString>
        <CharString name="gdotaccent">
          -7 callgsubr
          810 278 hstem
          5 159 549 266 vstem
          -103 callsubr
          141 531 -40 callgsubr
        </CharString>
        <CharString name="germandbls">
          89 -15 164 -164 259 1046 156 hstemhm
          651 71 -71 158 308 169 hintmask 10101100
          573 849 rmoveto
          357 263 97 84 121 hhcurveto
          47 16 -28 -27 -94 -277 -219 -105 -75 hvcurveto
          -98 -69 -87 -50 -87 -92 101 -102 -135 vvcurveto
          -62 -48 -101 -153 vhcurveto
          hintmask 01101100
          -101 29 95 -32 hhcurveto
          -54 -80 -34 -73 -59 63 -93 162 301 71 221 131 hvcurveto
          hintmask 10110100
          185 -87 91 40 66 564 252 297 vvcurveto
          75 -66 103 -127 -303 -213 -303 -220 -141 vhcurveto
          -104 -162 -639 -1070 -201 vvcurveto
          -80 106 0 62 14 vhcurveto
          43 10 -27 62 31 128 34 142 576 1006 55 77 rrcurveto
          endchar
        </CharString>
        <CharString name="grave">
          62 889 405 hstem
          663 1008 -92 callsubr
        </CharString>
        <CharString name="greater">
          -57 209 -21 920 -20 hstem
          569 1108 10 callgsubr
          41 -123 43 -102 -118 -68 -134 -70 -90 -71 rrcurveto
          -30 -25 -60 -51 -47 vvcurveto
          -25 0 -80 29 callsubr
          121 103 -5 callsubr
          -14 51 -31 207 rrcurveto
          30 -6 10 23 -25 hhcurveto
          endchar
        </CharString>
        <CharString name="greaterequal">
          -57 85 156 813 -20 hstem
          511 1054 10 callgsubr
          77 -49 43 -102 rrcurveto
          -86 -64 -261 -52 -105 vvcurveto
          -25 0 -110 29 callsubr
          36 22 -5 callsubr
          -47 92 -34 92 rrcurveto
          30 -6 10 23 -25 hhcurveto
          4 -969 -42 callsubr
        </CharString>
        <CharString name="guillemotleft">
          9 84 30 callgsubr
          174 428 rmoveto
          21 -55 36 -148 7 -92 rrcurveto
          -39 3 6 -16 40 hhcurveto
          54 35 91 68 24 -5 23 -10 13 hvcurveto
          -17 20 -16 68 -12 45 40 59 66 45 72 44 rrcurveto
          32 19 3 24 47 vvcurveto
          24 0 80 -35 -18 -12 -14 -10 -9 vhcurveto
          -62 -69 -95 -118 -79 -45 rrcurveto
          -30 -17 -22 -26 -24 vvcurveto
          -8 2 -7 5 -6 vhcurveto
          254 6 rmoveto
          55 -160 -2 52 31 -207 rrcurveto
          -39 2 8 -17 39 hhcurveto
          54 35 91 68 85 -47 -45 -34 174 hvcurveto
          66 43 88 51 86 54 rrcurveto
          33 20 2 23 47 vvcurveto
          24 0 80 -35 -16 -13 -16 -8 -10 vhcurveto
          -168 -138 2 -10 -30 callsubr
          endchar
        </CharString>
        <CharString name="guillemotright">
          11 97 30 callgsubr
          451 451 rmoveto
          -37 92 -26 55 -6 callsubr
          -12 41 -123 -82 -65 -100 -56 -47 -34 rrcurveto
          -31 -23 -24 -33 -47 11 callsubr
          63 6 callgsubr
          262 -29 rmoveto
          -20 54 -36 149 -7 92 rrcurveto
          39 -3 -6 16 -40 hhcurveto
          -41 -37 -95 -69 -23 4 -20 10 -12 hvcurveto
          17 -21 8 -67 12 -45 -41 -60 -67 -45 -72 -43 rrcurveto
          -33 -20 -2 -23 -47 vvcurveto
          -24 0 -80 35 16 14 14 10 9 vhcurveto
          60 68 100 95 75 69 rrcurveto
          26 24 25 24 22 vvcurveto
          6 -2 6 -4 6 vhcurveto
          endchar
        </CharString>
        <CharString name="guilsinglleft">
          -245 99 30 callgsubr
          174 469 rmoveto
          56 -160 -3 31 31 -207 rrcurveto
          -39 2 8 -16 39 hhcurveto
          54 35 90 68 77 -46 -25 -34 183 hvcurveto
          65 43 88 31 86 53 rrcurveto
          33 20 2 23 47 vvcurveto
          25 0 80 -35 -16 -13 -17 -8 -10 vhcurveto
          -168 -137 2 10 -131 -84 rrcurveto
          -29 -19 -23 -27 -22 vvcurveto
          -7 2 -7 5 -6 vhcurveto
          endchar
        </CharString>
        <CharString name="guilsinglright">
          -245 97 30 callgsubr
          44 419 vstem
          451 410 rmoveto
          -37 92 -26 96 -6 callsubr
          -53 41 -123 rrcurveto
          -157 -100 -127 10 -127 11 callsubr
          22 6 callgsubr
          endchar
        </CharString>
        <CharString name="h">
          -11 callsubr
          1527 -20 hstemhm
          hintmask 01010000
          942 -76 callgsubr
          -18 -16 -154 -158 -59 -16 rrcurveto
          hintmask 10010000
          -3 -10 -9 -2 -8 hhcurveto
          -23 -12 13 27 hvcurveto
          79 260 447 51 vvcurveto
          29 -6 28 -28 11 vhcurveto
          6 -15 -35 10 -22 hhcurveto
          -127 -215 -223 -135 -111 hvcurveto
          201 407 369 551 16 31 rrcurveto
          4 10 2 11 11 vvcurveto
          37 -14 2 -14 -75 -50 -27 -30 -23 vhcurveto
          -24 -31 -74 -112 -74 -129 -354 -617 -137 -305 -107 -248 rrcurveto
          -3 -8 -1 -5 -4 vvcurveto
          hintmask 00110000
          -10 7 -1 6 vhcurveto
          10 15 -17 22 hhcurveto
          20 41 19 12 8 hvcurveto
          83 115 390 442 111 78 rrcurveto
          -62 -107 -170 -284 -135 vvcurveto
          hintmask 10010000
          -104 66 -42 99 164 153 158 61 30 vhcurveto
          5 10 2 16 17 vvcurveto
          27 -5 30 -2 13 vhcurveto
          endchar
        </CharString>
        <CharString name="hbar">
          -11 callsubr
          1016 156 -156 166 -166 511 hstemhm
          hintmask 10010000
          703 1002 rmoveto
          81 196 -4 -72 callsubr
          -70 -17 -87 -8 -72 -1 99 157 75 113 7 14 rrcurveto
          4 10 2 11 11 vvcurveto
          hintmask 10000100
          37 -14 2 -14 -75 -50 -27 -30 -23 vhcurveto
          -24 -31 -74 -112 -74 -129 -4 -8 -4 -7 -4 -7 rrcurveto
          hintmask 00101000
          3 -58 -59 3 -50 -78 callgsubr
          32 2 39 2 42 1 -278 -496 -120 -267 -95 -222 rrcurveto
          -3 -8 -1 -5 -4 vvcurveto
          -10 7 -1 6 vhcurveto
          10 15 -17 22 hhcurveto
          20 41 19 12 8 hvcurveto
          83 115 390 442 111 78 rrcurveto
          -62 -107 -170 -284 -135 vvcurveto
          hintmask 01010000
          -104 66 -42 99 164 153 158 61 30 vhcurveto
          5 10 2 16 17 vvcurveto
          27 -5 30 -2 13 vhcurveto
          -17 callsubr
          -18 -16 -154 -158 -59 -16 rrcurveto
          hintmask 10010000
          -3 -10 -9 -2 -8 hhcurveto
          -23 -12 13 27 hvcurveto
          79 260 447 51 vvcurveto
          29 -6 28 -28 11 vhcurveto
          6 -15 -35 10 -22 hhcurveto
          -127 -215 -223 -135 -111 hvcurveto
          86 174 116 200 107 175 rrcurveto
          endchar
        </CharString>
        <CharString name="hcircumflex">
          -11 callsubr
          1591 406 hstemhm
          hintmask 01010000
          942 -76 callgsubr
          -18 -16 -154 -158 -59 -16 rrcurveto
          hintmask 10010000
          -3 -10 -9 -2 -8 hhcurveto
          -23 -12 13 27 hvcurveto
          79 260 447 51 vvcurveto
          29 -6 28 -28 11 vhcurveto
          6 -15 -35 10 -22 hhcurveto
          -127 -215 -223 -135 -111 hvcurveto
          201 407 369 551 16 31 rrcurveto
          4 10 2 11 11 vvcurveto
          37 -14 2 -14 -75 -50 -27 -30 -23 vhcurveto
          -24 -31 -74 -112 -74 -129 -354 -617 -137 -305 -107 -248 rrcurveto
          -3 -8 -1 -5 -4 vvcurveto
          hintmask 00110000
          -10 7 -1 6 vhcurveto
          10 15 -17 22 hhcurveto
          20 41 19 12 8 hvcurveto
          83 115 390 442 111 78 rrcurveto
          -62 -107 -170 -284 -135 vvcurveto
          hintmask 10010000
          -104 66 -42 99 164 153 158 61 30 vhcurveto
          5 10 2 16 17 vvcurveto
          27 -5 30 -2 13 vhcurveto
          238 1282 -105 callsubr
        </CharString>
        <CharString name="hungarumlaut">
          62 889 403 hstem
          579 1137 -86 callsubr
        </CharString>
        <CharString name="hyphen">
          -68 callsubr
        </CharString>
        <CharString name="i">
          -23 callgsubr
          813 229 hstem
          10 181 301 221 vstem
          713 1098 -50 callgsubr
          -162 -873 -105 callgsubr
          endchar
        </CharString>
        <CharString name="iacute">
          -23 callgsubr
          1227 -20 -84 callgsubr
          77 972 -106 callgsubr
        </CharString>
        <CharString name="ibreve">
          -23 callgsubr
          846 25 callgsubr
          10 181 hintmask 10110000
          -102 callgsubr
          -296 1078 -80 callsubr
          hintmask 11010000
          -75 callgsubr
        </CharString>
        <CharString name="icircumflex">
          -23 callgsubr
          826 406 -84 callgsubr
          215 714 -105 callsubr
        </CharString>
        <CharString name="idieresis">
          -23 callgsubr
          856 -19 callgsubr
          10 181 110 203 96 246 hintmask 11011100
          -102 callgsubr
          295 912 -79 callgsubr
          hintmask 10111100
          -58 callsubr
          hintmask 11011100
          -52 callsubr
        </CharString>
        <CharString name="igrave">
          -23 callgsubr
          826 405 -84 callgsubr
          -210 833 -92 callsubr
        </CharString>
        <CharString name="ij">
          111 -581 -21 561 154 807 241 hstem
          954 256 vstem
          986 -23 callsubr
          -2 18 -20 9 -21 -17 rrcurveto
          -38 -322 -242 -32 -46 hvcurveto
          52 80 332 530 17 47 rrcurveto
          2 6 3 11 6 vvcurveto
          49 -26 26 -49 -52 -235 -150 -50 9 vhcurveto
          12 -70 55 28 24 -3 -49 -70 -52 -82 -55 -93 rrcurveto
          -107 -79 -106 -76 -98 hhcurveto
          -25 -26 6 28 48 51 72 24 40 hvcurveto
          29 50 209 361 21 vvcurveto
          31 -41 49 -33 -86 -155 -170 -16 vhcurveto
          -23 41 -20 -23 -16 -220 -320 -100 vvcurveto
          -88 92 -84 90 42 85 20 42 72 vhcurveto
          -22 -37 -57 -67 -31 -36 rrcurveto
          -163 -137 -203 -145 -99 vvcurveto
          -71 47 -31 49 141 183 274 84 43 vhcurveto
          207 228 383 170 18 28 13 25 -8 67 -5 21 rrcurveto
          224 817 -11 callgsubr
          -497 -14 -50 callgsubr
          endchar
        </CharString>
        <CharString name="imacron">
          -23 callgsubr
          910 156 28 -20 hstemhm
          10 181 vstemhm
          -102 callgsubr
          52 798 rmoveto
          81 146 -4 -72 callsubr
          -18 -75 -46 -8 -75 hhcurveto
          hintmask 11110000
          -99 -16 10 -98 -78 callgsubr
          -33 callgsubr
        </CharString>
        <CharString name="iogonek">
          -342 -397 155 1168 229 hstemhm
          -19 123 -94 181 301 221 hintmask 11101000
          -19 -31 callgsubr
          -29 callgsubr
          44 63 78 45 55 vhcurveto
          109 9 158 78 66 135 rrcurveto
          6 13 0 16 14 15 callsubr
          -31 -131 -202 -121 hhcurveto
          hintmask 11011000
          -25 -26 6 28 48 51 72 24 40 hvcurveto
          29 50 209 361 21 vvcurveto
          31 -41 49 -33 -86 -155 -170 -16 vhcurveto
          -23 41 -20 -23 -16 -220 -320 -100 vvcurveto
          -61 43 -58 57 -30 vhcurveto
          hintmask 11101000
          -64 -69 -65 -117 -50 vvcurveto
          732 1352 -50 callgsubr
          endchar
        </CharString>
        <CharString name="itilde">
          -23 callgsubr
          847 161 -41 158 hstemhm
          10 181 hintmask 11010000
          -102 callgsubr
          94 896 rmoveto
          hintmask 10110000
          -76 callsubr
          hintmask 11010000
          -83 callgsubr
        </CharString>
        <CharString name="j">
          -304 -581 -21 1522 241 hstem
          539 256 vstem
          795 1112 -11 callgsubr
          -224 -817 -91 callsubr
          endchar
        </CharString>
        <CharString name="jcircumflex">
          -304 -581 -21 1508 406 hstem
          571 295 -91 callsubr
          190 611 -105 callsubr
        </CharString>
        <CharString name="k">
          -4 -35 7 callsubr
          1474 -20 hstemhm
          708 158 hintmask 01011000
          897 -88 callgsubr
          -8 16 callsubr
          hintmask 10011000
          -70 callgsubr
          hintmask 00111000
          -53 callgsubr
          hintmask 10011000
          -58 callgsubr
          endchar
        </CharString>
        <CharString name="kcommaaccent">
          -4 0 callsubr
          107 7 callsubr
          1474 -20 hstemhm
          45 303 -234 -14 callgsubr
          360 158 hintmask 1010110010000000
          897 -88 callgsubr
          -8 16 callsubr
          hintmask 1100110010000000
          -70 callgsubr
          hintmask 1001110010000000
          -53 callgsubr
          hintmask 1100101010000000
          -58 callgsubr
          -549 -535 -67 callsubr
          hintmask 1100100110000000
          -71 callsubr
          hintmask 1100101010000000
          -97 callgsubr
        </CharString>
        <CharString name="kgreenlandic">
          -4 -35 7 callsubr
          hstemhm
          561 147 hintmask 01010000
          897 -88 callgsubr
          -8 16 callsubr
          hintmask 10010000
          -19 -16 -129 -162 -84 -12 rrcurveto
          -94 -63 141 78 -29 hvcurveto
          113 47 311 223 6 164 rrcurveto
          49 -34 27 -40 -30 -51 -15 -63 -3 vhcurveto
          -2 -53 -282 -221 -99 -39 62 116 166 279 8 28 rrcurveto
          7 vlineto
          19 -14 13 -15 -16 3 12 -20 -57 vhcurveto
          -35 -13 -25 38 -30 -43 -19 -22 -348 -672 -32 -109 rrcurveto
          -7 -24 -8 -12 -7 vvcurveto
          -2 0 -1 1 -1 vhcurveto
          hintmask 00110000
          -53 callgsubr
          hintmask 10010000
          -58 callgsubr
          endchar
        </CharString>
        <CharString name="l">
          -20 callgsubr
          1012 1397 -97 callsubr
          hintmask 10111000
          -99 callgsubr
          endchar
        </CharString>
        <CharString name="lacute">
          -229 -39 148 1241 151 473 -20 hstem
          100 -1 callgsubr
          vstem
          1012 1397 -97 callsubr
          -99 callgsubr
          203 496 -106 callgsubr
        </CharString>
        <CharString name="lcaron">
          25 -39 148 -148 354 824 362 -151 151 hstemhm
          100 -1 callgsubr
          78 232 hintmask 01011110
          1012 1397 -97 callsubr
          hintmask 10011110
          -99 callgsubr
          448 -44 rmoveto
          16 21 12 35 35 vvcurveto
          46 -25 52 -77 -74 -56 -70 -52 -16 5 -14 11 -10 vhcurveto
          -8 -21 -62 -86 -8 -6 rrcurveto
          -93 callsubr
          hintmask 10101110
          -16 callgsubr
          endchar
        </CharString>
        <CharString name="lcommaaccent">
          -229 0 callsubr
          103 148 -148 354 1035 151 hstemhm
          61 234 -195 154 -154 195 551 166 hintmask 10110011
          1012 1397 -97 callsubr
          hintmask 11010101
          -99 callgsubr
          hintmask 11011001
          -551 -1575 -67 callsubr
          -71 callsubr
          -97 callgsubr
        </CharString>
        <CharString name="ldotaccent">
          48 -39 148 -148 354 83 317 635 151 hstemhm
          100 154 371 245 -24 166 hintmask 01111010
          1012 1397 -97 callsubr
          hintmask 10111010
          -99 callgsubr
          -156 -937 rmoveto
          hintmask 10111100
          -13 callsubr
        </CharString>
        <CharString name="less">
          -57 168 -21 922 -20 hstem
          835 1069 27 callsubr
          -143 -89 -30 callsubr
          55 -160 20 -53 39 -209 rrcurveto
          -41 4 6 -35 31 hhcurveto
          27 50 145 57 8 -1 6 -2 4 hvcurveto
          -14 22 -54 152 -20 106 139 94 156 62 11 callgsubr
          endchar
        </CharString>
        <CharString name="lessequal">
          -57 75 156 808 -20 hstem
          714 1039 27 callsubr
          -52 -19 -30 callsubr
          55 -160 79 -113 38 -81 rrcurveto
          -37 17 9 -33 31 hhcurveto
          27 34 139 57 8 -1 6 -2 4 hvcurveto
          -14 22 -112 84 -20 106 139 94 65 -8 11 callgsubr
          -177 -964 -42 callsubr
        </CharString>
        <CharString name="logicalnot">
          93 333 -21 360 147 hstem
          913 798 rmoveto
          28 -49 -413 -7 -108 hhcurveto
          -51 -2 -21 -50 -19 hvcurveto
          -1 -3 -9 -42 -3 vvcurveto
          -20 7 -8 30 31 313 34 -15 148 vhcurveto
          41 -4 -145 -196 -27 -64 rrcurveto
          -81 -41 67 -34 68 hhcurveto
          25 15 58 39 15 hvcurveto
          49 128 158 202 -102 59 rrcurveto
          endchar
        </CharString>
        <CharString name="lslash">
          -20 callgsubr
          461 363 rmoveto
          95 28 223 66 -57 107 -6 13 -22 27 -18 -8 rrcurveto
          -8 -7 -3 -5 -4 hvcurveto
          -63 -31 -112 -35 -74 -26 rrcurveto
          170 190 434 499 212 vvcurveto
          65 -60 39 -61 -137 -191 -244 -174 -123 vhcurveto
          -118 -167 -129 -265 -60 -239 -40 -12 -40 -11 -35 -11 -38 -12 -35 -28 47 -94 10 -15 12 -14 15 5 8 2 0 2 7 2 18 6 20 8 21 7 rrcurveto
          -2 -24 -1 -24 -23 vvcurveto
          -129 62 -86 133 124 147 74 92 81 vhcurveto
          24 27 23 23 45 vvcurveto
          20 vlineto
          16 0 57 -26 vhcurveto
          hintmask 10111000
          -43 -138 -206 -125 hhcurveto
          -61 -47 36 64 40 11 37 4 16 hvcurveto
          68 21 67 21 57 19 rrcurveto
          385 972 rmoveto
          -108 -438 -580 -97 -115 vhcurveto
          36 109 56 129 56 100 rrcurveto
          72 40 284 408 53 hhcurveto
          8 2 -7 -8 hvcurveto
          endchar
        </CharString>
        <CharString name="m">
          489 -36 151 -102 -21 23 -21 23 -21 641 172 -172 197 hstemhm
          675 172 10 168 110 213 hintmask 1000011110000000
          1373 -88 callgsubr
          -8 16 callsubr
          -19 -16 -149 -162 -84 -12 rrcurveto
          -55 2 41 22 hvcurveto
          78 323 422 70 vvcurveto
          51 -41 35 -49 -241 -170 -246 -156 -154 vhcurveto
          57 70 97 106 99 vvcurveto
          hintmask 0001101110000000
          59 -37 43 -62 -116 -213 -195 -86 -82 vhcurveto
          32 41 117 140 17 34 rrcurveto
          4 11 4 12 10 vvcurveto
          19 -4 20 -21 -48 -74 -16 -41 -29 vhcurveto
          -146 -206 -127 -251 -104 -229 rrcurveto
          -4 -13 -4 -12 -10 vvcurveto
          -10 0 -2 8 -5 vhcurveto
          12 -8 10 -12 15 -4 rrcurveto
          18 hlineto
          hintmask 0010101110000000
          16 17 -2 16 hhcurveto
          13 49 61 13 8 hvcurveto
          37 64 40 58 44 58 rrcurveto
          61 46 276 328 75 hhcurveto
          16 9 -14 -15 hvcurveto
          -37 -318 -510 -24 vvcurveto
          hintmask 0100101110000000
          -31 72 -14 24 18 24 4 16 12 vhcurveto
          55 72 52 71 59 70 rrcurveto
          59 50 334 371 70 hhcurveto
          6 2 -2 -4 hvcurveto
          -16 -278 -324 -172 vvcurveto
          -78 31 -79 151 -15 vhcurveto
          hintmask 1000101110000000
          -1 5 6 0 5 hhcurveto
          139 153 167 51 26 hvcurveto
          -95 callsubr
          endchar
        </CharString>
        <CharString name="macron">
          62 973 156 -156 166 -155 -21 194 -20 hstemhm
          hintmask 10010000
          812 973 rmoveto
          81 146 -4 -72 callsubr
          -18 -75 -46 -8 -75 hhcurveto
          hintmask 01000000
          -99 -16 10 -98 hhcurveto
          -33 -39 -20 -116 hvcurveto
          hintmask 00110000
          -22 4 -18 14 vhcurveto
          7 2 2 6 hhcurveto
          hintmask 10010000
          -33 callgsubr
        </CharString>
        <CharString name="micro">
          -90 callsubr
        </CharString>
        <CharString name="minus">
          93 533 176 19 -20 hstemhm
          hintmask 10000000
          292 533 rmoveto
          168 1 6 14 168 14 80 7 82 3 80 10 rrcurveto
          -47 callsubr
          11 rrcurveto
          hintmask 01000000
          4 16 callgsubr
          hintmask 10000000
          -124 -161 -7 -12 -167 hvcurveto
          -35 callgsubr
          endchar
        </CharString>
        <CharString name="mu">
          -90 callsubr
        </CharString>
        <CharString name="multiply">
          93 299 -21 690 -20 hstem
          329 319 rmoveto
          38 44 90 111 95 88 68 -98 79 -134 24 -32 rrcurveto
          -10 8 14 -10 15 hhcurveto
          7 6 2 5 7 hvcurveto
          17 14 28 57 28 vvcurveto
          16 -5 15 -14 20 vhcurveto
          -31 44 -71 91 -56 73 69 57 106 88 56 37 rrcurveto
          39 26 11 18 22 vvcurveto
          29 -38 4 -32 13 vhcurveto
          9 -23 -19 2 -14 hhcurveto
          -27 -159 -158 -26 -29 hvcurveto
          -4 -3 -6 -6 -8 -7 -51 69 -83 107 -15 21 rrcurveto
          16 -12 -14 7 -14 hhcurveto
          -14 -5 -4 -9 -8 hvcurveto
          -46 -48 -7 -23 -27 vvcurveto
          -10 2 -11 9 -10 vhcurveto
          40 -43 76 -75 47 -50 -73 -69 -88 -85 -45 -48 rrcurveto
          -8 -9 -29 -17 -32 vvcurveto
          -6 1 -7 3 -7 vhcurveto
          -14 5 44 -52 29 hhcurveto
          6 5 2 5 4 hvcurveto
          endchar
        </CharString>
        <CharString name="n">
          43 -35 145 -91 -24 callsubr
          2 -20 hstemhm
          434 150 hintmask 10101000
          -57 callgsubr
          hintmask 01011000
          -74 callgsubr
          hintmask 10101000
          50 55 271 285 52 4 2 -2 rcurveline
          -3 -20 -40 -59 -10 -15 rrcurveto
          -84 -124 -109 -169 -127 vvcurveto
          -69 callgsubr
          endchar
        </CharString>
        <CharString name="nacute">
          43 -35 145 -91 -21 1334 -20 hstemhm
          434 150 hintmask 10110000
          956 -98 callsubr
          hintmask 01110000
          -80 callgsubr
          hintmask 10110000
          -69 callgsubr
          -133 964 -106 callgsubr
        </CharString>
        <CharString name="napostrophe">
          59 -35 145 -91 -24 callsubr
          94 341 hstemhm
          hintmask 10110000
          972 -98 callsubr
          hintmask 01110000
          -80 callgsubr
          hintmask 10110000
          -69 callgsubr
          -342 834 rmoveto
          16 21 12 35 35 vvcurveto
          46 -25 52 -77 -74 -56 -70 -52 -16 5 -14 11 -10 vhcurveto
          -8 -21 -62 -86 -8 -6 rrcurveto
          -79 callsubr
          64 106 88 64 47 hvcurveto
          endchar
        </CharString>
        <CharString name="nbspace">
          -332 endchar
        </CharString>
        <CharString name="ncaron">
          43 -35 145 -91 -24 callsubr
          118 2 callsubr
          434 150 hintmask 10110100
          956 -98 callsubr
          hintmask 01110100
          -80 callgsubr
          hintmask 10101100
          -69 callgsubr
          -407 1111 -77 callsubr
          hintmask 10110100
          -84 callsubr
          hintmask 10101100
          -38 callgsubr
        </CharString>
        <CharString name="ncommaaccent">
          43 0 callsubr
          107 145 -91 -24 callsubr
          2 -20 hstemhm
          28 303 -234 -14 callgsubr
          103 150 hintmask 1101010010000000
          -57 callgsubr
          hintmask 1010110010000000
          -74 callgsubr
          hintmask 1101001010000000
          50 55 271 285 52 4 2 -2 rcurveline
          -3 -20 -40 -59 -10 -15 rrcurveto
          -84 -124 -109 -169 -127 vvcurveto
          -69 callgsubr
          -625 -465 -67 callsubr
          hintmask 1101000110000000
          -71 callsubr
          hintmask 1101001010000000
          -97 callgsubr
        </CharString>
        <CharString name="nine">
          61 -22 -21 528 175 468 144 hstem
          266 168 516 144 vstem
          109 -43 rmoveto
          212 741 749 366 31 hvcurveto
          1 11 0 12 10 vvcurveto
          107 -57 60 -98 -193 -480 -283 -373 vhcurveto
          -115 6 89 -16 32 hhcurveto
          25 86 15 77 144 hvcurveto
          5 -6 -204 -226 -223 -177 -168 -57 rlinecurve
          -24 -8 -9 -11 -17 vvcurveto
          -14 5 -15 12 -22 vhcurveto
          -40 15 15 -27 37 hhcurveto
          785 1171 rmoveto
          27 29 -26 -31 -70 -84 -118 -86 -115 hvcurveto
          -47 -89 -128 -61 -73 hhcurveto
          -31 -25 11 32 119 315 306 145 hvcurveto
          endchar
        </CharString>
        <CharString name="notequal">
          122 48 -21 1093 -20 hstem
          385 686 rmoveto
          53 70 4 4 70 hvcurveto
          -84 -108 -58 -2 -57 -5 -51 -4 rlinecurve
          19 callsubr
          -41 55 -9 29 vhcurveto
          8 hlineto
          27 31 0 2 32 hvcurveto
          -108 -141 rlineto
          -29 -47 -4 -14 -76 vvcurveto
          -39 16 -57 27 20 2 22 19 9 vhcurveto
          94 137 78 112 65 99 133 12 121 14 29 2 rrcurveto
          31 2 49 19 39 vvcurveto
          14 -6 6 -11 8 vhcurveto
          -22 8 callsubr
          11 rrcurveto
          4 16 callgsubr
          -96 hlineto
          31 43 28 41 23 35 244 22 rcurveline
          30 3 50 17 40 -12 callsubr
          -59 hlineto
          43 61 15 16 13 17 rrcurveto
          18 24 4 19 17 vvcurveto
          40 -4 49 -18 -10 -10 -14 -6 -6 vhcurveto
          -172 -226 -90 -2 -90 -4 -86 -6 rlinecurve
          -31 -2 -84 -47 -36 callgsubr
          -40 55 -9 29 vhcurveto
          endchar
        </CharString>
        <CharString name="ntilde">
          43 -35 145 -91 -24 callsubr
          139 161 -41 158 hstemhm
          434 150 hintmask 10101100
          956 -98 callsubr
          hintmask 01101100
          -80 callgsubr
          hintmask 10110100
          -69 callgsubr
          -116 888 rmoveto
          hintmask 10101100
          -76 callsubr
          hintmask 10110100
          -83 callgsubr
        </CharString>
        <CharString name="numbersign">
          355 39 489 -442 442 -163 163 -131 131 199 147 326 -20 hstemhm
          hintmask 00101100
          306 365 rmoveto
          -36 -67 -53 -77 -47 vvcurveto
          -15 4 -17 7 -27 vhcurveto
          hintmask 10001100
          -29 4 27 -47 24 hhcurveto
          17 -2 18 13 2 hvcurveto
          35 92 59 104 61 105 72 6 39 4 70 4 rrcurveto
          -21 -50 -29 -55 -39 vvcurveto
          -16 6 -19 17 -38 vhcurveto
          hintmask 01001100
          -29 13 34 -53 22 hhcurveto
          12 1 9 10 hvcurveto
          12 vlineto
          hintmask 00011100
          18 84 45 96 50 100 73 4 76 2 76 9 rrcurveto
          33 2 53 14 33 vvcurveto
          13 -8 4 -11 7 vhcurveto
          -25 16 -5 22 -27 7 rrcurveto
          2 -10 -55 0 -15 hhcurveto
          -80 hlineto
          138 228 55 4 59 4 45 4 rlinecurve
          31 45 12 33 10 -6 2 -8 7 hvcurveto
          -21 12 -8 23 -20 6 rrcurveto
          3 -13 -49 1 -12 hhcurveto
          -29 hlineto
          37 63 29 57 14 48 rrcurveto
          2 5 0 6 5 vvcurveto
          45 -42 57 -12 -8 -4 -8 -4 -4 vhcurveto
          -180 -278 -145 -5 6 11 78 143 31 59 rlinecurve
          5 10 2 10 8 vvcurveto
          37 -26 50 -12 -8 -7 -12 -6 -4 vhcurveto
          -73 -97 -60 -106 -84 -113 -129 -6 rcurveline
          -41 -2 -67 -33 -11 -22 rrcurveto
          -4 -17 -26 -6 -12 vvcurveto
          -29 51 -12 35 24 45 1 1 29 vhcurveto
          -51 -70 -35 -73 -41 -68 rrcurveto
          -2 -20 -52 -2 -20 hhcurveto
          -35 -86 -45 -23 -10 hvcurveto
          -8 -18 -29 -8 -14 vvcurveto
          hintmask 00101100
          -29 59 -12 31 vhcurveto
          608 387 rmoveto
          -47 -74 -45 -78 -39 -72 rrcurveto
          -5 -146 -3 -1 -4 hhcurveto
          47 72 41 72 45 73 rrcurveto
          endchar
        </CharString>
        <CharString name="o">
          -50 callsubr
          -52 callgsubr
          hintmask 11101000
          -104 callsubr
          rrcurveto
          hintmask 11110000
          -73 callgsubr
          endchar
        </CharString>
        <CharString name="oacute">
          -50 callsubr
          520 -20 hstem
          21 151 426 236 vstem
          -104 callsubr
          -73 callgsubr
          186 557 -106 callgsubr
        </CharString>
        <CharString name="obreve">
          -50 callsubr
          119 162 -162 350 -52 callgsubr
          hintmask 11101010
          -104 callsubr
          rrcurveto
          hintmask 11011100
          -73 callgsubr
          -147 643 -80 callsubr
          hintmask 11101100
          -75 callgsubr
        </CharString>
        <CharString name="ocircumflex">
          -50 callsubr
          119 406 -52 callgsubr
          hintmask 11110100
          -104 callsubr
          rrcurveto
          hintmask 11111000
          -73 callgsubr
          324 299 -105 callsubr
        </CharString>
        <CharString name="odieresis">
          -50 callsubr
          149 -19 callgsubr
          21 151 320 215 -109 236 8 callgsubr
          -43 246 hintmask 1110100100000000
          -104 callsubr
          rrcurveto
          hintmask 1110101000000000
          -73 callgsubr
          hintmask 1110110010000000
          404 497 -79 callgsubr
          hintmask 1101110010000000
          -58 callsubr
          hintmask 1110110010000000
          -52 callsubr
        </CharString>
        <CharString name="oe">
          380 -27 125 -125 488 -479 -21 621 227 8 callgsubr
          hstemhm
          21 151 331 168 -17 124 248 211 hintmask 1001011010000000
          1237 25 callsubr
          -96 -147 -45 -74 -110 vhcurveto
          50 -2 -11 22 -39 hhcurveto
          -8 -12 0 -2 -14 hvcurveto
          6 vlineto
          12 -33 31 -60 -186 -397 -305 -365 -90 67 -76 97 109 112 69 96 97 vhcurveto
          hintmask 0011010110000000
          -141 5 153 -36 117 -60 callgsubr
          hintmask 1001011010000000
          -69 -92 -139 -138 -146 hhcurveto
          -82 callsubr
          13 11 22 17 17 vvcurveto
          16 -26 41 -17 9 vhcurveto
          2 -6 -8 0 -6 hhcurveto
          hintmask 0101010110000000
          -51 -45 -33 -54 hhcurveto
          -99 callsubr
          vhcurveto
          hintmask 1000110110000000
          -597 -119 rmoveto
          9 5 -7 -13 -40 -46 -99 -110 -138 hvcurveto
          -152 -121 -119 -59 -45 hhcurveto
          -27 -14 21 35 hvcurveto
          1 60 40 103 86 111 -73 callgsubr
          65 -229 rmoveto
          17 -6 20 -5 19 -5 -27 -10 -32 -15 -31 -18 12 20 12 20 10 19 rrcurveto
          endchar
        </CharString>
        <CharString name="ogonek">
          -102 -397 155 -155 225 -225 430 hstemhm
          -49 -1 callsubr
          hintmask 01001000
          -49 -254 rmoveto
          -74 61 -69 49 132 102 59 80 43 vhcurveto
          3 10 3 17 17 vvcurveto
          22 -4 20 -10 vhcurveto
          hintmask 10010000
          -51 -99 -70 -94 hhcurveto
          -8 6 -4 8 11 68 151 148 23 vvcurveto
          hintmask 00101000
          11 -20 0 -45 -72 -137 -215 -72 vhcurveto
          endchar
        </CharString>
        <CharString name="ograve">
          -50 callsubr
          119 405 hstem
          21 151 482 180 vstem
          -104 callsubr
          -73 callgsubr
          -101 418 -92 callsubr
        </CharString>
        <CharString name="ohungarumlaut">
          -50 callsubr
          119 403 -52 callgsubr
          hintmask 11110100
          -104 callsubr
          rrcurveto
          hintmask 11111000
          -73 callgsubr
          -6 547 -86 callsubr
        </CharString>
        <CharString name="omacron">
          -50 callsubr
          203 156 28 -20 -52 callgsubr
          hintmask 11111010
          -104 callsubr
          rrcurveto
          hintmask 11111100
          -73 callgsubr
          161 383 rmoveto
          81 146 -4 -72 callsubr
          -18 -75 -46 -8 -75 hhcurveto
          -99 -16 10 -98 -78 callgsubr
          -33 callgsubr
        </CharString>
        <CharString name="one">
          -290 -4 -21 1258 -20 hstem
          478 596 rmoveto
          172 282 164 239 3 25 rrcurveto
          38 -51 53 -35 -61 -254 -219 -41 -15 vhcurveto
          -5 -12 -2 -7 -1 -5 rrcurveto
          -10 5 -3 7 -10 vhcurveto
          -12 7 0 -33 16 hhcurveto
          6 1 1 5 7 hvcurveto
          29 24 26 21 32 22 -179 -252 -317 -538 -41 -94 rrcurveto
          -1 -1 0 -1 -1 vvcurveto
          -6 19 -4 5 -10 vhcurveto
          -40 35 6 -32 11 hhcurveto
          23 47 19 2 hvcurveto
          29 84 158 262 154 254 rrcurveto
          endchar
        </CharString>
        <CharString name="onehalf">
          429 -6 -21 35 -21 664 106 492 -20 hstemhm
          1192 114 hintmask 10111000
          1153 -66 callsubr
          -655 -325 -95 callgsubr
          375 -665 -45 callgsubr
          -62 callgsubr
          hintmask 01111000
          -61 callsubr
        </CharString>
        <CharString name="onequarter">
          449 -34 -21 1304 -20 hstem
          1286 -82 callgsubr
          -133 463 -101 callgsubr
          -655 -325 -95 callgsubr
          391 -415 -28 callsubr
        </CharString>
        <CharString name="onesuperior">
          -453 485 -21 769 -20 hstem
          498 840 -95 callgsubr
          endchar
        </CharString>
        <CharString name="ordfeminine">
          -179 428 131 74 264 338 -20 hstem
          187 439 vstem
          878 1128 rmoveto
          12 -4 5 -7 10 vhcurveto
          56 -6 -72 24 -38 hhcurveto
          -15 -18 -2 -6 -10 hvcurveto
          -175 -106 -170 -142 -81 -188 rrcurveto
          -6 -13 -7 -19 -17 vvcurveto
          -33 52 -76 51 47 96 101 69 59 vhcurveto
          -9 -21 -13 -35 -19 vvcurveto
          -37 53 -48 27 92 123 136 61 31 vhcurveto
          4 10 4 11 14 vvcurveto
          8 -6 14 -21 -18 -81 -52 -40 -55 vhcurveto
          -28 -20 33 92 52 70 55 79 rlinecurve
          12 18 17 22 14 19 rrcurveto
          9 12 9 16 15 vvcurveto
          -302 -689 rmoveto
          32 6 18 15 54 vvcurveto
          35 -11 10 -39 3 vhcurveto
          -26 -80 -3 -55 -27 -16 3 -63 hhcurveto
          -24 -30 0 -3 -27 hvcurveto
          -25 -16 -24 -43 -27 0 -35 29 -2 hvcurveto
          37 131 15 41 hhcurveto
          113 -6 rlineto
          10 13 -1 3 15 hvcurveto
          181 714 rmoveto
          1 1 1 0 -1 vvcurveto
          -103 -145 -129 -131 -139 -102 80 153 137 135 152 90 rrcurveto
          endchar
        </CharString>
        <CharString name="ordmasculine">
          -302 383 142 610 100 hstemhm
          141 377 -246 95 312 124 hintmask 11011000
          793 1047 rmoveto
          7 20 3 27 24 vvcurveto
          64 -47 53 -72 -67 -39 -30 -41 -37 vhcurveto
          -74 -82 -195 -243 -123 vvcurveto
          -42 31 -92 64 14 9 4 2 7 vhcurveto
          211 72 127 196 58 191 rrcurveto
          -322 -645 rmoveto
          hintmask 11101000
          29 2 18 18 47 vvcurveto
          43 -8 13 -43 -27 -38 -4 -2 -56 vhcurveto
          -57 hlineto
          -25 -34 -1 -4 -50 hvcurveto
          -26 -3 -13 -23 -43 vvcurveto
          -27 3 -35 28 vhcurveto
          37 111 19 41 26 21 -2 24 hhcurveto
          11 14 0 2 14 hvcurveto
          203 733 rmoveto
          4 1 -13 -6 -4 -2 -6 -1 -4 hvcurveto
          -25 -149 -149 -162 -123 -100 rrcurveto
          hintmask 11011000
          -12 -7 rlineto
          16 1 6 1 7 vhcurveto
          49 141 113 170 118 97 rrcurveto
          10 10 7 4 8 hhcurveto
          endchar
        </CharString>
        <CharString name="oslash">
          -7 -229 -21 1325 -88 callsubr
          endchar
        </CharString>
        <CharString name="oslashacute">
          -7 -229 -21 1580 -88 callsubr
          431 736 -106 callgsubr
        </CharString>
        <CharString name="otilde">
          -50 callsubr
          140 161 -41 158 -52 callgsubr
          hintmask 11101010
          -104 callsubr
          rrcurveto
          hintmask 11101100
          -73 callgsubr
          203 481 rmoveto
          hintmask 11011100
          -76 callsubr
          hintmask 11101100
          -83 callgsubr
        </CharString>
        <CharString name="p">
          22 callgsubr
          -157 441 -1 -22 callgsubr
          285 434 28 callsubr
          11 vhcurveto
          hintmask 11010100
          25 -8 -7 5 -10 -6 -7 -2 -5 hhcurveto
          hintmask 11101100
          18 callsubr
          -854 -1401 -61 callgsubr
          hintmask 11010100
          1 callsubr
        </CharString>
        <CharString name="paragraph">
          557 1358 107 hstem
          1536 218 vstem
          1176 842 rmoveto
          -137 -191 -339 -639 -75 -127 -11 -18 -30 -65 -2 -20 rrcurveto
          -1 -5 0 -5 -5 vvcurveto
          -23 18 -13 25 vhcurveto
          27 7 -1 8 26 -1 8 7 11 -3 -19 23 hhcurveto
          5 4 1 1 6 hvcurveto
          20 6 154 330 141 271 110 211 364 584 143 191 rrcurveto
          47 -13 31 37 29 vvcurveto
          85 -190 13 -49 -432 -464 -195 -304 -109 82 -47 101 -49 vhcurveto
          -223 -331 -207 -350 -140 -269 -66 -120 45 -50 134 10 rrcurveto
          5 4 1 2 6 hvcurveto
          20 7 184 391 133 227 rrcurveto
          570 334 299 509 140 hhcurveto
          17 49 -3 -10 -3 -52 -60 -2 -3 hvcurveto
          -73 -80 -38 -86 -195 -271 rrcurveto
          endchar
        </CharString>
        <CharString name="parenleft">
          -7 -360 -21 2042 -20 hstem
          173 187 vstem
          1277 1485 rmoveto
          47 20 72 15 34 vvcurveto
          23 -10 84 -31 -43 -43 -12 -19 -43 vhcurveto
          -526 -225 -527 -598 -848 vvcurveto
          -145 154 -195 43 74 -91 156 241 7 vhcurveto
          14 607 389 649 514 213 rrcurveto
          endchar
        </CharString>
        <CharString name="parenright">
          -7 -348 -21 hstem
          819 165 vstem
          927 1644 rmoveto
          -20 -74 2 -23 -11 hvcurveto
          -8 -17 -3 -25 -32 -50 8 -70 -83 vvcurveto
          -673 -528 -771 -396 -105 vhcurveto
          -31 -8 -75 6 -53 vvcurveto
          -8 1 -9 4 -10 vhcurveto
          -82 29 49 -2 41 hhcurveto
          432 639 923 748 199 -24 143 -33 hvcurveto
          endchar
        </CharString>
        <CharString name="partialdiff">
          22 -27 148 521 147 403 301 -149 149 hstemhm
          14 151 609 147 hintmask 11101100
          921 1035 rmoveto
          239 -86 219 -159 -151 -167 -184 -51 -21 33 -45 54 vhcurveto
          hintmask 11011100
          73 18 152 114 hhcurveto
          55 69 -79 -218 -66 -5 -110 -23 -107 hvcurveto
          15 -12 -26 10 -19 callsubr
          hvcurveto
          -234 -439 22 callsubr
          -28 -13 21 35 143 308 322 193 43 -11 -23 -23 -11 hvcurveto
          endchar
        </CharString>
        <CharString name="percent">
          609 -27 140 370 13 callgsubr
          857 127 hintmask 11011100
          860 1083 -63 callgsubr
          -45 callsubr
          964 -17 rmoveto
          hintmask 10111100
          5 callsubr
          256 222 453 55 -22 vhcurveto
          -20 50 37 27 48 vvcurveto
          -444 -493 rmoveto
          -13 -7 21 16 158 245 303 79 9 4 -11 -10 -135 -188 -342 -129 hvcurveto
          411 1052 -101 callgsubr
          endchar
        </CharString>
        <CharString name="period">
          -282 -63 229 hstem
          150 225 vstem
          306 166 rmoveto
          -3 callgsubr
        </CharString>
        <CharString name="periodcentered">
          -247 398 317 hstem
          237 245 vstem
          302 398 rmoveto
          -13 callsubr
        </CharString>
        <CharString name="perthousand">
          1174 -27 137 373 13 callgsubr
          931 53 -53 140 347 131 hintmask 11011101
          860 1083 -63 callgsubr
          -45 callsubr
          964 -17 rmoveto
          hintmask 10111101
          5 callsubr
          274 199 463 170 vhcurveto
          -444 -493 rmoveto
          -13 -7 21 16 158 245 303 79 9 4 -11 -10 -135 -188 -342 -129 hvcurveto
          411 1052 -101 callgsubr
          598 -595 -63 callgsubr
          hintmask 11011011
          -45 callsubr
          endchar
        </CharString>
        <CharString name="plus">
          93 272 435 -154 154 -154 438 hstemhm
          hintmask 10000000
          819 553 rmoveto
          66 8 39 43 25 hvcurveto
          6 10 2 9 8 vvcurveto
          25 -25 13 -18 -49 -70 2 5 -117 vhcurveto
          60 108 53 66 43 vvcurveto
          hintmask 00100000
          39 -49 28 -19 -47 -8 -45 -12 -6 vhcurveto
          -53 -105 -54 -84 -16 -32 rrcurveto
          2 -45 -62 4 -108 hhcurveto
          -51 -2 -41 -68 -27 hvcurveto
          -1 -3 -1 -4 -3 vvcurveto
          -20 19 -19 30 31 94 2 2 76 vhcurveto
          -19 -61 -26 -53 -27 -64 rrcurveto
          -1 -2 0 -2 -2 vvcurveto
          -15 18 -18 20 -24 vhcurveto
          hintmask 10000000
          -23 19 17 -29 21 hhcurveto
          25 3 39 33 7 hvcurveto
          16 84 23 74 25 61 rrcurveto
          hintmask 01000000
          -2 86 77 -8 74 hhcurveto
          endchar
        </CharString>
        <CharString name="plusminus">
          143 145 156 74 385 -166 367 hstemhm
          hintmask 10100000
          859 594 rmoveto
          66 -11 37 71 50 hvcurveto
          2 3 1 3 3 vvcurveto
          16 -24 14 -20 -47 -68 2 5 -106 vhcurveto
          22 57 16 45 39 vvcurveto
          39 -79 33 -19 -15 -10 -50 -12 -6 vhcurveto
          -11 -22 -35 -80 -15 -45 rrcurveto
          hintmask 11000000
          4 -45 -62 4 -110 hhcurveto
          -27 -28 -62 -47 -25 hvcurveto
          -2 -4 -1 -4 -4 vvcurveto
          -19 21 -18 29 31 96 2 2 76 vhcurveto
          -6 -12 -37 -90 -6 -12 rrcurveto
          -1 -2 -1 -3 -2 vvcurveto
          -16 23 -19 20 -24 vhcurveto
          -23 19 10 -28 24 hhcurveto
          24 37 121 30 9 hvcurveto
          8 27 8 27 10 24 rrcurveto
          hintmask 10100000
          -4 78 70 -6 67 hhcurveto
          -82 -449 rmoveto
          66 33 33 49 23 -11 43 -24 -60 -90 3 5 -164 hvcurveto
          1 -51 -39 9 -166 hhcurveto
          -51 -28 -51 -57 -25 12 -24 35 hvcurveto
          37 102 4 78 123 102 -13 96 hhcurveto
          endchar
        </CharString>
        <CharString name="q">
          80 -587 -21 571 178 529 129 20 -20 hstemhm
          -8 180 -22 481 hintmask 11011000
          983 776 rmoveto
          17 -14 26 -21 -24 -78 -26 -21 -16 vhcurveto
          -9 -8 -6 -14 -6 -13 rrcurveto
          51 -18 -58 11 -47 hhcurveto
          -74 -80 -36 -34 -63 hvcurveto
          -196 -107 -281 -256 -243 vvcurveto
          -88 49 -72 94 119 166 137 86 76 vhcurveto
          hintmask 11100100
          -80 -135 -266 -440 -123 vvcurveto
          -49 47 -47 49 52 193 194 45 46 vhcurveto
          34 33 60 40 38 vvcurveto
          10 -4 2 -6 6 vhcurveto
          31 -27 -16 23 -45 hhcurveto
          -31 -90 -101 -24 -25 hvcurveto
          127 248 99 163 137 244 76 135 84 133 69 138 rrcurveto
          4 8 0 8 10 vvcurveto
          -227 -119 rmoveto
          -62 -90 -67 -88 -76 -78 rrcurveto
          -57 -55 -234 -203 -71 hhcurveto
          hintmask 11101000
          -13 -6 9 12 78 144 184 57 57 hvcurveto
          68 68 167 121 99 hhcurveto
          18 17 -2 -11 14 hvcurveto
          endchar
        </CharString>
        <CharString name="question">
          341 -56 230 762 90 271 165 hstemhm
          270 221 -118 196 -196 291 578 176 hintmask 11100110
          1418 1159 rmoveto
          199 -193 104 -220 -264 -368 -174 -229 -64 85 -59 53 92 61 32 62 8 -6 11 -9 vhcurveto
          -10 -18 -23 -27 hhcurveto
          hintmask 11101010
          -4 -21 9 6 122 265 134 185 164 59 -49 -82 -224 -510 -181 -189 -176 hvcurveto
          -45 -41 -37 -57 -72 vvcurveto
          -71 93 -6 18 116 -88 66 61 60 vhcurveto
          223 227 535 75 392 vvcurveto
          -1089 -1215 rmoveto
          hintmask 11110010
          78 84 99 73 37 -22 21 -35 -82 -82 -90 -80 -39 20 -21 39 hvcurveto
          endchar
        </CharString>
        <CharString name="questiondown">
          341 -56 165 271 90 762 230 hstemhm
          110 176 578 291 -196 196 -118 221 hintmask 11111000
          110 247 rmoveto
          -199 193 -104 220 264 368 174 229 64 -85 59 -53 -92 -61 -32 -62 -8 6 -11 9 vhcurveto
          10 18 23 27 hhcurveto
          hintmask 11110100
          4 21 -9 -6 -122 -265 -134 -185 -164 -59 49 82 224 510 181 189 176 hvcurveto
          45 41 37 57 72 vvcurveto
          71 -93 6 -18 -116 88 -66 -61 -60 vhcurveto
          -223 -227 -535 -75 -392 vvcurveto
          1089 1215 rmoveto
          hintmask 11110010
          -78 -84 -99 -73 -37 22 -21 35 82 82 90 80 39 -20 21 -39 hvcurveto
          endchar
        </CharString>
        <CharString name="quotedbl">
          -65 909 512 hstem
          477 969 rmoveto
          -27 41 -33 12 64 217 400 69 17 -27 26 -57 -27 -27 -6 -41 -20 vhcurveto
          -60 -119 -116 -256 -30 vvcurveto
          265 -4 rmoveto
          -34 31 -20 46 29 234 349 117 21 -20 19 -61 -29 -43 -3 -44 -7 vhcurveto
          -12 -66 -168 -282 -57 vvcurveto
          endchar
        </CharString>
        <CharString name="quotedblbase">
          -212 -193 341 -324 -21 hstemhm
          -95 232 69 218 hintmask 10110000
          109 -41 rmoveto
          16 21 12 35 35 vvcurveto
          46 -25 52 -77 -74 -56 -70 -52 -16 5 -14 11 -10 vhcurveto
          -8 -21 -62 -86 -8 -6 rrcurveto
          -79 callsubr
          64 106 89 63 47 hvcurveto
          291 -4 rmoveto
          13 20 11 33 33 vvcurveto
          48 -25 55 -74 -69 -50 -68 -52 -17 5 -14 11 -11 vhcurveto
          -6 -21 -34 callgsubr
        </CharString>
        <CharString name="quotedblleft">
          -166 992 341 4 -20 hstemhm
          440 217 69 233 hintmask 10110000
          754 1182 rmoveto
          -16 -21 -12 -35 -34 vvcurveto
          -47 25 -53 77 74 57 70 53 15 -5 15 -11 10 vhcurveto
          8 21 61 86 9 4 callsubr
          2 16 -33 hhcurveto
          -63 -107 -88 -63 -47 hvcurveto
          -290 4 rmoveto
          -14 -20 -10 -34 -33 vvcurveto
          -47 24 -56 74 69 50 69 52 16 -4 15 -11 11 vhcurveto
          6 21 55 86 8 6 rrcurveto
          6 5 2 8 7 vvcurveto
          10 -4 9 -6 2 vhcurveto
          hintmask 01110000
          8 -16 2 16 -31 hhcurveto
          -59 -96 -88 -63 -45 hvcurveto
          endchar
        </CharString>
        <CharString name="quotedblright">
          -165 997 341 -324 -21 hstemhm
          502 232 69 218 hintmask 10110000
          706 1149 rmoveto
          16 21 12 35 35 vvcurveto
          46 -25 52 -77 -74 -56 -70 -52 -16 5 -14 11 -10 vhcurveto
          -8 -21 -62 -86 -8 -6 rrcurveto
          -79 callsubr
          64 106 88 64 47 hvcurveto
          291 -4 rmoveto
          13 20 11 33 33 vvcurveto
          48 -25 55 -74 -69 -50 -68 -53 -16 5 -15 11 -11 vhcurveto
          -6 -20 -34 callgsubr
        </CharString>
        <CharString name="quoteleft">
          -452 992 341 hstem
          440 233 vstem
          469 1182 rmoveto
          -16 -21 -13 -35 -35 vvcurveto
          -46 26 -53 76 75 56 70 52 16 -5 14 -11 11 vhcurveto
          8 21 62 86 8 4 callsubr
          3 16 -33 hhcurveto
          -64 -106 -88 -63 -47 hvcurveto
          endchar
        </CharString>
        <CharString name="quoteright">
          -452 997 341 hstem
          502 232 vstem
          706 1149 rmoveto
          16 21 12 35 35 vvcurveto
          46 -25 52 -77 -74 -56 -70 -52 -16 5 -14 11 -10 vhcurveto
          -8 -21 -62 -86 -8 -6 rrcurveto
          -79 callsubr
          64 106 88 64 47 hvcurveto
          endchar
        </CharString>
        <CharString name="quotesinglbase">
          -499 -193 341 hstem
          -95 232 vstem
          109 -41 rmoveto
          16 21 12 35 35 vvcurveto
          46 -25 52 -77 -74 -56 -70 -52 -16 5 -14 11 -10 vhcurveto
          -8 -21 -62 -86 -8 -6 rrcurveto
          -79 callsubr
          64 106 89 63 47 hvcurveto
          endchar
        </CharString>
        <CharString name="quotesingle">
          -366 930 -21 512 -20 hstem
          456 969 rmoveto
          -27 61 -33 13 71 228 404 69 17 -15 22 -57 -27 -45 -8 -39 -22 vhcurveto
          -39 -69 -168 -291 -45 vvcurveto
          endchar
        </CharString>
        <CharString name="r">
          -42 19 -24 callsubr
          2 -20 hstemhm
          604 281 hintmask 11010000
          -64 callsubr
          hintmask 10110000
          -85 callsubr
          rrcurveto
          hintmask 11010000
          -71 callgsubr
          endchar
        </CharString>
        <CharString name="racute">
          -42 19 -21 1331 -20 hstem
          -75 callsubr
          -87 463 -106 callgsubr
        </CharString>
        <CharString name="rcaron">
          -42 19 -24 callsubr
          115 2 callsubr
          604 281 hintmask 11011000
          -75 callsubr
          -361 610 -77 callsubr
          hintmask 11101000
          -84 callsubr
          hintmask 11011000
          -38 callgsubr
        </CharString>
        <CharString name="rcommaaccent">
          -42 0 callsubr
          161 -24 callsubr
          2 -20 hstemhm
          -267 303 -234 -14 callgsubr
          568 281 hintmask 11101001
          -64 callsubr
          hintmask 11011001
          -85 callsubr
          rrcurveto
          hintmask 11100101
          -71 callgsubr
          -849 -963 -67 callsubr
          hintmask 11100011
          -71 callsubr
          hintmask 11100101
          -97 callgsubr
        </CharString>
        <CharString name="registered">
          267 609 115 -115 485 138 90 63 101 hstemhm
          461 90 209 321 -108 108 78 108 hintmask 10111101
          1267 1275 rmoveto
          129 -147 82 -66 -129 -70 -25 -6 -24 vhcurveto
          -114 -31 -256 -218 -284 vvcurveto
          -215 135 -98 125 227 319 233 433 vhcurveto
          -186 -66 rmoveto
          72 -76 41 -108 -25 -74 -17 -34 -22 vhcurveto
          -5 -9 -11 -14 -9 vvcurveto
          -4 3 -3 7 vhcurveto
          8 8 2 8 hhcurveto
          -77 -119 -80 -148 -25 -120 rrcurveto
          -2 -1 -2 -2 vvcurveto
          -27 34 -18 28 15 13 5 11 7 vhcurveto
          25 69 22 68 35 63 rrcurveto
          6 21 0 3 14 hvcurveto
          8 -54 35 -135 27 -51 rrcurveto
          -33 -51 -58 -18 -53 hhcurveto
          -94 -94 53 162 86 104 246 193 86 hvcurveto
          6 14 94 22 64 hhcurveto
          47 92 -59 -129 -119 -70 -135 -96 -94 hvcurveto
          -33 45 -39 100 -6 37 rrcurveto
          90 29 76 82 67 vvcurveto
          hintmask 01111011
          -108 hmoveto
          -57 -78 -58 -52 vhcurveto
          -10 hlineto
          27 58 18 33 27 57 rrcurveto
          16 hlineto
          27 25 0 -33 hvcurveto
          endchar
        </CharString>
        <CharString name="ring">
          -102 889 124 293 -20 hstem
          482 113 211 123 vstem
          812 1306 -81 callsubr
        </CharString>
        <CharString name="s">
          -31 callsubr
          -9 callgsubr
          hintmask 10010110
          872 768 rmoveto
          -78 callsubr
          vhcurveto
          hintmask 01101010
          -73 callsubr
          hintmask 10010110
          -74 callsubr
          hintmask 10101010
          -63 callsubr
          endchar
        </CharString>
        <CharString name="sacute">
          -4 -37 160 477 -24 callgsubr
          507 -20 -9 callgsubr
          hintmask 10110110
          872 768 rmoveto
          -78 callsubr
          vhcurveto
          hintmask 11011010
          -73 callsubr
          hintmask 10110110
          -74 callsubr
          hintmask 11011010
          -63 callsubr
          -83 457 -106 callgsubr
        </CharString>
        <CharString name="scaron">
          -31 callsubr
          106 391 14 -20 -9 callgsubr
          hintmask 1001100110000000
          872 768 rmoveto
          -78 callsubr
          vhcurveto
          hintmask 0110101010000000
          -73 callsubr
          hintmask 1001100110000000
          -74 callsubr
          hintmask 1010011010000000
          -63 callsubr
          -357 604 -77 callsubr
          hintmask 1010101010000000
          -84 callsubr
          hintmask 1010011010000000
          -38 callgsubr
        </CharString>
        <CharString name="scedilla">
          -4 -457 135 286 159 -159 257 379 -24 callgsubr
          hstemhm
          41 130 10 112 56 118 63 179 hintmask 1100111110000000
          349 -264 -77 callgsubr
          14 13 20 14 18 vhcurveto
          169 29 220 104 151 vvcurveto
          37 -31 61 -62 29 vhcurveto
          -74 callsubr
          hintmask 1101011110000000
          -63 callsubr
          7 vlineto
          -78 callsubr
          -18 -36 24 37 vhcurveto
          5 1 6 5 vvcurveto
          hintmask 1011011110000000
          19 -24 2 -25 -41 -41 -67 -72 -49 41 -64 132 -5 vhcurveto
          -21 -30 -12 -34 -24 -12 callgsubr
        </CharString>
        <CharString name="scircumflex">
          -31 callsubr
          106 406 -9 callgsubr
          hintmask 10011011
          872 768 rmoveto
          -78 callsubr
          vhcurveto
          hintmask 01101101
          -73 callsubr
          hintmask 10011011
          -74 callsubr
          hintmask 10101101
          -63 callsubr
          55 199 -105 callsubr
        </CharString>
        <CharString name="section">
          93 -40 164 -164 254 860 -24 callgsubr
          hstemhm
          296 171 -87 159 169 158 -92 176 hintmask 10010110
          1020 1328 rmoveto
          -153 -487 -157 -252 -65 35 -33 74 -17 hvcurveto
          hintmask 10101010
          -128 -59 -65 -62 -100 -175 412 -15 -67 vvcurveto
          -61 -135 -141 -262 vhcurveto
          5 12 41 44 -27 11 rrcurveto
          hintmask 01101010
          7 -13 3 16 -33 hhcurveto
          -59 -78 -41 -35 -29 hvcurveto
          -20 -25 -13 -43 -34 vvcurveto
          -25 11 -51 128 238 401 155 249 69 -53 32 -65 19 vhcurveto
          hintmask 10010101
          107 54 95 57 117 199 -411 19 33 vvcurveto
          32 208 159 189 10 vhcurveto
          -5 -12 -41 -44 27 -11 rrcurveto
          hintmask 10011001
          -7 13 -3 -16 33 hhcurveto
          59 78 41 35 29 hvcurveto
          18 23 14 40 38 vvcurveto
          26 -11 51 -127 vhcurveto
          -246 -655 rmoveto
          -77 -120 -46 -69 -16 vhcurveto
          -37 11 -81 26 47 vvcurveto
          35 39 79 123 29 vhcurveto
          63 -9 82 -18 -61 vvcurveto
          endchar
        </CharString>
        <CharString name="semicolon">
          -54 -193 341 341 230 hstem
          171 232 74 226 vstem
          631 719 rmoveto
          -78 -76 -76 -82 -36 15 -36 57 80 74 90 70 40 -22 30 -50 hvcurveto
          -228 -669 rmoveto
          55 -40 43 -62 -74 -56 -70 -52 -16 5 -14 11 -10 vhcurveto
          -8 -21 -62 -86 -8 -6 rrcurveto
          -79 callsubr
          64 106 89 63 47 hvcurveto
          16 21 12 35 35 vvcurveto
          endchar
        </CharString>
        <CharString name="seven">
          -57 -31 -21 1105 179 -1 -20 hstemhm
          hintmask 10100000
          1012 1020 rmoveto
          25 37 17 20 2 vvcurveto
          8 19 3 14 13 vvcurveto
          35 -33 71 -28 vhcurveto
          hintmask 11000000
          -9 -12 1 -14 hhcurveto
          -131 -1 -329 -22 -28 -13 -40 -19 0 -16 -16 -12 -10 -7 -62 -45 -3 -7 rrcurveto
          -3 -18 -26 -33 -23 vvcurveto
          -13 7 -4 14 25 385 45 9 133 vhcurveto
          -167 -152 -455 -609 -75 -169 rrcurveto
          -24 -54 -17 -31 -21 vvcurveto
          -30 48 -32 15 vhcurveto
          13 12 -7 14 hhcurveto
          14 17 7 14 7 hvcurveto
          57 111 102 179 187 265 115 162 183 220 81 114 rrcurveto
          endchar
        </CharString>
        <CharString name="six">
          84 -37 150 497 146 510 -20 hstem
          75 152 469 176 vstem
          1137 1122 rmoveto
          12 4 6 20 26 vvcurveto
          40 -10 54 -72 -77 -349 -141 -320 -253 vhcurveto
          -168 -213 -131 -235 -19 -209 rrcurveto
          -1 -6 0 -5 -6 vvcurveto
          -106 70 -62 72 327 328 406 251 vhcurveto
          95 -5 -74 41 -57 hhcurveto
          -84 -90 -43 -88 -127 hvcurveto
          217 266 217 143 268 88 rrcurveto
          -502 -512 rmoveto
          25 33 -17 -40 3 hvcurveto
          -70 -82 -120 -102 -95 vhcurveto
          -110 -118 -97 -45 -38 hhcurveto
          -23 -9 21 30 58 33 105 72 134 hvcurveto
          57 63 154 92 86 hhcurveto
          endchar
        </CharString>
        <CharString name="slash">
          18 -229 -21 1886 -20 hstem
          1361 12 callsubr
          -430 -453 -639 -624 -348 -498 1 callgsubr
          314 514 821 758 264 381 rrcurveto
          31 45 -6 33 22 vvcurveto
          endchar
        </CharString>
        <CharString name="space">
          -332 endchar
        </CharString>
        <CharString name="sterling">
          465 -30 140 -113 135 61 137 161 153 145 152 159 154 hstemhm
          -90 151 1107 156 hintmask 01111111
          246 455 rmoveto
          124 62 7 10 80 hvcurveto
          -16 -68 -23 -56 -38 -45 rrcurveto
          14 -78 -79 13 -59 hhcurveto
          -255 -54 -99 -69 -69 10 -96 210 151 121 55 86 101 hvcurveto
          hintmask 10111111
          -45 124 204 -123 119 hhcurveto
          hintmask 01111111
          68 31 12 15 30 hvcurveto
          22 21 69 87 30 vvcurveto
          6 -4 4 -5 -4 -7 -4 -7 -9 vhcurveto
          hintmask 10111111
          -9 -13 -23 -15 -83 hhcurveto
          -156 -104 77 66 -158 hvcurveto
          40 79 27 81 9 78 92 3 89 8 86 11 rrcurveto
          29 3 47 14 32 vvcurveto
          8 -2 4 -7 4 vhcurveto
          -15 11 -8 13 -9 12 -9 12 -8 10 -9 4 rrcurveto
          4 -11 -58 0 -15 hhcurveto
          -106 -29 -1 -2 -47 hvcurveto
          395 67 334 64 52 hhcurveto
          20 5 -6 -18 -22 -115 -96 -69 -31 hvcurveto
          7 -7 -8 7 -2 hhcurveto
          -7 -19 -15 -35 -44 27 -58 67 66 223 190 148 53 -27 74 -110 -240 -344 -229 -334 -63 hvcurveto
          -1 -7 -2 -9 -9 -41 -58 -3 -71 -3 -55 -6 -34 -4 -85 -45 -10 -30 -6 -14 -9 -11 -8 -9 -14 -16 rcurveline
          -29 42 -9 26 vhcurveto
          78 -272 rmoveto
          hintmask 01111111
          -33 -58 -61 -18 -68 hhcurveto
          -42 -34 15 15 15 35 16 96 43 43 -4 -6 46 hvcurveto
          endchar
        </CharString>
        <CharString name="t">
          -317 -38 -2 callsubr
          hstemhm
          50 166 hintmask 11010000
          -93 callgsubr
          hintmask 10110000
          -86 callgsubr
          -90 -139 -278 -453 -2 -157 rrcurveto
          endchar
        </CharString>
        <CharString name="tbar">
          -317 -38 153 418 156 -156 166 219 169 -169 370 hstemhm
          50 166 hintmask 11010100
          50 160 rmoveto
          -129 53 -47 102 -19 vhcurveto
          -2 9 9 -1 10 hhcurveto
          115 126 117 58 67 hvcurveto
          31 27 14 23 38 15 callsubr
          -25 -174 -200 -96 hhcurveto
          -32 -17 10 39 11 2 13 2 15 hvcurveto
          6 47 70 139 79 144 rrcurveto
          94 hlineto
          81 196 -4 -72 callsubr
          -18 -74 -95 -8 -74 hhcurveto
          -1 hlineto
          59 102 53 88 26 39 92 5 72 10 92 9 rrcurveto
          30 3 50 16 40 vvcurveto
          15 -7 6 -10 8 vhcurveto
          -22 16 -7 27 -24 10 rrcurveto
          3 -8 -23 1 -24 hhcurveto
          -24 -62 -5 -1 -13 hvcurveto
          15 25 86 129 16 vvcurveto
          11 -11 16 -12 vhcurveto
          hintmask 10101100
          -86 callgsubr
          -30 -46 -50 -79 -53 -91 rrcurveto
          3 -73 -74 3 -52 -78 callgsubr
          36 2 53 2 58 1 -79 -147 -66 -147 -1 -76 rrcurveto
          endchar
        </CharString>
        <CharString name="tcaron">
          -157 -38 -2 callsubr
          -146 341 hstemhm
          50 166 716 232 hintmask 11011100
          -93 callgsubr
          hintmask 10101100
          -86 callgsubr
          -90 -139 -278 -453 -2 -157 rrcurveto
          1086 1134 rmoveto
          16 21 12 35 35 vvcurveto
          hintmask 11011100
          46 -25 52 -77 -74 -56 -70 -52 -16 5 -14 11 -10 vhcurveto
          -8 -21 -62 -86 -8 -6 rrcurveto
          -79 callsubr
          64 106 88 64 47 hvcurveto
          endchar
        </CharString>
        <CharString name="tcommaaccent">
          -317 -503 341 124 -2 callsubr
          hstemhm
          -42 303 -211 166 hintmask 11100100
          -93 callgsubr
          hintmask 11010100
          -86 callgsubr
          -90 -139 -278 -453 -2 -157 rrcurveto
          hintmask 11011000
          211 -420 -67 callsubr
          -71 callsubr
          -97 callgsubr
        </CharString>
        <CharString name="thorn">
          22 callgsubr
          637 -20 21 -22 callgsubr
          502 788 28 callsubr
          12 vhcurveto
          24 -8 -7 5 -10 -6 -7 -2 -5 hhcurveto
          hintmask 11110100
          18 callsubr
          -1071 -1755 -61 callgsubr
          1 callsubr
        </CharString>
        <CharString name="three">
          84 -25 177 -177 269 250 131 450 144 hstemhm
          681 166 35 150 hintmask 10111100
          630 625 rmoveto
          304 200 98 164 97 vvcurveto
          65 -41 68 -103 -305 -305 -312 -108 -9 vhcurveto
          -1 -5 0 -4 -5 vvcurveto
          -40 2 31 -40 46 hhcurveto
          20 1 16 14 8 hvcurveto
          176 106 289 164 81 hhcurveto
          17 13 -7 -15 -90 -253 -171 -88 -65 hvcurveto
          -82 -60 -75 -24 -72 vvcurveto
          -37 17 -40 30 166 81 -43 -54 3 vhcurveto
          -96 -276 -149 -158 vhcurveto
          hintmask 01111100
          -67 24 92 -27 hhcurveto
          -45 -67 -73 -64 -51 36 -81 101 287 338 248 219 19 hvcurveto
          3 1 3 3 vvcurveto
          106 -116 68 -101 vhcurveto
          endchar
        </CharString>
        <CharString name="threequarters">
          659 -34 -21 514 120 191 449 -322 322 -100 100 30 -20 hstemhm
          hintmask 11010100
          1496 -82 callgsubr
          -113 463 -101 callgsubr
          -533 -32 -34 callsubr
          hintmask 11001100
          -37 callsubr
          hintmask 11100100
          -14 callsubr
          -41 callsubr
          249 -708 -28 callsubr
        </CharString>
        <CharString name="threesuperior">
          -210 459 120 -120 175 136 449 -322 322 -100 100 hstemhm
          608 122 9 111 hintmask 10010110
          850 1133 -34 callsubr
          hintmask 10001110
          -37 callsubr
          hintmask 10100110
          -14 callsubr
          hintmask 01100110
          -41 callsubr
          endchar
        </CharString>
        <CharString name="tilde">
          62 910 161 -143 -21 123 158 hstemhm
          hintmask 10000000
          911 1071 rmoveto
          hintmask 01100000
          -76 callsubr
          hintmask 10000000
          -83 callgsubr
        </CharString>
        <CharString name="trademark">
          779 610 -21 661 128 -128 179 51 -20 21 -20 hstemhm
          523 136 738 339 hintmask 11010110
          1048 1309 rmoveto
          84 14 104 32 56 vvcurveto
          46 -46 23 -38 -61 -80 -44 -34 -45 vhcurveto
          -107 -25 -97 2 -113 -1 rrcurveto
          5 6 5 8 10 vvcurveto
          hintmask 10101110
          15 -11 12 -20 -59 -46 -42 -52 -80 109 -5 56 61 65 11 11 53 vhcurveto
          -95 -144 -68 -111 -88 -120 rrcurveto
          5 -5 -6 3 -8 hhcurveto
          -18 -13 -9 -7 -8 hvcurveto
          -17 -14 -60 -76 -51 vvcurveto
          -30 42 -43 35 80 87 137 137 83 vhcurveto
          78 127 72 108 90 125 rrcurveto
          908 100 rmoveto
          4 6 2 8 5 vvcurveto
          19 -17 16 -18 4 vhcurveto
          -23 -17 3 5 -17 hvcurveto
          3 -12 -9 3 -15 hhcurveto
          -8 -10 -3 -5 -7 hvcurveto
          -82 -59 -206 -236 -183 -172 rrcurveto
          103 229 141 149 42 vvcurveto
          25 -42 20 -33 -11 -11 -3 -4 -9 vhcurveto
          2 -4 -4 2 -10 hhcurveto
          -11 -12 -4 -10 -17 hvcurveto
          -154 -97 -456 -651 -50 vvcurveto
          -31 24 -21 35 -9 vhcurveto
          -4 14 11 -2 8 hhcurveto
          16 14 5 23 11 hvcurveto
          81 165 192 274 110 138 rrcurveto
          -79 -149 -138 -251 -20 vvcurveto
          -38 42 -30 34 12 12 3 9 10 vhcurveto
          45 38 232 267 141 148 rrcurveto
          -84 -125 -154 -220 -57 vvcurveto
          -42 33 -45 59 57 134 110 53 40 vhcurveto
          12 16 4 13 11 10 -5 9 9 vvcurveto
          25 -3 -4 39 -25 hhcurveto
          -13 -9 -18 -8 -7 hvcurveto
          -35 -43 -47 -47 -37 -28 93 159 256 338 56 79 rrcurveto
          endchar
        </CharString>
        <CharString name="two">
          13 -4 -21 1107 153 hstem
          904 153 vstem
          267 164 rmoveto
          172 171 618 538 205 vvcurveto
          51 -39 106 -97 -313 -319 -358 -111 -19 4 -12 5 -4 vhcurveto
          -21 22 39 -15 16 hhcurveto
          20 47 16 30 12 hvcurveto
          7 1 10 5 4 vhcurveto
          237 171 181 83 59 hhcurveto
          18 15 -6 -13 hvcurveto
          1 -66 -247 -228 -175 -196 -86 -96 -176 -138 -67 -73 -70 -77 -49 -51 -6 -13 rrcurveto
          -7 -14 -12 -36 -11 vvcurveto
          1 -25 27 -39 2 -2 rrcurveto
          -11 22 34 -12 11 hhcurveto
          139 19 265 4 166 35 rrcurveto
          19 4 7 16 20 vvcurveto
          9 vlineto
          -1 21 -12 68 -16 9 rrcurveto
          8 -15 17 27 -51 hhcurveto
          -62 -192 -30 -21 -104 hvcurveto
          endchar
        </CharString>
        <CharString name="twosuperior">
          -257 486 -21 432 338 -106 106 hstemhm
          725 114 hintmask 11010000
          406 653 -45 callgsubr
          hintmask 10110000
          -62 callgsubr
          -61 callsubr
        </CharString>
        <CharString name="u">
          -67 callgsubr
          490 -20 -25 callsubr
          hintmask 00111100
          -81 callgsubr
          hintmask 10011100
          -103 callgsubr
          hintmask 01011100
          -107 callsubr
          endchar
        </CharString>
        <CharString name="uacute">
          53 -41 156 1201 -20 hstem
          -36 callsubr
          vstem
          -81 callgsubr
          -103 callgsubr
          -107 callsubr
          -142 878 -106 callgsubr
        </CharString>
        <CharString name="ubreve">
          -67 callgsubr
          621 162 -162 350 -25 callsubr
          hintmask 00110110
          -81 callgsubr
          hintmask 10010110
          -103 callgsubr
          hintmask 01001110
          -107 callsubr
          -515 984 -80 callsubr
          hintmask 10010110
          -75 callgsubr
        </CharString>
        <CharString name="ucircumflex">
          -67 callgsubr
          601 406 -25 callsubr
          hintmask 00111100
          -81 callgsubr
          hintmask 10011100
          -103 callgsubr
          hintmask 01011100
          -107 callsubr
          -4 620 -105 callsubr
        </CharString>
        <CharString name="udieresis">
          -67 callgsubr
          631 246 6 -20 -25 callsubr
          136 246 hintmask 00110111
          -81 callgsubr
          hintmask 10010111
          -103 callgsubr
          hintmask 01010111
          -107 callsubr
          76 818 -79 callgsubr
          hintmask 10001111
          -58 callsubr
          hintmask 10010111
          -52 callsubr
        </CharString>
        <CharString name="ugrave">
          -67 callgsubr
          601 405 hstemhm
          0 178 hintmask 00111000
          -81 callgsubr
          hintmask 10011000
          -103 callgsubr
          hintmask 01011000
          -107 callsubr
          -429 739 -92 callsubr
        </CharString>
        <CharString name="uhungarumlaut">
          -67 callgsubr
          601 403 -25 callsubr
          hintmask 00111100
          -81 callgsubr
          hintmask 10011100
          -103 callgsubr
          hintmask 01011100
          -107 callsubr
          -334 868 -86 callsubr
        </CharString>
        <CharString name="umacron">
          -67 callgsubr
          685 156 28 -20 -25 callsubr
          hintmask 00111110
          -81 callgsubr
          hintmask 10011110
          -103 callgsubr
          hintmask 01011110
          -107 callsubr
          -167 704 rmoveto
          81 146 -4 -72 callsubr
          -18 -75 -46 -8 -75 hhcurveto
          hintmask 10011110
          -99 -16 10 -98 -78 callgsubr
          -33 callgsubr
        </CharString>
        <CharString name="underscore">
          31 -279 185 -152 152 hstemhm
          hintmask 10000000
          -80 -279 rmoveto
          hintmask 01000000
          167 2 170 19 168 12 80 5 82 6 80 8 rrcurveto
          31 3 49 14 38 vvcurveto
          12 -6 6 -10 7 vhcurveto
          -23 16 -6 25 -25 8 rrcurveto
          4 -10 -53 0 -12 hhcurveto
          -125 -125 -6 -4 -123 hvcurveto
          -82 -5 -82 -2 -80 -6 -31 -2 -84 -43 -10 -28 rrcurveto
          -6 -17 -27 -10 -16 vvcurveto
          hintmask 10000000
          -33 49 -13 29 vhcurveto
          endchar
        </CharString>
        <CharString name="uni00AD">
          -68 callsubr
        </CharString>
        <CharString name="uni2215">
          -68 callgsubr
        </CharString>
        <CharString name="uogonek">
          53 -387 155 191 193 652 -20 hstem
          0 178 275 123 vstem
          453 -244 rmoveto
          -87 callgsubr
          -29 callgsubr
          47 63 87 57 42 vhcurveto
          95 70 117 100 22 43 rrcurveto
          -95 callsubr
          -17 callsubr
          -103 callgsubr
          -66 -34 -358 -413 -71 hhcurveto
          -8 -3 5 10 hvcurveto
          87 265 428 35 vvcurveto
          20 -33 45 -35 -54 -37 -73 -170 -97 vhcurveto
          -46 -81 -141 -224 -144 vvcurveto
          -63 47 -68 78 127 164 188 123 98 vhcurveto
          -37 -67 -6 -68 -41 vvcurveto
          -69 48 -41 56 -14 vhcurveto
          -58 -49 -64 -97 -68 vvcurveto
          endchar
        </CharString>
        <CharString name="uring">
          -67 callgsubr
          601 124 293 -20 hstemhm
          0 178 293 128 211 123 hintmask 00111111
          -81 callgsubr
          hintmask 10011111
          -103 callgsubr
          hintmask 01011111
          -107 callsubr
          -114 1037 -81 callsubr
        </CharString>
        <CharString name="utilde">
          -67 callgsubr
          622 161 -41 158 -25 callsubr
          hintmask 00110110
          -81 callgsubr
          hintmask 10010110
          -103 callgsubr
          hintmask 01010110
          -107 callsubr
          -125 802 rmoveto
          hintmask 10001110
          -76 callsubr
          hintmask 10010110
          -83 callgsubr
        </CharString>
        <CharString name="v">
          -12 -35 164 754 -20 hstemhm
          46 164 -91 363 215 199 hintmask 11101000
          896 770 rmoveto
          84 -39 29 -55 -66 -39 -49 -31 vhcurveto
          -33 23 -2 -37 vvcurveto
          -51 -84 -137 -101 -127 vhcurveto
          -104 -83 -200 -183 -36 hhcurveto
          -4 -2 2 4 hvcurveto
          hintmask 11011000
          84 272 445 73 vvcurveto
          33 -33 33 -47 -90 -170 -199 -20 -18 vhcurveto
          -3 -4 -2 -6 -6 vvcurveto
          -29 33 -43 13 12 27 20 19 26 vhcurveto
          hintmask 11101000
          -61 -99 -123 -243 -111 vvcurveto
          -82 61 -35 48 105 205 158 184 163 vhcurveto
          151 171 117 199 93 vvcurveto
          endchar
        </CharString>
        <CharString name="w">
          -25 callgsubr
          895 -20 hstemhm
          38 195 856 184 hintmask 10111000
          -104 callgsubr
          hintmask 01111000
          -44 callgsubr
          endchar
        </CharString>
        <CharString name="wacute">
          -25 callgsubr
          1311 -20 hstemhm
          38 195 856 184 hintmask 10111000
          -104 callgsubr
          hintmask 01111000
          -44 callgsubr
          -315 380 -106 callgsubr
        </CharString>
        <CharString name="wcircumflex">
          -25 callgsubr
          910 406 -391 -20 hstemhm
          38 195 856 40 -40 184 hintmask 10101010
          -104 callgsubr
          hintmask 01101010
          -44 callgsubr
          -177 122 rmoveto
          hintmask 10101100
          23 10 7 22 49 -35 78 -16 41 hvcurveto
          38 -15 10 171 -122 hhcurveto
          -25 -23 -8 -13 -7 hvcurveto
          -43 -49 -33 -30 -70 -60 rrcurveto
          -84 -71 -102 -70 -64 vvcurveto
          hintmask 10011010
          17 callgsubr
          16 72 199 164 63 63 vhcurveto
          hintmask 10101010
          -100 31 20 -142 125 hhcurveto
          endchar
        </CharString>
</ttFont>
